{
.appVersion = "3306";
classes = (
{
automatic = 1;

glyphs = (
{
glyphname = A;
lastChange = "2025-09-15 16:36:26 +0000";
layers = (
{
anchors = (
{
name = Bottom;
position = "{343, 0}";
},
{
name = Greek;
position = "{184, 558}";
},
{
name = Ogonek;
position = "{588, 0}";
},
{
name = Top;
position = "{373, 714}";
}
);
layerId = "FD4D3FDD-DE85-408F-A52A-FF600B1C6101";
paths = (
{
closed = 1;
nodes = (
"22 0 LINE",
"75 0 LINE",
"188 250 LINE",
"493 250 LINE",
"571 0 LINE",
"622 0 LINE",
"398 713 LINE",
"399 714 LINE",
"346 714 LINE"
);
},
{
closed = 1;
nodes = (
"368 646 LINE",
"478 298 LINE",
"210 298 LINE"
);
}
);
width = 680;
},
{
anchors = (
{
name = Bottom;
position = "{408, 0}";
},
{
name = Greek;
position = "{123, 558}";
},
{
name = Ogonek;
position = "{682, 0}";
},
{
name = Top;
position = "{458, 714}";
}
);
layerId = m002;
paths = (
{
closed = 1;
nodes = (
"22 0 LINE",
"235 0 LINE",
"278 98 LINE",
"514 98 LINE",
"543 0 LINE",
"754 0 LINE",
"544 713 LINE",
"545 714 LINE",
"332 714 LINE"
);
},
{
closed = 1;
nodes = (
"419 423 LINE",
"470 248 LINE",
"343 248 LINE"
);
}
);
width = 812;
}
);
leftKerningGroup = A;
rightKerningGroup = A;
unicode = 0041;
},
{
color = 10;
glyphname = Astroke;
lastChange = "2025-09-15 16:39:48 +0000";
layers = (
{
layerId = "FD4D3FDD-DE85-408F-A52A-FF600B1C6101";
paths = (
{
closed = 1;
nodes = (
"22 0 LINE",
"75 0 LINE",
"188 250 LINE",
"263 250 LINE",
"126 -53 LINE",
"176 -53 LINE",
"313 250 LINE",
"492 250 LINE",
"571 0 LINE",
"622 0 LINE",
"449 550 LINE",
"550 772 LINE",
"499 772 LINE",
"429 616 LINE",
"398 714 LINE",
"346 714 LINE"
);
},
{
closed = 1;
nodes = (
"367 646 LINE",
"398 549 LINE",
"285 298 LINE",
"210 298 LINE"
);
},
{
closed = 1;
nodes = (
"419 483 LINE",
"477 298 LINE",
"335 298 LINE"
);
}
);
width = 680;
},
{
layerId = m002;
paths = (
{
closed = 1;
nodes = (
"22 0 LINE",
"235 0 LINE",
"277 98 LINE",
"302 98 LINE",
"234 -53 LINE",
"286 -53 LINE",
"354 98 LINE",
"514 98 LINE",
"543 0 LINE",
"754 0 LINE",
"579 595 LINE",
"659 772 LINE",
"608 772 LINE",
"559 664 LINE",
"544 714 LINE",
"332 714 LINE"
);
},
{
closed = 1;
nodes = (
"418 423 LINE",
"431 381 LINE",
"370 248 LINE",
"342 248 LINE"
);
},
{
closed = 1;
nodes = (
"451 312 LINE",
"470 248 LINE",
"422 248 LINE"
);
}
);
width = 812;
}
);
leftKerningGroup = A;
leftMetricsKey = A;
rightKerningGroup = A;
rightMetricsKey = A;
unicode = 023A;
},
{
color = 10;
glyphname = AE;
lastChange = "2025-09-15 16:39:50 +0000";
layers = (
{
anchors = (
{
name = Top;
position = "{638, 714}";
}
);
layerId = "FD4D3FDD-DE85-408F-A52A-FF600B1C6101";
paths = (
{
closed = 1;
nodes = (
"22 0 LINE",
"75 0 LINE",
"223 250 LINE",
"478 250 LINE",
"461 0 LINE",
"852 0 LINE",
"855 48 LINE",
"514 48 LINE",
"535 344 LINE",
"855 344 LINE",
"858 392 LINE",
"538 392 LINE",
"557 666 LINE",
"898 666 LINE",
"902 714 LINE",
"446 714 LINE"
);
},
{
closed = 1;
nodes = (
"470 666 LINE",
"507 666 LINE",
"481 298 LINE",
"252 298 LINE"
);
}
);
width = 920;
},
{
anchors = (
{
name = Top;
position = "{748, 714}";
}
);
layerId = m002;
paths = (
{
closed = 1;
nodes = (
"22 0 LINE",
"235 0 LINE",
"317 138 LINE",
"540 138 LINE",
"531 0 LINE",
"1047 0 LINE",
"1058 168 LINE",
"752 168 LINE",
"760 284 LINE",
"1045 284 LINE",
"1057 452 LINE",
"772 452 LINE",
"779 546 LINE",
"1085 546 LINE",
"1097 714 LINE",
"447 714 LINE"
);
},
{
closed = 1;
nodes = (
"561 546 LINE",
"569 546 LINE",
"551 288 LINE",
"407 288 LINE"
);
}
);
width = 1105;
}
);
leftKerningGroup = A;
leftMetricsKey = A;
rightKerningGroup = E;
rightMetricsKey = E;
unicode = 00C6;
},
{
glyphname = B;
lastChange = "2025-09-13 21:13:59 +0000";
layers = (
{
layerId = "FD4D3FDD-DE85-408F-A52A-FF600B1C6101";
paths = (
{
closed = 1;
nodes = (
"312 0 LINE SMOOTH",
"451 0 OFFCURVE",
"538 80 OFFCURVE",
"538 215 CURVE SMOOTH",
"538 305 OFFCURVE",
"486 364 OFFCURVE",
"398 374 CURVE",
"400 376 LINE",
"488 389 OFFCURVE",
"541 450 OFFCURVE",
"541 543 CURVE SMOOTH",
"541 650 OFFCURVE",
"466 714 OFFCURVE",
"338 714 CURVE SMOOTH",
"92 714 LINE",
"42 0 LINE"
);
},
{
closed = 1;
nodes = (
"116 351 LINE",
"325 351 LINE SMOOTH",
"428 351 OFFCURVE",
"488 300 OFFCURVE",
"488 212 CURVE SMOOTH",
"488 110 OFFCURVE",
"420 48 OFFCURVE",
"312 48 CURVE SMOOTH",
"95 48 LINE"
);
},
{
closed = 1;
nodes = (
"138 666 LINE",
"336 666 LINE SMOOTH",
"435 666 OFFCURVE",
"491 620 OFFCURVE",
"491 540 CURVE SMOOTH",
"491 452 OFFCURVE",
"429 398 OFFCURVE",
"327 398 CURVE SMOOTH",
"119 398 LINE"
);
}
);
width = 582;
},
{
layerId = m002;
paths = (
{
closed = 1;
nodes = (
"394 0 LINE SMOOTH",
"571 0 OFFCURVE",
"679 83 OFFCURVE",
"679 223 CURVE SMOOTH",
"679 300 OFFCURVE",
"636 355 OFFCURVE",
"567 373 CURVE",
"572 375 LINE SMOOTH",
"639 395 OFFCURVE",
"680 455 OFFCURVE",
"680 533 CURVE SMOOTH",
"680 646 OFFCURVE",
"584 714 OFFCURVE",
"421 714 CURVE SMOOTH",
"92 714 LINE",
"42 0 LINE"
);
},
{
closed = 1;
nodes = (
"272 294 LINE",
"392 294 LINE SMOOTH",
"436 294 OFFCURVE",
"460 273 OFFCURVE",
"460 239 CURVE SMOOTH",
"460 189 OFFCURVE",
"431 160 OFFCURVE",
"389 160 CURVE SMOOTH",
"263 160 LINE"
);
},
{
closed = 1;
nodes = (
"290 554 LINE",
"405 554 LINE SMOOTH",
"441 554 OFFCURVE",
"459 539 OFFCURVE",
"459 513 CURVE SMOOTH",
"459 477 OFFCURVE",
"434 454 OFFCURVE",
"399 454 CURVE SMOOTH",
"283 454 LINE"
);
}
);
width = 712;
}
);
leftKerningGroup = H;
leftMetricsKey = N;
rightKerningGroup = B;
unicode = 0042;
},
{
glyphname = C;
lastChange = "2025-09-15 16:36:37 +0000";
layers = (
{
anchors = (
{
name = Bottom;
position = "{343, 0}";
},
{
name = Top;
position = "{383, 726}";
}
);
layerId = "FD4D3FDD-DE85-408F-A52A-FF600B1C6101";
paths = (
{
closed = 1;
nodes = (
"560 217 LINE",
"540 108 OFFCURVE",
"452 35 OFFCURVE",
"340 35 CURVE SMOOTH",
"200 35 OFFCURVE",
"107 148 OFFCURVE",
"107 318 CURVE SMOOTH",
"107 534 OFFCURVE",
"217 678 OFFCURVE",
"381 678 CURVE SMOOTH",
"499 678 OFFCURVE",
"581 606 OFFCURVE",
"587 497 CURVE",
"637 495 LINE",
"633 634 OFFCURVE",
"531 726 OFFCURVE",
"382 726 CURVE SMOOTH",
"186 726 OFFCURVE",
"56 562 OFFCURVE",
"56 317 CURVE SMOOTH",
"56 119 OFFCURVE",
"169 -13 OFFCURVE",
"339 -13 CURVE SMOOTH",
"480 -13 OFFCURVE",
"588 78 OFFCURVE",
"610 215 CURVE"
);
}
);
width = 671;
},
{
anchors = (
{
name = Bottom;
position = "{407, 0}";
},
{
name = Top;
position = "{437, 726}";
}
);
layerId = m002;
paths = (
{
closed = 1;
nodes = (
"544 288 LINE",
"529 204 OFFCURVE",
"476 155 OFFCURVE",
"403 155 CURVE SMOOTH",
"316 155 OFFCURVE",
"265 219 OFFCURVE",
"265 327 CURVE SMOOTH",
"265 472 OFFCURVE",
"330 558 OFFCURVE",
"440 558 CURVE SMOOTH",
"511 558 OFFCURVE",
"556 510 OFFCURVE",
"562 428 CURVE",
"781 424 LINE",
"774 614 OFFCURVE",
"645 726 OFFCURVE",
"433 726 CURVE SMOOTH",
"190 726 OFFCURVE",
"46 576 OFFCURVE",
"46 322 CURVE SMOOTH",
"46 111 OFFCURVE",
"177 -13 OFFCURVE",
"400 -13 CURVE SMOOTH",
"598 -13 OFFCURVE",
"733 97 OFFCURVE",
"764 284 CURVE"
);
}
);
width = 810;
}
);
leftKerningGroup = O;
leftMetricsKey = O;
rightKerningGroup = O;
rightMetricsKey = O;
unicode = 0043;
},
{
color = 10;
glyphname = Cstroke;
lastChange = "2025-09-15 16:39:45 +0000";
layers = (
{
layerId = "FD4D3FDD-DE85-408F-A52A-FF600B1C6101";
paths = (
{
closed = 1;
nodes = (
"560 217 LINE",
"540 108 OFFCURVE",
"452 35 OFFCURVE",
"340 35 CURVE SMOOTH",
"297 35 OFFCURVE",
"258 46 OFFCURVE",
"225 66 CURVE",
"491 653 LINE",
"547 622 OFFCURVE",
"583 567 OFFCURVE",
"587 497 CURVE",
"637 495 LINE",
"634 588 OFFCURVE",
"587 661 OFFCURVE",
"511 698 CURVE",
"545 772 LINE",
"494 772 LINE",
"468 715 LINE",
"442 722 OFFCURVE",
"413 726 OFFCURVE",
"382 726 CURVE SMOOTH",
"186 726 OFFCURVE",
"56 562 OFFCURVE",
"56 317 CURVE SMOOTH",
"56 198 OFFCURVE",
"97 103 OFFCURVE",
"166 46 CURVE",
"121 -53 LINE",
"171 -53 LINE",
"204 20 LINE",
"243 -1 OFFCURVE",
"289 -13 OFFCURVE",
"339 -13 CURVE SMOOTH",
"480 -13 OFFCURVE",
"588 78 OFFCURVE",
"610 215 CURVE"
);
},
{
closed = 1;
nodes = (
"107 534 OFFCURVE",
"217 678 OFFCURVE",
"381 678 CURVE SMOOTH",
"405 678 OFFCURVE",
"427 675 OFFCURVE",
"448 670 CURVE",
"188 95 LINE",
"137 144 OFFCURVE",
"107 222 OFFCURVE",
"107 318 CURVE SMOOTH"
);
}
);
width = 671;
},
{
layerId = m002;
paths = (
{
closed = 1;
nodes = (
"544 288 LINE",
"529 204 OFFCURVE",
"476 155 OFFCURVE",
"403 155 CURVE SMOOTH",
"382 155 OFFCURVE",
"363 159 OFFCURVE",
"346 166 CURVE",
"513 535 LINE",
"541 513 OFFCURVE",
"558 477 OFFCURVE",
"562 428 CURVE",
"781 424 LINE",
"776 562 OFFCURVE",
"707 659 OFFCURVE",
"588 701 CURVE",
"620 772 LINE",
"569 772 LINE",
"543 714 LINE",
"509 722 OFFCURVE",
"473 726 OFFCURVE",
"433 726 CURVE SMOOTH",
"190 726 OFFCURVE",
"46 576 OFFCURVE",
"46 322 CURVE SMOOTH",
"46 173 OFFCURVE",
"111 68 OFFCURVE",
"227 19 CURVE",
"195 -53 LINE",
"247 -53 LINE",
"272 3 LINE",
"311 -8 OFFCURVE",
"353 -13 OFFCURVE",
"400 -13 CURVE SMOOTH",
"598 -13 OFFCURVE",
"733 97 OFFCURVE",
"764 284 CURVE"
);
},
{
closed = 1;
nodes = (
"265 472 OFFCURVE",
"330 558 OFFCURVE",
"440 558 CURVE SMOOTH",
"451 558 OFFCURVE",
"461 557 OFFCURVE",
"471 555 CURVE",
"307 194 LINE",
"280 224 OFFCURVE",
"265 269 OFFCURVE",
"265 327 CURVE SMOOTH"
);
}
);
width = 810;
}
);
leftKerningGroup = O;
leftMetricsKey = C;
rightKerningGroup = O;
rightMetricsKey = C;
unicode = 023B;
},
{
glyphname = D;
lastChange = "2025-09-15 16:36:41 +0000";
layers = (
{
anchors = (
{
name = Bottom;
position = "{270, 0}";
},
{
name = Top;
position = "{316, 714}";
}
);
layerId = "FD4D3FDD-DE85-408F-A52A-FF600B1C6101";
paths = (
{
closed = 1;
nodes = (
"266 0 LINE SMOOTH",
"474 0 OFFCURVE",
"612 157 OFFCURVE",
"612 392 CURVE SMOOTH",
"612 585 OFFCURVE",
"493 714 OFFCURVE",
"315 714 CURVE SMOOTH",
"92 714 LINE",
"42 0 LINE"
);
},
{
closed = 1;
nodes = (
"138 666 LINE",
"313 666 LINE SMOOTH",
"462 666 OFFCURVE",
"562 555 OFFCURVE",
"562 389 CURVE SMOOTH",
"562 184 OFFCURVE",
"444 48 OFFCURVE",
"268 48 CURVE SMOOTH",
"95 48 LINE"
);
}
);
width = 654;
},
{
anchors = (
{
name = Bottom;
position = "{370, 0}";
},
{
name = Top;
position = "{416, 714}";
}
);
layerId = m002;
paths = (
{
closed = 1;
nodes = (
"358 0 LINE SMOOTH",
"611 0 OFFCURVE",
"761 144 OFFCURVE",
"761 388 CURVE SMOOTH",
"761 593 OFFCURVE",
"628 714 OFFCURVE",
"403 714 CURVE SMOOTH",
"92 714 LINE",
"42 0 LINE"
);
},
{
closed = 1;
nodes = (
"290 546 LINE",
"396 546 LINE SMOOTH",
"488 546 OFFCURVE",
"542 486 OFFCURVE",
"542 384 CURVE SMOOTH",
"542 248 OFFCURVE",
"476 168 OFFCURVE",
"365 168 CURVE SMOOTH",
"263 168 LINE"
);
}
);
width = 793;
}
);
leftKerningGroup = H;
leftMetricsKey = N;
rightKerningGroup = O;
rightMetricsKey = O;
unicode = 0044;
},
{
color = 10;
glyphname = Eth;
lastChange = "2025-09-15 16:39:53 +0000";
layers = (
{
layerId = "FD4D3FDD-DE85-408F-A52A-FF600B1C6101";
paths = (
{
closed = 1;
nodes = (
"318 0 LINE SMOOTH",
"526 0 OFFCURVE",
"664 157 OFFCURVE",
"664 392 CURVE SMOOTH",
"664 585 OFFCURVE",
"545 714 OFFCURVE",
"367 714 CURVE SMOOTH",
"144 714 LINE",
"121 381 LINE",
"70 386 LINE",
"66 341 LINE",
"118 341 LINE",
"94 0 LINE"
);
},
{
closed = 1;
nodes = (
"168 341 LINE",
"267 341 LINE",
"270 383 LINE",
"171 383 LINE",
"191 666 LINE",
"365 666 LINE SMOOTH",
"514 666 OFFCURVE",
"614 555 OFFCURVE",
"614 389 CURVE SMOOTH",
"614 184 OFFCURVE",
"496 48 OFFCURVE",
"320 48 CURVE SMOOTH",
"147 48 LINE"
);
}
);
width = 706;
},
{
layerId = m002;
paths = (
{
closed = 1;
nodes = (
"405 0 LINE SMOOTH",
"658 0 OFFCURVE",
"808 144 OFFCURVE",
"808 388 CURVE SMOOTH",
"808 593 OFFCURVE",
"675 714 OFFCURVE",
"450 714 CURVE SMOOTH",
"139 714 LINE",
"118 417 LINE",
"71 422 LINE",
"63 299 LINE",
"110 299 LINE",
"89 0 LINE"
);
},
{
closed = 1;
nodes = (
"320 299 LINE",
"427 299 LINE",
"435 419 LINE",
"328 419 LINE",
"337 546 LINE",
"443 546 LINE SMOOTH",
"535 546 OFFCURVE",
"589 486 OFFCURVE",
"589 384 CURVE SMOOTH",
"589 248 OFFCURVE",
"523 168 OFFCURVE",
"412 168 CURVE SMOOTH",
"311 168 LINE"
);
}
);
width = 840;
}
);
leftKerningGroup = H;
leftMetricsKey = D;
rightKerningGroup = O;
rightMetricsKey = D;
unicode = 00D0;
},
{
glyphname = E;
lastChange = "2025-09-15 16:36:50 +0000";
layers = (
{
anchors = (
{
name = Bottom;
position = "{397, 0}";
},
{
name = Dot;
position = "{261, 0}";
},
{
name = Greek;
position = "{-67, 558}";
},
{
name = Top;
position = "{285, 714}";
}
);
layerId = "FD4D3FDD-DE85-408F-A52A-FF600B1C6101";
paths = (
{
closed = 1;
nodes = (
"119 392 LINE",
"138 666 LINE",
"479 666 LINE",
"483 714 LINE",
"92 714 LINE",
"42 0 LINE",
"433 0 LINE",
"436 48 LINE",
"95 48 LINE",
"116 344 LINE",
"436 344 LINE",
"439 392 LINE"
);
}
);
width = 501;
},
{
anchors = (
{
name = Bottom;
position = "{486, 0}";
},
{
name = Dot;
position = "{316, 0}";
},
{
name = Greek;
position = "{-102, 558}";
},
{
name = Top;
position = "{345, 714}";
}
);
layerId = m002;
paths = (
{
closed = 1;
nodes = (
"283 452 LINE",
"290 546 LINE",
"596 546 LINE",
"608 714 LINE",
"92 714 LINE",
"42 0 LINE",
"558 0 LINE",
"569 168 LINE",
"263 168 LINE",
"271 284 LINE",
"556 284 LINE",
"568 452 LINE"
);
}
);
width = 616;
}
);
leftKerningGroup = H;
leftMetricsKey = N;
rightKerningGroup = E;
unicode = 0045;
},
{
color = 10;
glyphname = Eopen;
lastChange = "2025-09-15 16:40:43 +0000";
layers = (
{
layerId = "FD4D3FDD-DE85-408F-A52A-FF600B1C6101";
paths = (
{
closed = 1;
nodes = (
"106 280 OFFCURVE",
"191 348 OFFCURVE",
"319 348 CURVE SMOOTH",
"385 348 LINE",
"388 396 LINE",
"321 396 LINE SMOOTH",
"220 396 OFFCURVE",
"153 449 OFFCURVE",
"153 528 CURVE SMOOTH",
"153 619 OFFCURVE",
"234 680 OFFCURVE",
"356 680 CURVE SMOOTH",
"398 680 OFFCURVE",
"444 672 OFFCURVE",
"470 659 CURVE",
"472 704 LINE",
"445 717 OFFCURVE",
"396 726 OFFCURVE",
"350 726 CURVE SMOOTH",
"210 726 OFFCURVE",
"111 652 OFFCURVE",
"103 541 CURVE SMOOTH",
"98 468 OFFCURVE",
"146 401 OFFCURVE",
"224 373 CURVE",
"224 371 LINE",
"123 353 OFFCURVE",
"55 275 OFFCURVE",
"55 176 CURVE SMOOTH",
"55 63 OFFCURVE",
"152 -13 OFFCURVE",
"298 -13 CURVE SMOOTH",
"350 -13 OFFCURVE",
"400 -4 OFFCURVE",
"422 9 CURVE",
"424 54 LINE",
"400 41 OFFCURVE",
"353 33 OFFCURVE",
"306 33 CURVE SMOOTH",
"186 33 OFFCURVE",
"106 91 OFFCURVE",
"106 178 CURVE SMOOTH"
);
}
);
width = 492;
},
{
layerId = m002;
paths = (
{
closed = 1;
nodes = (
"258 277 OFFCURVE",
"301 307 OFFCURVE",
"374 307 CURVE SMOOTH",
"452 307 LINE",
"461 437 LINE",
"376 437 LINE SMOOTH",
"328 437 OFFCURVE",
"299 453 OFFCURVE",
"299 481 CURVE SMOOTH",
"299 531 OFFCURVE",
"351 561 OFFCURVE",
"439 561 CURVE SMOOTH",
"480 561 OFFCURVE",
"519 550 OFFCURVE",
"543 532 CURVE",
"550 693 LINE",
"510 714 OFFCURVE",
"453 726 OFFCURVE",
"399 726 CURVE SMOOTH",
"221 726 OFFCURVE",
"110 650 OFFCURVE",
"101 522 CURVE SMOOTH",
"96 456 OFFCURVE",
"125 401 OFFCURVE",
"179 374 CURVE",
"179 372 LINE",
"102 345 OFFCURVE",
"56 282 OFFCURVE",
"56 201 CURVE SMOOTH",
"56 66 OFFCURVE",
"176 -13 OFFCURVE",
"379 -13 CURVE SMOOTH",
"426 -13 OFFCURVE",
"476 -5 OFFCURVE",
"516 8 CURVE",
"524 178 LINE",
"490 164 OFFCURVE",
"443 155 OFFCURVE",
"397 155 CURVE SMOOTH",
"310 155 OFFCURVE",
"258 181 OFFCURVE",
"258 225 CURVE SMOOTH"
);
}
);
width = 574;
}
);
leftKerningGroup = O;
leftMetricsKey = E;
rightKerningGroup = E;
rightMetricsKey = E;
unicode = 0190;
},
{
color = 10;
glyphname = Ezh;
lastChange = "2025-09-15 17:34:38 +0000";
layers = (
{
anchors = (
{
name = Top;
position = "{320, 714}";
}
);
layerId = "FD4D3FDD-DE85-408F-A52A-FF600B1C6101";
paths = (
{
closed = 1;
nodes = (
"110 666 LINE",
"459 666 LINE",
"279 469 LINE",
"276 421 LINE",
"312 421 LINE SMOOTH",
"408 421 OFFCURVE",
"465 358 OFFCURVE",
"465 252 CURVE SMOOTH",
"465 116 OFFCURVE",
"394 35 OFFCURVE",
"275 35 CURVE SMOOTH",
"162 35 OFFCURVE",
"99 98 OFFCURVE",
"106 205 CURVE",
"56 207 LINE",
"46 69 OFFCURVE",
"127 -13 OFFCURVE",
"274 -13 CURVE SMOOTH",
"425 -13 OFFCURVE",
"515 87 OFFCURVE",
"515 255 CURVE SMOOTH",
"515 381 OFFCURVE",
"448 460 OFFCURVE",
"335 468 CURVE",
"517 666 LINE",
"521 714 LINE",
"114 714 LINE"
);
}
);
width = 566;
},
{
anchors = (
{
name = Top;
position = "{380, 714}";
}
);
layerId = m002;
paths = (
{
closed = 1;
nodes = (
"103 564 LINE",
"392 564 LINE",
"309 479 LINE",
"300 329 LINE",
"349 329 LINE SMOOTH",
"385 329 OFFCURVE",
"407 301 OFFCURVE",
"407 253 CURVE SMOOTH",
"407 188 OFFCURVE",
"378 149 OFFCURVE",
"330 149 CURVE SMOOTH",
"286 149 OFFCURVE",
"262 177 OFFCURVE",
"265 224 CURVE",
"58 228 LINE",
"47 77 OFFCURVE",
"147 -13 OFFCURVE",
"327 -13 CURVE SMOOTH",
"508 -13 OFFCURVE",
"615 84 OFFCURVE",
"615 249 CURVE SMOOTH",
"615 344 OFFCURVE",
"569 420 OFFCURVE",
"490 453 CURVE",
"611 564 LINE",
"621 714 LINE",
"114 714 LINE"
);
}
);
width = 657;
}
);
leftKerningGroup = three;
leftMetricsKey = E;
rightKerningGroup = O;
rightMetricsKey = E;
unicode = 01B7;
},
{
glyphname = F;
lastChange = "2025-09-15 16:36:54 +0000";
layers = (
{
anchors = (
{
name = Bottom;
position = "{265, 0}";
},
{
name = Top;
position = "{297, 726}";
}
);
layerId = "FD4D3FDD-DE85-408F-A52A-FF600B1C6101";
paths = (
{
closed = 1;
nodes = (
"138 666 LINE",
"482 666 LINE",
"486 714 LINE",
"92 714 LINE",
"42 0 LINE",
"92 0 LINE",
"116 344 LINE",
"437 344 LINE",
"440 392 LINE",
"119 392 LINE"
);
}
);
width = 504;
},
{
anchors = (
{
name = Bottom;
position = "{385, 0}";
},
{
name = Top;
position = "{377, 714}";
}
);
layerId = m002;
paths = (
{
closed = 1;
nodes = (
"290 546 LINE",
"595 546 LINE",
"607 714 LINE",
"92 714 LINE",
"42 0 LINE",
"252 0 LINE",
"271 275 LINE",
"553 275 LINE",
"565 443 LINE",
"283 443 LINE"
);
}
);
width = 615;
}
);
leftKerningGroup = H;
leftMetricsKey = N;
rightKerningGroup = F;
unicode = 0046;
},
{
glyphname = G;
lastChange = "2025-09-15 16:36:57 +0000";
layers = (
{
anchors = (
{
name = Bottom;
position = "{352, 0}";
},
{
name = Top;
position = "{409, 726}";
}
);
layerId = "FD4D3FDD-DE85-408F-A52A-FF600B1C6101";
paths = (
{
closed = 1;
nodes = (
"377 327 LINE",
"373 279 LINE",
"578 279 LINE",
"567 135 LINE",
"527 74 OFFCURVE",
"444 35 OFFCURVE",
"353 35 CURVE SMOOTH",
"205 35 OFFCURVE",
"106 149 OFFCURVE",
"106 320 CURVE SMOOTH",
"106 535 OFFCURVE",
"226 678 OFFCURVE",
"407 678 CURVE SMOOTH",
"526 678 OFFCURVE",
"610 606 OFFCURVE",
"616 497 CURVE",
"666 495 LINE",
"662 634 OFFCURVE",
"559 726 OFFCURVE",
"408 726 CURVE SMOOTH",
"197 726 OFFCURVE",
"56 563 OFFCURVE",
"56 319 CURVE SMOOTH",
"56 120 OFFCURVE",
"174 -13 OFFCURVE",
"352 -13 CURVE SMOOTH",
"427 -13 OFFCURVE",
"510 13 OFFCURVE",
"560 52 CURVE",
"561 52 LINE",
"542 0 LINE",
"608 0 LINE",
"631 327 LINE"
);
}
);
width = 710;
},
{
anchors = (
{
name = Bottom;
position = "{408, 0}";
},
{
name = Top;
position = "{434, 726}";
}
);
layerId = m002;
paths = (
{
closed = 1;
nodes = (
"403 389 LINE",
"395 279 LINE",
"572 279 LINE",
"567 202 LINE",
"541 167 OFFCURVE",
"486 145 OFFCURVE",
"419 145 CURVE SMOOTH",
"323 145 OFFCURVE",
"266 212 OFFCURVE",
"266 326 CURVE SMOOTH",
"266 472 OFFCURVE",
"333 558 OFFCURVE",
"447 558 CURVE SMOOTH",
"516 558 OFFCURVE",
"559 525 OFFCURVE",
"562 468 CURVE",
"781 464 LINE",
"775 629 OFFCURVE",
"646 726 OFFCURVE",
"434 726 CURVE SMOOTH",
"190 726 OFFCURVE",
"46 575 OFFCURVE",
"46 320 CURVE SMOOTH",
"46 111 OFFCURVE",
"168 -13 OFFCURVE",
"375 -13 CURVE SMOOTH",
"449 -13 OFFCURVE",
"515 10 OFFCURVE",
"555 50 CURVE",
"558 50 LINE",
"526 0 LINE",
"735 0 LINE",
"762 389 LINE"
);
}
);
width = 827;
}
);
leftKerningGroup = O;
leftMetricsKey = O;
rightKerningGroup = G;
rightMetricsKey = N;
unicode = 0047;
},
{
color = 10;
glyphname = Glottalstop;
lastChange = "2025-09-15 16:40:44 +0000";
layers = (
{
layerId = "FD4D3FDD-DE85-408F-A52A-FF600B1C6101";
paths = (
{
closed = 1;
nodes = (
"247 314 OFFCURVE",
"498 284 OFFCURVE",
"514 520 CURVE SMOOTH",
"523 649 OFFCURVE",
"447 726 OFFCURVE",
"310 726 CURVE SMOOTH",
"167 726 OFFCURVE",
"77 649 OFFCURVE",
"68 519 CURVE",
"118 521 LINE",
"125 620 OFFCURVE",
"195 678 OFFCURVE",
"307 678 CURVE SMOOTH",
"413 678 OFFCURVE",
"471 620 OFFCURVE",
"464 522 CURVE SMOOTH",
"450 316 OFFCURVE",
"198 341 OFFCURVE",
"175 1 CURVE",
"225 -1 LINE"
);
}
);
width = 536;
},
{
layerId = m002;
paths = (
{
closed = 1;
nodes = (
"362 256 OFFCURVE",
"634 214 OFFCURVE",
"652 473 CURVE SMOOTH",
"663 632 OFFCURVE",
"558 726 OFFCURVE",
"370 726 CURVE SMOOTH",
"182 726 OFFCURVE",
"65 628 OFFCURVE",
"54 463 CURVE",
"274 467 LINE",
"278 524 OFFCURVE",
"310 558 OFFCURVE",
"359 558 CURVE SMOOTH",
"408 558 OFFCURVE",
"435 528 OFFCURVE",
"431 477 CURVE SMOOTH",
"419 305 OFFCURVE",
"156 323 OFFCURVE",
"134 2 CURVE",
"343 -2 LINE"
);
}
);
width = 677;
}
);
leftKerningGroup = O;
leftMetricsKey = O;
rightKerningGroup = P;
rightMetricsKey = P;
unicode = 0241;
},
{
color = 10;
glyphname = Gstroke;
lastChange = "2025-09-15 16:40:47 +0000";
layers = (
{
layerId = "FD4D3FDD-DE85-408F-A52A-FF600B1C6101";
paths = (
{
closed = 1;
nodes = (
"377 327 LINE",
"373 279 LINE",
"578 279 LINE",
"573 222 LINE",
"474 227 LINE",
"470 182 LINE",
"570 182 LINE",
"566 127 LINE",
"526 71 OFFCURVE",
"443 35 OFFCURVE",
"353 35 CURVE SMOOTH",
"205 35 OFFCURVE",
"106 149 OFFCURVE",
"106 320 CURVE SMOOTH",
"106 535 OFFCURVE",
"226 678 OFFCURVE",
"407 678 CURVE SMOOTH",
"526 678 OFFCURVE",
"610 606 OFFCURVE",
"616 497 CURVE",
"666 495 LINE",
"662 634 OFFCURVE",
"559 726 OFFCURVE",
"408 726 CURVE SMOOTH",
"197 726 OFFCURVE",
"56 563 OFFCURVE",
"56 319 CURVE SMOOTH",
"56 120 OFFCURVE",
"174 -13 OFFCURVE",
"352 -13 CURVE SMOOTH",
"427 -13 OFFCURVE",
"510 13 OFFCURVE",
"560 52 CURVE",
"561 52 LINE",
"542 0 LINE",
"608 0 LINE",
"621 182 LINE",
"670 182 LINE",
"673 224 LINE",
"624 224 LINE",
"631 327 LINE"
);
}
);
width = 736;
},
{
layerId = m002;
paths = (
{
closed = 1;
nodes = (
"403 389 LINE",
"392 239 LINE",
"570 239 LINE",
"570 229 LINE",
"468 234 LINE",
"463 161 LINE",
"513 161 LINE",
"513 159 LINE",
"477 146 OFFCURVE",
"453 145 OFFCURVE",
"422 145 CURVE SMOOTH",
"326 145 OFFCURVE",
"266 212 OFFCURVE",
"266 326 CURVE SMOOTH",
"266 472 OFFCURVE",
"333 558 OFFCURVE",
"447 558 CURVE SMOOTH",
"516 558 OFFCURVE",
"559 525 OFFCURVE",
"562 468 CURVE",
"781 464 LINE",
"775 629 OFFCURVE",
"646 726 OFFCURVE",
"434 726 CURVE SMOOTH",
"190 726 OFFCURVE",
"46 575 OFFCURVE",
"46 320 CURVE SMOOTH",
"46 111 OFFCURVE",
"168 -13 OFFCURVE",
"375 -13 CURVE SMOOTH",
"449 -13 OFFCURVE",
"515 10 OFFCURVE",
"555 50 CURVE",
"560 52 LINE",
"526 0 LINE",
"735 0 LINE",
"746 161 LINE",
"794 161 LINE",
"799 231 LINE",
"751 231 LINE",
"762 389 LINE"
);
}
);
width = 861;
}
);
leftKerningGroup = O;
leftMetricsKey = G;
rightKerningGroup = G;
rightMetricsKey = G;
unicode = 01E4;
},
{
glyphname = H;
lastChange = "2025-09-12 18:39:58 +0000";
layers = (
{
anchors = (
{
name = Bottom;
position = "{304, 0}";
},
{
name = Greek;
position = "{-67, 558}";
},
{
name = Top;
position = "{354, 714}";
}
);
layerId = "FD4D3FDD-DE85-408F-A52A-FF600B1C6101";
paths = (
{
closed = 1;
nodes = (
"544 397 LINE",
"120 397 LINE",
"142 714 LINE",
"92 714 LINE",
"42 0 LINE",
"92 0 LINE",
"116 349 LINE",
"540 349 LINE",
"516 0 LINE",
"566 0 LINE",
"616 714 LINE",
"566 714 LINE"
);
}
);
width = 644;
},
{
anchors = (
{
name = Bottom;
position = "{372, 0}";
},
{
name = Greek;
position = "{-102, 558}";
},
{
name = Top;
position = "{422, 714}";
}
);
layerId = m002;
paths = (
{
closed = 1;
nodes = (
"517 448 LINE",
"283 448 LINE",
"302 714 LINE",
"92 714 LINE",
"42 0 LINE",
"252 0 LINE",
"272 280 LINE",
"506 280 LINE",
"486 0 LINE",
"696 0 LINE",
"746 714 LINE",
"536 714 LINE"
);
}
);
width = 774;
}
);
leftKerningGroup = H;
leftMetricsKey = N;
rightKerningGroup = H;
rightMetricsKey = N;
unicode = 0048;
},
{
color = 10;
glyphname = Hbar;
lastChange = "2025-09-15 16:40:48 +0000";
layers = (
{
layerId = "FD4D3FDD-DE85-408F-A52A-FF600B1C6101";
paths = (
{
closed = 1;
nodes = (
"658 602 LINE",
"234 600 LINE",
"242 714 LINE",
"192 714 LINE",
"184 601 LINE",
"84 605 LINE",
"81 560 LINE",
"181 560 LINE",
"142 0 LINE",
"192 0 LINE",
"216 349 LINE",
"640 349 LINE",
"616 0 LINE",
"666 0 LINE",
"705 560 LINE",
"805 560 LINE",
"808 602 LINE",
"708 602 LINE",
"716 714 LINE",
"666 714 LINE"
);
},
{
closed = 1;
nodes = (
"231 560 LINE",
"655 560 LINE",
"644 397 LINE",
"220 397 LINE"
);
}
);
width = 844;
},
{
layerId = m002;
paths = (
{
closed = 1;
nodes = (
"652 638 LINE",
"348 636 LINE",
"353 714 LINE",
"183 714 LINE",
"178 638 LINE",
"87 641 LINE",
"79 518 LINE",
"169 518 LINE",
"133 0 LINE",
"303 0 LINE",
"324 298 LINE",
"628 298 LINE",
"607 0 LINE",
"777 0 LINE",
"813 518 LINE",
"902 518 LINE",
"910 638 LINE",
"822 638 LINE",
"827 714 LINE",
"657 714 LINE"
);
},
{
closed = 1;
nodes = (
"339 518 LINE",
"643 518 LINE",
"638 448 LINE",
"334 448 LINE"
);
}
);
width = 944;
}
);
leftKerningGroup = H;
leftMetricsKey = N;
rightKerningGroup = H;
rightMetricsKey = N;
unicode = 0126;
},
{
glyphname = I;
lastChange = "2025-09-15 16:37:09 +0000";
layers = (
{
anchors = (
{
name = Bottom;
position = "{67, 0}";
},
{
name = Greek;
position = "{-67, 558}";
},
{
name = Top;
position = "{117, 714}";
}
);
layerId = "FD4D3FDD-DE85-408F-A52A-FF600B1C6101";
paths = (
{
closed = 1;
nodes = (
"42 0 LINE",
"92 0 LINE",
"142 714 LINE",
"92 714 LINE"
);
}
);
width = 170;
},
{
anchors = (
{
name = Bottom;
position = "{147, 0}";
},
{
name = Greek;
position = "{-102, 558}";
},
{
name = Top;
position = "{197, 714}";
}
);
layerId = m002;
paths = (
{
closed = 1;
nodes = (
"42 0 LINE",
"252 0 LINE",
"302 714 LINE",
"92 714 LINE"
);
}
);
width = 330;
}
);
leftKerningGroup = H;
leftMetricsKey = N;
rightKerningGroup = H;
rightMetricsKey = N;
unicode = 0049;
},
{
color = 10;
glyphname = IJ;
lastChange = "2025-09-15 16:37:12 +0000";
layers = (
{
layerId = "FD4D3FDD-DE85-408F-A52A-FF600B1C6101";
paths = (
{
closed = 1;
nodes = (
"53 160 LINE",
"103 160 LINE",
"142 714 LINE",
"92 714 LINE"
);
},
{
closed = 1;
nodes = (
"80 -8 OFFCURVE",
"104 -13 OFFCURVE",
"128 -13 CURVE SMOOTH",
"244 -13 OFFCURVE",
"317 47 OFFCURVE",
"324 151 CURVE SMOOTH",
"364 714 LINE",
"314 714 LINE",
"274 153 LINE SMOOTH",
"269 79 OFFCURVE",
"215 34 OFFCURVE",
"130 34 CURVE SMOOTH",
"103 34 OFFCURVE",
"79 39 OFFCURVE",
"64 48 CURVE",
"62 0 LINE"
);
}
);
width = 392;
},
{
layerId = m002;
paths = (
{
closed = 1;
nodes = (
"59 240 LINE",
"229 240 LINE",
"263 714 LINE",
"93 714 LINE"
);
},
{
closed = 1;
nodes = (
"192 -7 OFFCURVE",
"215 -13 OFFCURVE",
"237 -13 CURVE SMOOTH",
"393 -13 OFFCURVE",
"489 65 OFFCURVE",
"499 200 CURVE SMOOTH",
"535 714 LINE",
"365 714 LINE",
"331 234 LINE SMOOTH",
"328 184 OFFCURVE",
"293 153 OFFCURVE",
"241 153 CURVE SMOOTH",
"220 153 OFFCURVE",
"198 158 OFFCURVE",
"182 167 CURVE",
"175 1 LINE"
);
}
);
width = 563;
}
);
leftKerningGroup = I;
leftMetricsKey = N;
rightKerningGroup = U;
rightMetricsKey = N;
unicode = 0132;
},
{
color = 10;
glyphname = Istroke;
lastChange = "2025-09-15 16:37:14 +0000";
layers = (
{
layerId = "FD4D3FDD-DE85-408F-A52A-FF600B1C6101";
paths = (
{
closed = 1;
nodes = (
"140 381 LINE",
"70 386 LINE",
"66 341 LINE",
"137 341 LINE",
"113 0 LINE",
"163 0 LINE",
"187 341 LINE",
"256 341 LINE",
"259 383 LINE",
"190 383 LINE",
"213 714 LINE",
"163 714 LINE"
);
}
);
width = 310;
},
{
layerId = m002;
paths = (
{
closed = 1;
nodes = (
"147 417 LINE",
"71 422 LINE",
"63 299 LINE",
"139 299 LINE",
"118 0 LINE",
"328 0 LINE",
"349 299 LINE",
"425 299 LINE",
"433 419 LINE",
"357 419 LINE",
"378 714 LINE",
"168 714 LINE"
);
}
);
width = 482;
}
);
leftKerningGroup = Istroke;
leftMetricsKey = N;
rightKerningGroup = Istroke;
rightMetricsKey = N;
unicode = 0197;
},
{
glyphname = J;
lastChange = "2025-09-15 16:37:25 +0000";
layers = (
{
anchors = (
{
name = Bottom;
position = "{52, 0}";
},
{
name = Top;
position = "{280, 714}";
}
);
layerId = "FD4D3FDD-DE85-408F-A52A-FF600B1C6101";
paths = (
{
closed = 1;
nodes = (
"305 714 LINE",
"255 714 LINE",
"215 153 LINE SMOOTH",
"210 79 OFFCURVE",
"160 34 OFFCURVE",
"81 34 CURVE SMOOTH",
"58 34 OFFCURVE",
"38 39 OFFCURVE",
"25 48 CURVE",
"23 0 LINE",
"41 -8 OFFCURVE",
"61 -13 OFFCURVE",
"79 -13 CURVE SMOOTH",
"189 -13 OFFCURVE",
"258 47 OFFCURVE",
"265 151 CURVE SMOOTH"
);
}
);
width = 333;
},
{
anchors = (
{
name = Bottom;
position = "{73, 0}";
},
{
name = Top;
position = "{301, 714}";
}
);
layerId = m002;
paths = (
{
closed = 1;
nodes = (
"406 714 LINE",
"196 714 LINE",
"162 234 LINE SMOOTH",
"159 184 OFFCURVE",
"132 153 OFFCURVE",
"92 153 CURVE SMOOTH",
"72 153 OFFCURVE",
"50 158 OFFCURVE",
"33 167 CURVE",
"26 1 LINE",
"43 -7 OFFCURVE",
"66 -13 OFFCURVE",
"88 -13 CURVE SMOOTH",
"256 -13 OFFCURVE",
"360 65 OFFCURVE",
"370 200 CURVE SMOOTH"
);
}
);
width = 434;
}
);
leftKerningGroup = J;
rightKerningGroup = U;
rightMetricsKey = N;
unicode = 004A;
},
{
glyphname = K;
lastChange = "2025-09-15 16:40:50 +0000";
layers = (
{
anchors = (
{
name = Bottom;
position = "{281, 0}";
},
{
name = Top;
position = "{285, 714}";
}
);
layerId = "FD4D3FDD-DE85-408F-A52A-FF600B1C6101";
paths = (
{
closed = 1;
nodes = (
"42 0 LINE",
"92 0 LINE",
"110 263 LINE",
"256 399 LINE",
"478 0 LINE",
"534 0 LINE",
"294 435 LINE",
"593 714 LINE",
"522 714 LINE",
"117 336 LINE",
"116 336 LINE",
"142 714 LINE",
"92 714 LINE"
);
}
);
width = 601;
},
{
anchors = (
{
name = Bottom;
position = "{388, 0}";
},
{
name = Top;
position = "{402, 714}";
}
);
layerId = m002;
paths = (
{
closed = 1;
nodes = (
"42 0 LINE",
"252 0 LINE",
"265 179 LINE",
"361 271 LINE",
"514 0 LINE",
"758 0 LINE",
"523 427 LINE",
"823 714 LINE",
"545 714 LINE",
"287 472 LINE",
"285 472 LINE",
"302 714 LINE",
"92 714 LINE"
);
}
);
width = 831;
}
);
leftKerningGroup = H;
leftMetricsKey = N;
rightKerningGroup = K;
rightMetricsKey = A;
unicode = 004B;
},
{
glyphname = L;
lastChange = "2025-09-15 16:40:51 +0000";
layers = (
{
anchors = (
{
name = Bottom;
position = "{249, 0}";
},
{
name = Caron;
position = "{275, 548}";
},
{
name = Top;
position = "{118, 714}";
}
);
layerId = "FD4D3FDD-DE85-408F-A52A-FF600B1C6101";
paths = (
{
closed = 1;
nodes = (
"95 48 LINE",
"142 714 LINE",
"92 714 LINE",
"42 0 LINE",
"430 0 LINE",
"433 48 LINE"
);
}
);
width = 488;
},
{
anchors = (
{
name = Bottom;
position = "{319, 0}";
},
{
name = Caron;
position = "{405, 548}";
},
{
name = Top;
position = "{198, 714}";
}
);
layerId = m002;
paths = (
{
closed = 1;
nodes = (
"263 168 LINE",
"302 714 LINE",
"92 714 LINE",
"42 0 LINE",
"540 0 LINE",
"551 168 LINE"
);
}
);
width = 598;
}
);
leftKerningGroup = H;
leftMetricsKey = N;
rightKerningGroup = L;
rightMetricsKey = A;
unicode = 004C;
},
{
color = 10;
glyphname = Lbar;
lastChange = "2025-09-15 16:40:53 +0000";
layers = (
{
layerId = "FD4D3FDD-DE85-408F-A52A-FF600B1C6101";
paths = (
{
closed = 1;
nodes = (
"146 48 LINE",
"167 341 LINE",
"267 341 LINE",
"270 383 LINE",
"170 383 LINE",
"193 714 LINE",
"143 714 LINE",
"120 381 LINE",
"70 386 LINE",
"66 341 LINE",
"117 341 LINE",
"93 0 LINE",
"481 0 LINE",
"484 48 LINE"
);
}
);
width = 539;
},
{
layerId = m002;
paths = (
{
closed = 1;
nodes = (
"310 168 LINE",
"319 299 LINE",
"425 299 LINE",
"433 419 LINE",
"328 419 LINE",
"349 714 LINE",
"139 714 LINE",
"118 417 LINE",
"71 422 LINE",
"63 299 LINE",
"110 299 LINE",
"89 0 LINE",
"587 0 LINE",
"598 168 LINE"
);
}
);
width = 645;
}
);
leftKerningGroup = H;
leftMetricsKey = L;
rightKerningGroup = L;
rightMetricsKey = L;
unicode = 023D;
},
{
color = 10;
glyphname = Lmiddletilde;
lastChange = "2025-09-15 16:40:55 +0000";
layers = (
{
layerId = "FD4D3FDD-DE85-408F-A52A-FF600B1C6101";
paths = (
{
closed = 1;
nodes = (
"554 0 LINE",
"557 48 LINE",
"219 48 LINE",
"240 339 LINE",
"251 336 OFFCURVE",
"264 333 OFFCURVE",
"278 333 CURVE SMOOTH",
"327 333 OFFCURVE",
"361 365 OFFCURVE",
"365 414 CURVE",
"317 414 LINE",
"315 391 OFFCURVE",
"299 376 OFFCURVE",
"279 376 CURVE SMOOTH",
"266 376 OFFCURVE",
"254 379 OFFCURVE",
"243 383 CURVE",
"266 714 LINE",
"216 714 LINE",
"194 404 LINE",
"181 409 OFFCURVE",
"167 413 OFFCURVE",
"151 413 CURVE SMOOTH",
"103 413 OFFCURVE",
"68 381 OFFCURVE",
"65 332 CURVE",
"113 332 LINE",
"114 355 OFFCURVE",
"130 370 OFFCURVE",
"151 370 CURVE SMOOTH",
"165 370 OFFCURVE",
"178 366 OFFCURVE",
"191 360 CURVE",
"166 0 LINE"
);
}
);
width = 612;
},
{
layerId = m002;
paths = (
{
closed = 1;
nodes = (
"675 0 LINE",
"686 168 LINE",
"398 168 LINE",
"410 308 LINE",
"416 308 OFFCURVE",
"424 308 OFFCURVE",
"439 308 CURVE SMOOTH",
"501 308 OFFCURVE",
"547 353 OFFCURVE",
"552 424 CURVE",
"448 428 LINE",
"447 416 OFFCURVE",
"435 406 OFFCURVE",
"419 406 CURVE SMOOTH",
"417 406 OFFCURVE",
"415 406 OFFCURVE",
"413 406 CURVE",
"437 714 LINE",
"227 714 LINE",
"204 428 LINE",
"198 429 OFFCURVE",
"190 430 OFFCURVE",
"179 430 CURVE SMOOTH",
"114 430 OFFCURVE",
"69 385 OFFCURVE",
"64 314 CURVE",
"168 310 LINE",
"169 323 OFFCURVE",
"181 333 OFFCURVE",
"197 333 CURVE SMOOTH",
"198 333 OFFCURVE",
"200 333 OFFCURVE",
"202 333 CURVE",
"177 0 LINE"
);
}
);
width = 733;
}
);
leftKerningGroup = H;
leftMetricsKey = L;
rightKerningGroup = L;
rightMetricsKey = L;
unicode = 2C62;
},
{
color = 10;
glyphname = Lslash;
lastChange = "2025-09-15 16:40:56 +0000";
layers = (
{
layerId = "FD4D3FDD-DE85-408F-A52A-FF600B1C6101";
paths = (
{
closed = 1;
nodes = (
"166 48 LINE",
"191 404 LINE",
"323 479 LINE",
"327 537 LINE",
"195 462 LINE",
"213 714 LINE",
"163 714 LINE",
"143 432 LINE",
"69 390 LINE",
"65 332 LINE",
"139 374 LINE",
"113 0 LINE",
"501 0 LINE",
"504 48 LINE"
);
}
);
width = 559;
},
{
layerId = m002;
paths = (
{
closed = 1;
nodes = (
"336 168 LINE",
"354 418 LINE",
"443 476 LINE",
"452 612 LINE",
"364 555 LINE",
"375 714 LINE",
"165 714 LINE",
"144 414 LINE",
"67 365 LINE",
"58 227 LINE",
"134 276 LINE",
"115 0 LINE",
"613 0 LINE",
"624 168 LINE"
);
}
);
width = 671;
}
);
leftKerningGroup = H;
leftMetricsKey = N;
rightKerningGroup = L;
rightMetricsKey = A;
unicode = 0141;
},
{
glyphname = M;
lastChange = "2025-09-15 16:37:37 +0000";
layers = (
{
anchors = (
{
name = Bottom;
position = "{371, 0}";
}
);
layerId = "FD4D3FDD-DE85-408F-A52A-FF600B1C6101";
paths = (
{
closed = 1;
nodes = (
"42 0 LINE",
"92 0 LINE",
"134 593 LINE",
"135 593 LINE",
"348 0 LINE",
"396 0 LINE",
"691 593 LINE",
"694 593 LINE",
"652 0 LINE",
"702 0 LINE",
"752 714 LINE",
"694 714 LINE",
"378 79 LINE",
"376 79 LINE",
"148 714 LINE",
"92 714 LINE"
);
}
);
width = 780;
},
{
anchors = (
{
name = Bottom;
position = "{447, 0}";
}
);
layerId = m002;
paths = (
{
closed = 1;
nodes = (
"42 0 LINE",
"252 0 LINE",
"275 323 LINE",
"277 323 LINE",
"382 0 LINE",
"510 0 LINE",
"661 323 LINE",
"663 323 LINE",
"640 0 LINE",
"850 0 LINE",
"900 714 LINE",
"682 714 LINE",
"464 259 LINE",
"462 259 LINE",
"308 714 LINE",
"92 714 LINE"
);
}
);
width = 928;
}
);
leftKerningGroup = H;
leftMetricsKey = N;
rightKerningGroup = H;
rightMetricsKey = N;
unicode = 004D;
},
{
glyphname = N;
lastChange = "2025-09-12 18:39:50 +0000";
layers = (
{
anchors = (
{
name = Bottom;
position = "{303, 0}";
},
{
name = Top;
position = "{358, 714}";
}
);
layerId = "FD4D3FDD-DE85-408F-A52A-FF600B1C6101";
paths = (
{
closed = 1;
nodes = (
"92 714 LINE",
"42 0 LINE",
"92 0 LINE",
"136 626 LINE",
"138 626 LINE",
"517 0 LINE",
"567 0 LINE",
"617 714 LINE",
"567 714 LINE",
"523 88 LINE",
"521 88 LINE",
"142 714 LINE"
);
}
);
width = 645;
},
{
anchors = (
{
name = Bottom;
position = "{403, 0}";
},
{
name = Top;
position = "{458, 714}";
}
);
layerId = m002;
paths = (
{
closed = 1;
nodes = (
"92 714 LINE",
"42 0 LINE",
"252 0 LINE",
"279 379 LINE",
"281 379 LINE",
"527 0 LINE",
"737 0 LINE",
"787 714 LINE",
"577 714 LINE",
"550 335 LINE",
"548 335 LINE",
"302 714 LINE"
);
}
);
width = 815;
}
);
leftKerningGroup = H;
rightKerningGroup = H;
unicode = 004E;
},
{
color = 10;
glyphname = Eng;
lastChange = "2025-09-15 16:37:39 +0000";
layers = (
{
layerId = "FD4D3FDD-DE85-408F-A52A-FF600B1C6101";
paths = (
{
closed = 1;
nodes = (
"92 714 LINE",
"42 0 LINE",
"92 0 LINE",
"135 626 LINE",
"138 626 LINE",
"517 0 LINE",
"512 -67 LINE SMOOTH",
"507 -141 OFFCURVE",
"457 -186 OFFCURVE",
"377 -186 CURVE SMOOTH",
"355 -186 OFFCURVE",
"334 -181 OFFCURVE",
"322 -172 CURVE",
"320 -220 LINE",
"337 -228 OFFCURVE",
"358 -233 OFFCURVE",
"376 -233 CURVE SMOOTH",
"486 -233 OFFCURVE",
"555 -173 OFFCURVE",
"562 -69 CURVE SMOOTH",
"617 714 LINE",
"567 714 LINE",
"523 88 LINE",
"521 88 LINE",
"141 714 LINE"
);
}
);
width = 645;
},
{
layerId = m002;
paths = (
{
closed = 1;
nodes = (
"92 714 LINE",
"42 0 LINE",
"252 0 LINE",
"278 379 LINE",
"281 379 LINE",
"527 3 LINE",
"527 0 LINE SMOOTH",
"526 -41 OFFCURVE",
"494 -67 OFFCURVE",
"457 -67 CURVE SMOOTH",
"438 -67 OFFCURVE",
"415 -62 OFFCURVE",
"399 -53 CURVE",
"391 -219 LINE",
"409 -227 OFFCURVE",
"432 -233 OFFCURVE",
"454 -233 CURVE SMOOTH",
"622 -233 OFFCURVE",
"725 -155 OFFCURVE",
"735 -20 CURVE SMOOTH",
"787 714 LINE",
"577 714 LINE",
"550 335 LINE",
"547 335 LINE",
"301 714 LINE"
);
}
);
width = 815;
}
);
leftKerningGroup = N;
leftMetricsKey = N;
rightKerningGroup = N;
rightMetricsKey = N;
unicode = 014A;
},
{
glyphname = O;
lastChange = "2025-09-15 18:14:27 +0000";
layers = (
{
anchors = (
{
name = Bottom;
position = "{349, 0}";
},
{
name = Greek;
position = "{16, 558}";
},
{
name = Top;
position = "{398, 726}";
}
);
layerId = "FD4D3FDD-DE85-408F-A52A-FF600B1C6101";
paths = (
{
closed = 1;
nodes = (
"553 -13 OFFCURVE",
"690 150 OFFCURVE",
"690 395 CURVE SMOOTH",
"690 594 OFFCURVE",
"573 726 OFFCURVE",
"397 726 CURVE SMOOTH",
"192 726 OFFCURVE",
"56 562 OFFCURVE",
"56 317 CURVE SMOOTH",
"56 119 OFFCURVE",
"173 -13 OFFCURVE",
"348 -13 CURVE SMOOTH"
);
},
{
closed = 1;
nodes = (
"105 535 OFFCURVE",
"221 677 OFFCURVE",
"396 677 CURVE SMOOTH",
"543 677 OFFCURVE",
"641 563 OFFCURVE",
"641 391 CURVE SMOOTH",
"641 177 OFFCURVE",
"524 35 OFFCURVE",
"349 35 CURVE SMOOTH",
"203 35 OFFCURVE",
"105 149 OFFCURVE",
"105 321 CURVE SMOOTH"
);
}
);
width = 732;
},
{
anchors = (
{
name = Bottom;
position = "{391, 0}";
},
{
name = Greek;
position = "{-14, 558}";
},
{
name = Top;
position = "{441, 726}";
}
);
layerId = m002;
paths = (
{
closed = 1;
nodes = (
"639 -13 OFFCURVE",
"784 137 OFFCURVE",
"784 391 CURVE SMOOTH",
"784 602 OFFCURVE",
"655 726 OFFCURVE",
"436 726 CURVE SMOOTH",
"191 726 OFFCURVE",
"46 576 OFFCURVE",
"46 321 CURVE SMOOTH",
"46 111 OFFCURVE",
"175 -13 OFFCURVE",
"393 -13 CURVE SMOOTH"
);
},
{
closed = 1;
nodes = (
"265 471 OFFCURVE",
"327 558 OFFCURVE",
"433 558 CURVE SMOOTH",
"516 558 OFFCURVE",
"565 496 OFFCURVE",
"565 390 CURVE SMOOTH",
"565 242 OFFCURVE",
"502 155 OFFCURVE",
"396 155 CURVE SMOOTH",
"314 155 OFFCURVE",
"265 218 OFFCURVE",
"265 325 CURVE SMOOTH"
);
}
);
width = 816;
}
);
leftKerningGroup = O;
rightKerningGroup = O;
unicode = 004F;
},
{
color = 10;
glyphname = Oopen;
lastChange = "2025-09-15 16:37:45 +0000";
layers = (
{
layerId = "FD4D3FDD-DE85-408F-A52A-FF600B1C6101";
paths = (
{
closed = 1;
nodes = (
"74 607 LINE",
"123 650 OFFCURVE",
"205 678 OFFCURVE",
"281 678 CURVE SMOOTH",
"418 678 OFFCURVE",
"509 564 OFFCURVE",
"509 394 CURVE SMOOTH",
"509 179 OFFCURVE",
"397 35 OFFCURVE",
"228 35 CURVE SMOOTH",
"157 35 OFFCURVE",
"81 63 OFFCURVE",
"39 105 CURVE",
"36 49 LINE",
"75 12 OFFCURVE",
"152 -13 OFFCURVE",
"227 -13 CURVE SMOOTH",
"426 -13 OFFCURVE",
"559 150 OFFCURVE",
"559 395 CURVE SMOOTH",
"559 594 OFFCURVE",
"448 726 OFFCURVE",
"282 726 CURVE SMOOTH",
"207 726 OFFCURVE",
"125 702 OFFCURVE",
"78 666 CURVE"
);
}
);
width = 601;
},
{
layerId = m002;
paths = (
{
closed = 1;
nodes = (
"61 504 LINE",
"100 538 OFFCURVE",
"153 558 OFFCURVE",
"203 558 CURVE SMOOTH",
"305 558 OFFCURVE",
"365 494 OFFCURVE",
"365 386 CURVE SMOOTH",
"365 241 OFFCURVE",
"300 155 OFFCURVE",
"190 155 CURVE SMOOTH",
"126 155 OFFCURVE",
"69 173 OFFCURVE",
"36 204 CURVE",
"26 9 LINE",
"75 -5 OFFCURVE",
"135 -13 OFFCURVE",
"187 -13 CURVE SMOOTH",
"437 -13 OFFCURVE",
"584 137 OFFCURVE",
"584 391 CURVE SMOOTH",
"584 602 OFFCURVE",
"449 726 OFFCURVE",
"220 726 CURVE SMOOTH",
"179 726 OFFCURVE",
"123 718 OFFCURVE",
"71 704 CURVE"
);
}
);
width = 616;
}
);
leftKerningGroup = O;
leftMetricsKey = O;
rightKerningGroup = O;
rightMetricsKey = O;
unicode = 0186;
},
{
color = 10;
glyphname = Oslash;
lastChange = "2025-09-15 16:37:47 +0000";
layers = (
{
anchors = (
{
name = Top;
position = "{413, 726}";
}
);
layerId = "FD4D3FDD-DE85-408F-A52A-FF600B1C6101";
paths = (
{
closed = 1;
nodes = (
"567 -13 OFFCURVE",
"689 179 OFFCURVE",
"689 394 CURVE SMOOTH",
"689 531 OFFCURVE",
"636 637 OFFCURVE",
"545 689 CURVE",
"584 778 LINE",
"526 778 LINE",
"497 711 LINE",
"466 721 OFFCURVE",
"433 726 OFFCURVE",
"396 726 CURVE SMOOTH",
"177 726 OFFCURVE",
"55 535 OFFCURVE",
"55 318 CURVE SMOOTH",
"55 181 OFFCURVE",
"108 75 OFFCURVE",
"200 23 CURVE",
"161 -64 LINE",
"219 -64 LINE",
"249 2 LINE",
"278 -8 OFFCURVE",
"311 -13 OFFCURVE",
"347 -13 CURVE SMOOTH"
);
},
{
closed = 1;
nodes = (
"124 615 OFFCURVE",
"323 719 OFFCURVE",
"478 664 CURVE",
"219 70 LINE",
"139 121 OFFCURVE",
"96 222 OFFCURVE",
"105 355 CURVE SMOOTH"
);
},
{
closed = 1;
nodes = (
"525 641 LINE",
"605 590 OFFCURVE",
"648 489 OFFCURVE",
"639 357 CURVE SMOOTH",
"620 91 OFFCURVE",
"413 -5 OFFCURVE",
"267 48 CURVE"
);
}
);
width = 731;
},
{
anchors = (
{
name = Top;
position = "{434, 726}";
}
);
layerId = m002;
paths = (
{
closed = 1;
nodes = (
"606 -13 OFFCURVE",
"744 167 OFFCURVE",
"744 387 CURVE SMOOTH",
"744 512 OFFCURVE",
"696 609 OFFCURVE",
"616 667 CURVE",
"667 778 LINE",
"489 778 LINE",
"463 723 LINE",
"449 725 OFFCURVE",
"434 726 OFFCURVE",
"416 726 CURVE SMOOTH",
"187 726 OFFCURVE",
"46 550 OFFCURVE",
"46 325 CURVE SMOOTH",
"46 200 OFFCURVE",
"94 103 OFFCURVE",
"174 46 CURVE",
"124 -64 LINE",
"302 -64 LINE",
"327 -11 LINE",
"341 -12 OFFCURVE",
"356 -13 OFFCURVE",
"373 -13 CURVE SMOOTH"
);
},
{
closed = 1;
nodes = (
"215 462 OFFCURVE",
"292 551 OFFCURVE",
"397 558 CURVE",
"246 218 LINE",
"226 248 OFFCURVE",
"215 288 OFFCURVE",
"215 333 CURVE SMOOTH"
);
},
{
closed = 1;
nodes = (
"544 494 LINE",
"564 464 OFFCURVE",
"575 425 OFFCURVE",
"575 382 CURVE SMOOTH",
"575 252 OFFCURVE",
"499 163 OFFCURVE",
"394 156 CURVE"
);
}
);
width = 776;
}
);
leftKerningGroup = O;
leftMetricsKey = O;
rightKerningGroup = O;
rightMetricsKey = O;
unicode = 00D8;
},
{
color = 10;
glyphname = OE;
lastChange = "2025-09-15 16:37:49 +0000";
layers = (
{
layerId = "FD4D3FDD-DE85-408F-A52A-FF600B1C6101";
paths = (
{
closed = 1;
nodes = (
"603 392 LINE",
"623 666 LINE",
"963 666 LINE",
"967 714 LINE",
"401 714 LINE SMOOTH",
"179 714 OFFCURVE",
"56 530 OFFCURVE",
"56 322 CURVE SMOOTH",
"56 128 OFFCURVE",
"171 0 OFFCURVE",
"352 0 CURVE SMOOTH",
"917 0 LINE",
"920 48 LINE",
"579 48 LINE",
"600 344 LINE",
"920 344 LINE",
"923 392 LINE"
);
},
{
closed = 1;
nodes = (
"105 504 OFFCURVE",
"212 666 OFFCURVE",
"399 666 CURVE SMOOTH",
"573 666 LINE",
"529 48 LINE",
"354 48 LINE SMOOTH",
"201 48 OFFCURVE",
"105 157 OFFCURVE",
"105 325 CURVE SMOOTH"
);
}
);
width = 985;
},
{
layerId = m002;
paths = (
{
closed = 1;
nodes = (
"698 452 LINE",
"704 546 LINE",
"1010 546 LINE",
"1022 714 LINE",
"444 714 LINE SMOOTH",
"182 714 OFFCURVE",
"46 553 OFFCURVE",
"46 326 CURVE SMOOTH",
"46 121 OFFCURVE",
"176 0 OFFCURVE",
"399 0 CURVE SMOOTH",
"972 0 LINE",
"983 168 LINE",
"678 168 LINE",
"686 284 LINE",
"970 284 LINE",
"982 452 LINE"
);
},
{
closed = 1;
nodes = (
"265 440 OFFCURVE",
"318 546 OFFCURVE",
"437 546 CURVE SMOOTH",
"494 546 LINE",
"468 168 LINE",
"406 168 LINE SMOOTH",
"316 168 OFFCURVE",
"265 227 OFFCURVE",
"265 329 CURVE SMOOTH"
);
}
);
width = 1030;
}
);
leftKerningGroup = O;
leftMetricsKey = O;
rightKerningGroup = E;
rightMetricsKey = E;
unicode = 0152;
},
{
glyphname = P;
lastChange = "2025-09-15 16:37:57 +0000";
layers = (
{
anchors = (
{
name = Bottom;
position = "{236, 0}";
},
{
name = Top;
position = "{272, 714}";
}
);
layerId = "FD4D3FDD-DE85-408F-A52A-FF600B1C6101";
paths = (
{
closed = 1;
nodes = (
"112 291 LINE",
"301 291 LINE SMOOTH",
"426 291 OFFCURVE",
"510 383 OFFCURVE",
"510 522 CURVE SMOOTH",
"510 637 OFFCURVE",
"433 714 OFFCURVE",
"318 714 CURVE SMOOTH",
"92 714 LINE",
"42 0 LINE",
"92 0 LINE"
);
},
{
closed = 1;
nodes = (
"139 666 LINE",
"316 666 LINE SMOOTH",
"402 666 OFFCURVE",
"460 608 OFFCURVE",
"460 520 CURVE SMOOTH",
"460 411 OFFCURVE",
"397 338 OFFCURVE",
"303 338 CURVE SMOOTH",
"116 338 LINE"
);
}
);
width = 532;
},
{
anchors = (
{
name = Bottom;
position = "{296, 0}";
},
{
name = Top;
position = "{332, 714}";
}
);
layerId = m002;
paths = (
{
closed = 1;
nodes = (
"267 221 LINE",
"387 221 LINE SMOOTH",
"576 221 OFFCURVE",
"687 319 OFFCURVE",
"687 485 CURVE SMOOTH",
"687 629 OFFCURVE",
"583 714 OFFCURVE",
"406 714 CURVE SMOOTH",
"92 714 LINE",
"42 0 LINE",
"252 0 LINE"
);
},
{
closed = 1;
nodes = (
"290 546 LINE",
"399 546 LINE SMOOTH",
"448 546 OFFCURVE",
"477 521 OFFCURVE",
"477 480 CURVE SMOOTH",
"477 423 OFFCURVE",
"447 389 OFFCURVE",
"395 389 CURVE SMOOTH",
"279 389 LINE"
);
}
);
width = 712;
}
);
leftKerningGroup = H;
leftMetricsKey = N;
rightKerningGroup = P;
unicode = 0050;
},
{
color = 10;
glyphname = Thorn;
lastChange = "2025-09-15 16:40:59 +0000";
layers = (
{
layerId = "FD4D3FDD-DE85-408F-A52A-FF600B1C6101";
paths = (
{
closed = 1;
nodes = (
"103 151 LINE",
"301 151 LINE SMOOTH",
"437 151 OFFCURVE",
"519 236 OFFCURVE",
"519 378 CURVE SMOOTH",
"519 501 OFFCURVE",
"445 574 OFFCURVE",
"318 574 CURVE SMOOTH",
"132 574 LINE",
"142 714 LINE",
"92 714 LINE",
"42 0 LINE",
"92 0 LINE"
);
},
{
closed = 1;
nodes = (
"129 526 LINE",
"316 526 LINE SMOOTH",
"414 526 OFFCURVE",
"470 471 OFFCURVE",
"470 375 CURVE SMOOTH",
"470 265 OFFCURVE",
"406 198 OFFCURVE",
"303 198 CURVE SMOOTH",
"106 198 LINE"
);
}
);
width = 552;
},
{
layerId = m002;
paths = (
{
closed = 1;
nodes = (
"219 99 LINE",
"359 99 LINE SMOOTH",
"524 99 OFFCURVE",
"638 200 OFFCURVE",
"638 351 CURVE SMOOTH",
"638 485 OFFCURVE",
"535 574 OFFCURVE",
"377 574 CURVE SMOOTH",
"252 574 LINE",
"262 714 LINE",
"92 714 LINE",
"42 0 LINE",
"212 0 LINE"
);
},
{
closed = 1;
nodes = (
"242 424 LINE",
"371 424 LINE SMOOTH",
"432 424 OFFCURVE",
"468 393 OFFCURVE",
"468 347 CURVE SMOOTH",
"468 288 OFFCURVE",
"423 249 OFFCURVE",
"365 249 CURVE SMOOTH",
"229 249 LINE"
);
}
);
width = 672;
}
);
leftKerningGroup = H;
leftMetricsKey = P;
rightKerningGroup = P;
rightMetricsKey = P;
unicode = 00DE;
},
{
glyphname = Q;
lastChange = "2025-09-15 16:38:00 +0000";
layers = (
{
layerId = "FD4D3FDD-DE85-408F-A52A-FF600B1C6101";
paths = (
{
closed = 1;
nodes = (
"406 -13 OFFCURVE",
"458 -2 OFFCURVE",
"503 20 CURVE",
"540 -54 LINE",
"585 -29 LINE",
"547 46 LINE",
"640 113 OFFCURVE",
"691 236 OFFCURVE",
"691 401 CURVE SMOOTH",
"691 605 OFFCURVE",
"582 726 OFFCURVE",
"397 726 CURVE SMOOTH",
"182 726 OFFCURVE",
"55 572 OFFCURVE",
"55 311 CURVE SMOOTH",
"55 107 OFFCURVE",
"164 -13 OFFCURVE",
"348 -13 CURVE SMOOTH"
);
},
{
closed = 1;
nodes = (
"105 543 OFFCURVE",
"213 678 OFFCURVE",
"396 678 CURVE SMOOTH",
"550 678 OFFCURVE",
"641 574 OFFCURVE",
"641 397 CURVE SMOOTH",
"641 255 OFFCURVE",
"599 150 OFFCURVE",
"524 91 CURVE",
"461 213 LINE",
"417 188 LINE",
"480 63 LINE",
"442 45 OFFCURVE",
"398 35 OFFCURVE",
"349 35 CURVE SMOOTH",
"196 35 OFFCURVE",
"105 139 OFFCURVE",
"105 315 CURVE SMOOTH"
);
}
);
width = 733;
},
{
layerId = m002;
paths = (
{
closed = 1;
nodes = (
"428 -13 OFFCURVE",
"463 -9 OFFCURVE",
"496 -3 CURVE",
"536 -84 LINE",
"670 -9 LINE",
"637 58 LINE",
"746 135 OFFCURVE",
"784 266 OFFCURVE",
"784 391 CURVE SMOOTH",
"784 603 OFFCURVE",
"656 726 OFFCURVE",
"436 726 CURVE SMOOTH",
"176 726 OFFCURVE",
"46 554 OFFCURVE",
"46 321 CURVE SMOOTH",
"46 110 OFFCURVE",
"174 -13 OFFCURVE",
"393 -13 CURVE SMOOTH"
);
},
{
closed = 1;
nodes = (
"255 471 OFFCURVE",
"326 558 OFFCURVE",
"433 558 CURVE SMOOTH",
"524 558 OFFCURVE",
"575 495 OFFCURVE",
"575 388 CURVE SMOOTH",
"575 326 OFFCURVE",
"562 280 OFFCURVE",
"543 243 CURVE",
"519 285 LINE",
"386 210 LINE",
"412 155 LINE",
"406 155 OFFCURVE",
"402 155 OFFCURVE",
"396 155 CURVE",
"306 155 OFFCURVE",
"255 218 OFFCURVE",
"255 327 CURVE SMOOTH"
);
}
);
width = 816;
}
);
leftKerningGroup = O;
leftMetricsKey = O;
rightKerningGroup = O;
rightMetricsKey = O;
unicode = 0051;
},
{
glyphname = R;
lastChange = "2025-09-15 16:38:09 +0000";
layers = (
{
anchors = (
{
name = Bottom;
position = "{257, 0}";
},
{
name = Top;
position = "{280, 714}";
}
);
layerId = "FD4D3FDD-DE85-408F-A52A-FF600B1C6101";
paths = (
{
closed = 1;
nodes = (
"112 291 LINE",
"308 291 LINE",
"457 0 LINE",
"513 0 LINE",
"362 298 LINE",
"454 318 OFFCURVE",
"511 388 OFFCURVE",
"518 494 CURVE SMOOTH",
"528 632 OFFCURVE",
"454 714 OFFCURVE",
"318 714 CURVE SMOOTH",
"92 714 LINE",
"42 0 LINE",
"92 0 LINE"
);
},
{
closed = 1;
nodes = (
"139 666 LINE",
"316 666 LINE SMOOTH",
"420 666 OFFCURVE",
"476 604 OFFCURVE",
"468 498 CURVE SMOOTH",
"461 397 OFFCURVE",
"400 338 OFFCURVE",
"303 338 CURVE SMOOTH",
"116 338 LINE"
);
}
);
width = 571;
},
{
anchors = (
{
name = Bottom;
position = "{347, 0}";
},
{
name = Top;
position = "{350, 714}";
}
);
layerId = m002;
paths = (
{
closed = 1;
nodes = (
"269 240 LINE",
"337 240 LINE",
"459 0 LINE",
"674 0 LINE",
"539 264 LINE",
"627 299 OFFCURVE",
"679 371 OFFCURVE",
"687 472 CURVE SMOOTH",
"697 624 OFFCURVE",
"595 714 OFFCURVE",
"416 714 CURVE SMOOTH",
"92 714 LINE",
"42 0 LINE",
"252 0 LINE"
);
},
{
closed = 1;
nodes = (
"290 546 LINE",
"409 546 LINE SMOOTH",
"456 546 OFFCURVE",
"480 522 OFFCURVE",
"477 482 CURVE SMOOTH",
"474 436 OFFCURVE",
"446 408 OFFCURVE",
"406 408 CURVE SMOOTH",
"281 408 LINE"
);
}
);
width = 732;
}
);
leftKerningGroup = H;
leftMetricsKey = N;
rightKerningGroup = R;
unicode = 0052;
},
{
glyphname = S;
lastChange = "2025-09-15 19:10:17 +0000";
layers = (
{
anchors = (
{
name = Bottom;
position = "{296, 0}";
},
{
name = Top;
position = "{334, 726}";
}
);
layerId = "FD4D3FDD-DE85-408F-A52A-FF600B1C6101";
paths = (
{
closed = 1;
nodes = (
"188 726 OFFCURVE",
"97 652 OFFCURVE",
"89 528 CURVE SMOOTH",
"72 293 OFFCURVE",
"510 385 OFFCURVE",
"496 190 CURVE SMOOTH",
"489 93 OFFCURVE",
"417 35 OFFCURVE",
"301 35 CURVE SMOOTH",
"163 35 OFFCURVE",
"84 107 OFFCURVE",
"88 230 CURVE",
"38 232 LINE",
"27 78 OFFCURVE",
"123 -13 OFFCURVE",
"296 -13 CURVE SMOOTH",
"444 -13 OFFCURVE",
"537 64 OFFCURVE",
"546 194 CURVE SMOOTH",
"562 421 OFFCURVE",
"139 343 OFFCURVE",
"139 521 CURVE SMOOTH",
"139 620 OFFCURVE",
"211 678 OFFCURVE",
"332 678 CURVE SMOOTH",
"451 678 OFFCURVE",
"516 614 OFFCURVE",
"507 505 CURVE",
"557 503 LINE",
"567 643 OFFCURVE",
"484 726 OFFCURVE",
"333 726 CURVE SMOOTH"
);
}
);
width = 591;
},
{
anchors = (
{
name = Bottom;
position = "{360, 0}";
},
{
name = Top;
position = "{399, 726}";
}
);
layerId = m002;
paths = (
{
closed = 1;
nodes = (
"201 726 OFFCURVE",
"86 638 OFFCURVE",
"86 492 CURVE SMOOTH",
"86 233 OFFCURVE",
"475 313 OFFCURVE",
"468 220 CURVE SMOOTH",
"465 179 OFFCURVE",
"427 155 OFFCURVE",
"367 155 CURVE SMOOTH",
"288 155 OFFCURVE",
"245 191 OFFCURVE",
"249 254 CURVE",
"40 258 LINE",
"28 89 OFFCURVE",
"149 -13 OFFCURVE",
"364 -13 CURVE SMOOTH",
"561 -13 OFFCURVE",
"678 78 OFFCURVE",
"678 230 CURVE SMOOTH",
"678 482 OFFCURVE",
"297 411 OFFCURVE",
"297 499 CURVE SMOOTH",
"297 536 OFFCURVE",
"334 558 OFFCURVE",
"392 558 CURVE SMOOTH",
"448 558 OFFCURVE",
"479 531 OFFCURVE",
"475 481 CURVE",
"685 477 LINE",
"696 632 OFFCURVE",
"587 726 OFFCURVE",
"395 726 CURVE SMOOTH"
);
}
);
width = 721;
}
);
leftKerningGroup = S;
rightKerningGroup = S;
unicode = 0053;
},
{
color = 10;
glyphname = Saltillo;
lastChange = "2025-09-15 16:38:11 +0000";
layers = (
{
layerId = "FD4D3FDD-DE85-408F-A52A-FF600B1C6101";
paths = (
{
closed = 1;
nodes = (
"70 409 LINE",
"60 196 LINE",
"100 196 LINE",
"120 409 LINE",
"143 731 LINE",
"93 731 LINE"
);
}
);
width = 170;
},
{
layerId = m002;
paths = (
{
closed = 1;
nodes = (
"70 409 LINE",
"60 196 LINE",
"220 196 LINE",
"240 409 LINE",
"263 731 LINE",
"93 731 LINE"
);
}
);
width = 290;
}
);
leftKerningGroup = H;
leftMetricsKey = N;
rightKerningGroup = H;
rightMetricsKey = N;
unicode = A78B;
},
{
color = 10;
glyphname = Germandbls;
lastChange = "2025-09-15 16:38:14 +0000";
layers = (
{
layerId = "FD4D3FDD-DE85-408F-A52A-FF600B1C6101";
paths = (
{
closed = 1;
nodes = (
"438 -13 OFFCURVE",
"528 78 OFFCURVE",
"538 216 CURVE SMOOTH",
"547 349 OFFCURVE",
"450 440 OFFCURVE",
"296 447 CURVE",
"503 666 LINE",
"507 714 LINE",
"92 714 LINE",
"42 0 LINE",
"92 0 LINE",
"139 666 LINE",
"441 666 LINE",
"233 446 LINE",
"229 398 LINE",
"250 398 LINE SMOOTH",
"401 398 OFFCURVE",
"495 327 OFFCURVE",
"488 218 CURVE SMOOTH",
"480 109 OFFCURVE",
"410 35 OFFCURVE",
"313 35 CURVE",
"311 -13 LINE"
);
}
);
width = 591;
},
{
layerId = m002;
paths = (
{
closed = 1;
nodes = (
"555 -13 OFFCURVE",
"668 79 OFFCURVE",
"668 234 CURVE SMOOTH",
"668 329 OFFCURVE",
"619 397 OFFCURVE",
"532 428 CURVE",
"635 546 LINE",
"647 714 LINE",
"92 714 LINE",
"42 0 LINE",
"252 0 LINE",
"290 546 LINE",
"427 546 LINE",
"331 436 LINE",
"321 278 LINE",
"343 278 LINE SMOOTH",
"409 278 OFFCURVE",
"448 259 OFFCURVE",
"448 226 CURVE SMOOTH",
"448 181 OFFCURVE",
"419 155 OFFCURVE",
"370 155 CURVE",
"363 -13 LINE"
);
}
);
width = 711;
}
);
leftKerningGroup = H;
leftMetricsKey = B;
rightKerningGroup = B;
rightMetricsKey = O;
unicode = 1E9E;
},
{
color = 10;
glyphname = Schwa;
lastChange = "2025-09-15 16:38:16 +0000";
layers = (
{
layerId = "FD4D3FDD-DE85-408F-A52A-FF600B1C6101";
paths = (
{
closed = 1;
nodes = (
"124 491 LINE",
"155 603 OFFCURVE",
"254 678 OFFCURVE",
"371 678 CURVE SMOOTH",
"539 678 OFFCURVE",
"599 517 OFFCURVE",
"588 356 CURVE",
"58 356 LINE",
"56 339 LINE SMOOTH",
"31 129 OFFCURVE",
"141 -13 OFFCURVE",
"311 -13 CURVE SMOOTH",
"508 -13 OFFCURVE",
"640 153 OFFCURVE",
"640 403 CURVE SMOOTH",
"640 597 OFFCURVE",
"534 726 OFFCURVE",
"375 726 CURVE SMOOTH",
"230 726 OFFCURVE",
"110 633 OFFCURVE",
"74 493 CURVE"
);
},
{
closed = 1;
nodes = (
"583 308 LINE",
"556 141 OFFCURVE",
"458 35 OFFCURVE",
"320 35 CURVE SMOOTH",
"178 35 OFFCURVE",
"91 144 OFFCURVE",
"104 308 CURVE"
);
}
);
width = 682;
},
{
layerId = m002;
paths = (
{
closed = 1;
nodes = (
"265 450 LINE",
"283 518 OFFCURVE",
"339 558 OFFCURVE",
"417 558 CURVE SMOOTH",
"499 558 OFFCURVE",
"549 503 OFFCURVE",
"553 408 CURVE",
"54 408 LINE",
"49 330 LINE SMOOTH",
"42 114 OFFCURVE",
"169 -13 OFFCURVE",
"392 -13 CURVE SMOOTH",
"625 -13 OFFCURVE",
"763 139 OFFCURVE",
"763 397 CURVE SMOOTH",
"763 604 OFFCURVE",
"638 726 OFFCURVE",
"426 726 CURVE SMOOTH",
"235 726 OFFCURVE",
"97 625 OFFCURVE",
"54 454 CURVE"
);
},
{
closed = 1;
nodes = (
"530 258 LINE",
"504 192 OFFCURVE",
"455 155 OFFCURVE",
"388 155 CURVE SMOOTH",
"306 155 OFFCURVE",
"258 193 OFFCURVE",
"255 258 CURVE"
);
}
);
width = 795;
}
);
leftKerningGroup = O;
leftMetricsKey = O;
rightKerningGroup = O;
rightMetricsKey = O;
unicode = 018F;
},
{
glyphname = T;
lastChange = "2025-09-15 19:26:39 +0000";
layers = (
{
anchors = (
{
name = Bottom;
position = "{272, 0}";
},
{
name = Top;
position = "{322, 714}";
}
);
layerId = "FD4D3FDD-DE85-408F-A52A-FF600B1C6101";
paths = (
{
closed = 1;
nodes = (
"62 714 LINE",
"58 666 LINE",
"293 666 LINE",
"247 0 LINE",
"297 0 LINE",
"343 666 LINE",
"577 666 LINE",
"581 714 LINE"
);
}
);
width = 579;
},
{
anchors = (
{
name = Bottom;
position = "{317, 0}";
},
{
name = Top;
position = "{367, 714}";
}
);
layerId = m002;
paths = (
{
closed = 1;
nodes = (
"62 714 LINE",
"50 546 LINE",
"250 546 LINE",
"212 0 LINE",
"422 0 LINE",
"460 546 LINE",
"659 546 LINE",
"671 714 LINE"
);
}
);
width = 669;
}
);
leftKerningGroup = T;
rightKerningGroup = T;
unicode = 0054;
},
{
color = 10;
glyphname = Tbar;
lastChange = "2025-09-15 19:10:26 +0000";
layers = (
{
layerId = "FD4D3FDD-DE85-408F-A52A-FF600B1C6101";
paths = (
{
closed = 1;
nodes = (
"62 714 LINE",
"58 666 LINE",
"293 666 LINE",
"275 412 LINE",
"81 417 LINE",
"78 372 LINE",
"273 372 LINE",
"247 0 LINE",
"297 0 LINE",
"323 372 LINE",
"517 372 LINE",
"520 414 LINE",
"326 414 LINE",
"343 666 LINE",
"577 666 LINE",
"581 714 LINE"
);
}
);
width = 579;
},
{
layerId = m002;
paths = (
{
closed = 1;
nodes = (
"62 714 LINE",
"50 546 LINE",
"250 546 LINE",
"240 402 LINE",
"81 407 LINE",
"72 284 LINE",
"232 284 LINE",
"212 0 LINE",
"422 0 LINE",
"442 284 LINE",
"600 284 LINE",
"609 404 LINE",
"450 404 LINE",
"460 546 LINE",
"659 546 LINE",
"671 714 LINE"
);
}
);
width = 669;
}
);
leftKerningGroup = T;
leftMetricsKey = T;
rightKerningGroup = T;
rightMetricsKey = T;
unicode = 0166;
},
{
color = 10;
glyphname = Tdiagonalstroke;
lastChange = "2025-09-15 19:09:58 +0000";
layers = (
{
layerId = "FD4D3FDD-DE85-408F-A52A-FF600B1C6101";
paths = (
{
closed = 1;
nodes = (
"498 714 LINE",
"524 772 LINE",
"473 772 LINE",
"447 714 LINE",
"62 714 LINE",
"58 666 LINE",
"293 666 LINE",
"269 320 LINE",
"100 -53 LINE",
"150 -53 LINE",
"260 190 LINE",
"247 0 LINE",
"297 0 LINE",
"319 320 LINE",
"475 666 LINE",
"577 666 LINE",
"581 714 LINE"
);
},
{
closed = 1;
nodes = (
"343 666 LINE",
"425 666 LINE",
"328 451 LINE"
);
}
);
width = 579;
},
{
layerId = m002;
paths = (
{
closed = 1;
nodes = (
"624 714 LINE",
"650 772 LINE",
"599 772 LINE",
"573 714 LINE",
"62 714 LINE",
"50 546 LINE",
"250 546 LINE",
"212 0 LINE",
"249 0 LINE",
"225 -53 LINE",
"277 -53 LINE",
"300 0 LINE",
"422 0 LINE",
"445 318 LINE",
"548 546 LINE",
"659 546 LINE",
"671 714 LINE"
);
},
{
closed = 1;
nodes = (
"460 546 LINE",
"496 546 LINE",
"452 448 LINE"
);
}
);
width = 669;
}
);
leftKerningGroup = T;
leftMetricsKey = T;
rightKerningGroup = T;
rightMetricsKey = T;
unicode = 023E;
},
{
glyphname = U;
lastChange = "2023-08-31 01:28:21 +0000";
layers = (
{
anchors = (
{
name = Bottom;
position = "{294, 0}";
},
{
name = Top;
position = "{344, 714}";
}
);
layerId = "FD4D3FDD-DE85-408F-A52A-FF600B1C6101";
paths = (
{
closed = 1;
nodes = (
"39 237 LINE SMOOTH",
"28 80 OFFCURVE",
"122 -13 OFFCURVE",
"293 -13 CURVE SMOOTH",
"464 -13 OFFCURVE",
"572 90 OFFCURVE",
"584 264 CURVE SMOOTH",
"616 714 LINE",
"566 714 LINE",
"535 276 LINE SMOOTH",
"524 125 OFFCURVE",
"434 35 OFFCURVE",
"294 35 CURVE SMOOTH",
"157 36 OFFCURVE",
"81 114 OFFCURVE",
"90 246 CURVE SMOOTH",
"122 714 LINE",
"72 714 LINE"
);
}
);
width = 624;
},
{
anchors = (
{
name = Bottom;
position = "{323, 0}";
},
{
name = Top;
position = "{373, 714}";
}
);
layerId = m002;
paths = (
{
closed = 1;
nodes = (
"20 250 LINE SMOOTH",
"9 85 OFFCURVE",
"123 -13 OFFCURVE",
"326 -13 CURVE SMOOTH",
"526 -13 OFFCURVE",
"652 93 OFFCURVE",
"665 273 CURVE SMOOTH",
"696 714 LINE",
"486 714 LINE",
"454 267 LINE SMOOTH",
"450 197 OFFCURVE",
"404 155 OFFCURVE",
"329 155 CURVE SMOOTH",
"262 156 OFFCURVE",
"225 196 OFFCURVE",
"230 263 CURVE SMOOTH",
"262 714 LINE",
"52 714 LINE"
);
}
);
width = 684;
}
);
leftKerningGroup = U;
rightKerningGroup = U;
unicode = 0055;
},
{
color = 10;
glyphname = "Upsilon-latin";
lastChange = "2025-09-15 16:38:18 +0000";
layers = (
{
layerId = "FD4D3FDD-DE85-408F-A52A-FF600B1C6101";
paths = (
{
closed = 1;
nodes = (
"551 -13 OFFCURVE",
"687 135 OFFCURVE",
"687 357 CURVE SMOOTH",
"687 499 OFFCURVE",
"610 617 OFFCURVE",
"489 666 CURVE",
"699 666 LINE",
"703 714 LINE",
"428 714 LINE",
"424 666 LINE",
"552 622 OFFCURVE",
"638 497 OFFCURVE",
"638 355 CURVE SMOOTH",
"638 163 OFFCURVE",
"522 35 OFFCURVE",
"349 35 CURVE SMOOTH",
"201 35 OFFCURVE",
"103 140 OFFCURVE",
"103 297 CURVE SMOOTH",
"103 467 OFFCURVE",
"207 614 OFFCURVE",
"364 666 CURVE",
"368 714 LINE",
"93 714 LINE",
"89 666 LINE",
"295 666 LINE",
"148 610 OFFCURVE",
"54 468 OFFCURVE",
"54 295 CURVE SMOOTH",
"54 110 OFFCURVE",
"171 -13 OFFCURVE",
"347 -13 CURVE SMOOTH"
);
}
);
width = 732;
},
{
layerId = m002;
paths = (
{
closed = 1;
nodes = (
"637 -13 OFFCURVE",
"779 97 OFFCURVE",
"779 284 CURVE SMOOTH",
"779 402 OFFCURVE",
"723 494 OFFCURVE",
"622 546 CURVE",
"806 546 LINE",
"818 714 LINE",
"475 714 LINE",
"463 546 LINE",
"527 522 OFFCURVE",
"565 462 OFFCURVE",
"565 386 CURVE SMOOTH",
"565 265 OFFCURVE",
"506 194 OFFCURVE",
"406 194 CURVE SMOOTH",
"324 194 OFFCURVE",
"275 246 OFFCURVE",
"275 335 CURVE SMOOTH",
"275 438 OFFCURVE",
"323 517 OFFCURVE",
"403 546 CURVE",
"415 714 LINE",
"72 714 LINE",
"60 546 LINE",
"228 546 LINE",
"114 491 OFFCURVE",
"50 394 OFFCURVE",
"50 268 CURVE SMOOTH",
"50 91 OFFCURVE",
"179 -13 OFFCURVE",
"396 -13 CURVE SMOOTH"
);
}
);
width = 826;
}
);
leftKerningGroup = O;
leftMetricsKey = O;
rightKerningGroup = O;
rightMetricsKey = O;
unicode = 01B1;
},
{
glyphname = V;
lastChange = "2025-09-15 16:41:01 +0000";
layers = (
{
anchors = (
{
name = Bottom;
position = "{319, 0}";
},
{
name = Top;
position = "{369, 714}";
}
);
layerId = "FD4D3FDD-DE85-408F-A52A-FF600B1C6101";
paths = (
{
closed = 1;
nodes = (
"325 98 LINE",
"323 98 LINE",
"124 714 LINE",
"72 714 LINE",
"301 0 LINE",
"335 0 LINE",
"665 714 LINE",
"611 714 LINE"
);
}
);
width = 673;
},
{
anchors = (
{
name = Bottom;
position = "{419, 0}";
},
{
name = Top;
position = "{469, 714}";
}
);
layerId = m002;
paths = (
{
closed = 1;
nodes = (
"438 290 LINE",
"436 290 LINE",
"284 714 LINE",
"72 714 LINE",
"331 0 LINE",
"505 0 LINE",
"865 714 LINE",
"651 714 LINE"
);
}
);
width = 873;
}
);
leftKerningGroup = V;
leftMetricsKey = A;
rightKerningGroup = V;
rightMetricsKey = A;
unicode = 0056;
},
{
color = 10;
glyphname = "Gamma-latin";
lastChange = "2025-09-15 19:10:40 +0000";
layers = (
{
layerId = "FD4D3FDD-DE85-408F-A52A-FF600B1C6101";
paths = (
{
closed = 1;
nodes = (
"344 -13 OFFCURVE",
"404 48 OFFCURVE",
"404 138 CURVE SMOOTH",
"404 195 OFFCURVE",
"373 246 OFFCURVE",
"347 296 CURVE SMOOTH",
"312 360 LINE",
"546 714 LINE",
"494 714 LINE",
"288 406 LINE",
"126 714 LINE",
"72 714 LINE",
"258 360 LINE",
"215 294 LINE SMOOTH",
"177 237 OFFCURVE",
"132 179 OFFCURVE",
"132 113 CURVE SMOOTH",
"132 36 OFFCURVE",
"180 -13 OFFCURVE",
"258 -13 CURVE SMOOTH"
);
},
{
closed = 1;
nodes = (
"182 182 OFFCURVE",
"230 237 OFFCURVE",
"267 293 CURVE SMOOTH",
"281 314 LINE",
"293 291 LINE SMOOTH",
"319 240 OFFCURVE",
"354 190 OFFCURVE",
"354 135 CURVE SMOOTH",
"354 75 OFFCURVE",
"319 35 OFFCURVE",
"263 35 CURVE SMOOTH",
"213 35 OFFCURVE",
"182 69 OFFCURVE",
"182 119 CURVE SMOOTH"
);
}
);
width = 554;
},
{
layerId = m002;
paths = (
{
closed = 1;
nodes = (
"451 -13 OFFCURVE",
"558 74 OFFCURVE",
"568 222 CURVE SMOOTH",
"571 261 OFFCURVE",
"557 313 OFFCURVE",
"529 359 CURVE SMOOTH",
"439 502 LINE",
"589 714 LINE",
"367 714 LINE",
"336 671 LINE",
"309 714 LINE",
"85 714 LINE",
"207 502 LINE",
"100 355 LINE SMOOTH",
"65 309 OFFCURVE",
"41 257 OFFCURVE",
"37 212 CURVE SMOOTH",
"28 70 OFFCURVE",
"117 -13 OFFCURVE",
"282 -13 CURVE SMOOTH"
);
},
{
closed = 1;
nodes = (
"248 230 OFFCURVE",
"255 248 OFFCURVE",
"287 294 CURVE SMOOTH",
"308 322 LINE",
"326 290 LINE SMOOTH",
"348 252 OFFCURVE",
"357 233 OFFCURVE",
"357 210 CURVE SMOOTH",
"357 177 OFFCURVE",
"336 155 OFFCURVE",
"303 155 CURVE SMOOTH",
"270 155 OFFCURVE",
"248 175 OFFCURVE",
"248 207 CURVE SMOOTH"
);
}
);
width = 611;
}
);
leftKerningGroup = V;
leftMetricsKey = V;
rightKerningGroup = V;
rightMetricsKey = V;
unicode = 0194;
},
{
glyphname = W;
lastChange = "2025-09-15 16:41:03 +0000";
layers = (
{
anchors = (
{
name = Bottom;
position = "{440, 0}";
},
{
name = Top;
position = "{491, 714}";
}
);
layerId = "FD4D3FDD-DE85-408F-A52A-FF600B1C6101";
paths = (
{
closed = 1;
nodes = (
"218 0 LINE",
"271 0 LINE",
"483 617 LINE",
"485 617 LINE",
"610 0 LINE",
"663 0 LINE",
"909 714 LINE",
"855 714 LINE",
"644 97 LINE",
"642 97 LINE",
"516 714 LINE",
"463 714 LINE",
"252 97 LINE",
"250 97 LINE",
"124 714 LINE",
"72 714 LINE"
);
}
);
width = 917;
},
{
anchors = (
{
name = Bottom;
position = "{545, 0}";
},
{
name = Top;
position = "{596, 714}";
}
);
layerId = m002;
paths = (
{
closed = 1;
nodes = (
"218 0 LINE",
"438 0 LINE",
"573 405 LINE",
"575 405 LINE",
"654 0 LINE",
"874 0 LINE",
"1120 714 LINE",
"899 714 LINE",
"759 304 LINE",
"757 304 LINE",
"677 714 LINE",
"512 714 LINE",
"375 305 LINE",
"373 305 LINE",
"291 714 LINE",
"72 714 LINE"
);
}
);
width = 1128;
}
);
leftKerningGroup = V;
leftMetricsKey = A;
rightKerningGroup = V;
rightMetricsKey = A;
unicode = 0057;
},
{
glyphname = X;
lastChange = "2025-09-15 16:41:05 +0000";
layers = (
{
anchors = (
{
name = Bottom;
position = "{312, 0}";
},
{
name = Top;
position = "{362, 714}";
}
);
layerId = "FD4D3FDD-DE85-408F-A52A-FF600B1C6101";
paths = (
{
closed = 1;
nodes = (
"357 356 LINE",
"633 714 LINE",
"573 714 LINE",
"330 399 LINE",
"131 714 LINE",
"73 714 LINE",
"298 358 LINE",
"22 0 LINE",
"82 0 LINE",
"325 315 LINE",
"524 0 LINE",
"582 0 LINE"
);
}
);
width = 641;
},
{
anchors = (
{
name = Bottom;
position = "{407, 0}";
},
{
name = Top;
position = "{457, 714}";
}
);
layerId = m002;
paths = (
{
closed = 1;
nodes = (
"550 356 LINE",
"828 714 LINE",
"578 714 LINE",
"437 533 LINE",
"321 714 LINE",
"73 714 LINE",
"301 358 LINE",
"22 0 LINE",
"273 0 LINE",
"414 181 LINE",
"530 0 LINE",
"777 0 LINE"
);
}
);
width = 836;
}
);
leftKerningGroup = X;
leftMetricsKey = A;
rightKerningGroup = X;
rightMetricsKey = A;
unicode = 0058;
},
{
glyphname = Y;
lastChange = "2025-09-15 16:41:08 +0000";
layers = (
{
anchors = (
{
name = Bottom;
position = "{286, 0}";
},
{
name = Top;
position = "{336, 714}";
}
);
layerId = "FD4D3FDD-DE85-408F-A52A-FF600B1C6101";
paths = (
{
closed = 1;
nodes = (
"261 0 LINE",
"311 0 LINE",
"330 273 LINE",
"599 714 LINE",
"543 714 LINE",
"309 330 LINE",
"307 330 LINE",
"126 714 LINE",
"72 714 LINE",
"280 273 LINE"
);
}
);
width = 607;
},
{
anchors = (
{
name = Bottom;
position = "{386, 0}";
},
{
name = Top;
position = "{436, 714}";
}
);
layerId = m002;
paths = (
{
closed = 1;
nodes = (
"281 0 LINE",
"491 0 LINE",
"510 273 LINE",
"800 714 LINE",
"573 714 LINE",
"419 477 LINE",
"416 477 LINE",
"297 714 LINE",
"72 714 LINE",
"300 273 LINE"
);
}
);
width = 808;
}
);
leftKerningGroup = V;
leftMetricsKey = A;
rightKerningGroup = V;
rightMetricsKey = A;
unicode = 0059;
},
{
glyphname = Z;
lastChange = "2023-08-31 01:28:21 +0000";
layers = (
{
anchors = (
{
name = Bottom;
position = "{261, 0}";
},
{
name = Top;
position = "{292, 714}";
}
);
layerId = "FD4D3FDD-DE85-408F-A52A-FF600B1C6101";
paths = (
{
closed = 1;
nodes = (
"53 714 LINE",
"49 664 LINE",
"485 664 LINE",
"-5 50 LINE",
"-8 0 LINE",
"501 0 LINE",
"504 50 LINE",
"54 50 LINE",
"546 664 LINE",
"550 714 LINE"
);
}
);
width = 529;
},
{
anchors = (
{
name = Bottom;
position = "{261, 0}";
},
{
name = Top;
position = "{343, 714}";
}
);
layerId = m002;
paths = (
{
closed = 1;
nodes = (
"64 714 LINE",
"52 546 LINE",
"337 546 LINE",
"14 168 LINE",
"3 0 LINE",
"532 0 LINE",
"543 168 LINE",
"244 168 LINE",
"570 546 LINE",
"581 714 LINE"
);
}
);
width = 570;
}
);
leftKerningGroup = Z;
rightKerningGroup = Z;
unicode = 005A;
},
{
color = 10;
glyphname = Ismall;
lastChange = "2025-09-15 17:33:51 +0000";
layers = (
{
layerId = "FD4D3FDD-DE85-408F-A52A-FF600B1C6101";
paths = (
{
closed = 1;
nodes = (
"78 520 LINE",
"75 478 LINE",
"189 478 LINE",
"159 42 LINE",
"45 42 LINE",
"42 0 LINE",
"317 0 LINE",
"320 42 LINE",
"207 42 LINE",
"237 478 LINE",
"350 478 LINE",
"353 520 LINE"
);
}
);
width = 395;
},
{
layerId = m002;
paths = (
{
closed = 1;
nodes = (
"68 520 LINE",
"58 370 LINE",
"167 370 LINE",
"151 150 LINE",
"42 150 LINE",
"32 0 LINE",
"407 0 LINE",
"417 150 LINE",
"309 150 LINE",
"325 370 LINE",
"433 370 LINE",
"443 520 LINE"
);
}
);
width = 475;
}
);
leftKerningGroup = n;
leftMetricsKey = idotless;
rightKerningGroup = n;
rightMetricsKey = idotless;
unicode = 026A;
},
{
glyphname = a;
lastChange = "2025-09-15 19:24:57 +0000";
layers = (
{
anchors = (
{
name = Bottom;
position = "{272, 0}";
},
{
name = Ogonek;
position = "{433, 0}";
},
{
name = Top;
position = "{321, 532}";
}
);
background = {
paths = (
{
closed = 1;
nodes = (
"521 297 LINE",
"401 297 LINE SMOOTH",
"257 297 OFFCURVE",
"172 236 OFFCURVE",
"172 132 CURVE SMOOTH",
"172 45 OFFCURVE",
"240 -13 OFFCURVE",
"342 -13 CURVE SMOOTH",
"426 -13 OFFCURVE",
"493 25 OFFCURVE",
"521 88 CURVE",
"523 88 LINE",
"531 0 LINE",
"569 0 LINE",
"569 364 LINE SMOOTH",
"569 470 OFFCURVE",
"505 532 OFFCURVE",
"396 532 CURVE SMOOTH",
"275 532 OFFCURVE",
"203 476 OFFCURVE",
"203 382 CURVE",
"251 382 LINE",
"251 450 OFFCURVE",
"304 490 OFFCURVE",
"394 490 CURVE SMOOTH",
"474 490 OFFCURVE",
"521 446 OFFCURVE",
"521 372 CURVE SMOOTH"
);
},
{
closed = 1;
nodes = (
"224 214 OFFCURVE",
"286 257 OFFCURVE",
"406 257 CURVE SMOOTH",
"520 257 LINE",
"520 212 LINE SMOOTH",
"520 96 OFFCURVE",
"454 28 OFFCURVE",
"342 28 CURVE SMOOTH",
"271 28 OFFCURVE",
"224 69 OFFCURVE",
"224 131 CURVE SMOOTH"
);
},
{
closed = 1;
nodes = (
"501 90 LINE",
"501 45 OFFCURVE",
"514 25 QCURVE SMOOTH",
"530 0 OFFCURVE",
"575 0 QCURVE SMOOTH",
"597 0 OFFCURVE",
"616 4 QCURVE",
"616 57 LINE",
"606 53 OFFCURVE",
"596 53 QCURVE SMOOTH",
"559 53 OFFCURVE",
"559 91 QCURVE"
);
}
);
};
layerId = "FD4D3FDD-DE85-408F-A52A-FF600B1C6101";
paths = (
{
closed = 1;
nodes = (
"332 -13 OFFCURVE",
"396 20 OFFCURVE",
"427 77 CURVE",
"429 78 LINE",
"414 0 LINE",
"472 0 LINE",
"508 520 LINE",
"460 520 LINE",
"459 427 LINE",
"456 426 LINE",
"431 493 OFFCURVE",
"365 532 OFFCURVE",
"280 532 CURVE SMOOTH",
"135 532 OFFCURVE",
"49 419 OFFCURVE",
"49 227 CURVE SMOOTH",
"49 76 OFFCURVE",
"126 -13 OFFCURVE",
"255 -13 CURVE SMOOTH"
);
},
{
closed = 1;
nodes = (
"97 393 OFFCURVE",
"167 490 OFFCURVE",
"285 490 CURVE SMOOTH",
"384 490 OFFCURVE",
"443 417 OFFCURVE",
"443 293 CURVE SMOOTH",
"443 127 OFFCURVE",
"373 29 OFFCURVE",
"255 29 CURVE SMOOTH",
"156 29 OFFCURVE",
"97 103 OFFCURVE",
"97 229 CURVE SMOOTH"
);
}
);
width = 550;
},
{
anchors = (
{
name = Bottom;
position = "{335, 0}";
},
{
name = Ogonek;
position = "{518, 0}";
},
{
name = Top;
position = "{371, 532}";
}
);
background = {
paths = (
{
closed = 1;
nodes = (
"463 297 LINE",
"343 297 LINE SMOOTH",
"199 297 OFFCURVE",
"114 236 OFFCURVE",
"114 132 CURVE SMOOTH",
"114 45 OFFCURVE",
"182 -13 OFFCURVE",
"284 -13 CURVE SMOOTH",
"368 -13 OFFCURVE",
"435 25 OFFCURVE",
"463 88 CURVE",
"465 88 LINE",
"473 0 LINE",
"511 0 LINE",
"511 364 LINE SMOOTH",
"511 470 OFFCURVE",
"447 532 OFFCURVE",
"338 532 CURVE SMOOTH",
"217 532 OFFCURVE",
"145 476 OFFCURVE",
"145 382 CURVE",
"193 382 LINE",
"193 450 OFFCURVE",
"246 490 OFFCURVE",
"336 490 CURVE SMOOTH",
"416 490 OFFCURVE",
"463 446 OFFCURVE",
"463 372 CURVE SMOOTH"
);
},
{
closed = 1;
nodes = (
"166 214 OFFCURVE",
"228 257 OFFCURVE",
"348 257 CURVE SMOOTH",
"462 257 LINE",
"462 212 LINE SMOOTH",
"462 96 OFFCURVE",
"396 28 OFFCURVE",
"284 28 CURVE SMOOTH",
"213 28 OFFCURVE",
"166 69 OFFCURVE",
"166 131 CURVE SMOOTH"
);
},
{
closed = 1;
nodes = (
"443 90 LINE",
"443 45 OFFCURVE",
"456 25 QCURVE SMOOTH",
"472 0 OFFCURVE",
"517 0 QCURVE SMOOTH",
"539 0 OFFCURVE",
"558 4 QCURVE",
"558 57 LINE",
"548 53 OFFCURVE",
"538 53 QCURVE SMOOTH",
"501 53 OFFCURVE",
"501 91 QCURVE"
);
}
);
};
layerId = m002;
paths = (
{
closed = 1;
nodes = (
"317 -13 OFFCURVE",
"360 8 OFFCURVE",
"392 38 CURVE",
"394 37 LINE",
"381 0 LINE",
"590 0 LINE",
"626 520 LINE",
"428 520 LINE",
"432 497 LINE",
"430 496 LINE",
"402 519 OFFCURVE",
"356 532 OFFCURVE",
"309 532 CURVE SMOOTH",
"133 532 OFFCURVE",
"29 422 OFFCURVE",
"29 236 CURVE SMOOTH",
"29 79 OFFCURVE",
"119 -13 OFFCURVE",
"272 -13 CURVE SMOOTH"
);
},
{
closed = 1;
nodes = (
"237 325 OFFCURVE",
"275 375 OFFCURVE",
"339 375 CURVE SMOOTH",
"384 375 OFFCURVE",
"411 340 OFFCURVE",
"411 282 CURVE SMOOTH",
"411 199 OFFCURVE",
"374 150 OFFCURVE",
"311 150 CURVE SMOOTH",
"264 150 OFFCURVE",
"237 184 OFFCURVE",
"237 241 CURVE SMOOTH"
);
}
);
width = 658;
}
);
leftKerningGroup = o;
leftMetricsKey = o;
rightKerningGroup = n;
rightMetricsKey = n;
unicode = 0061;
},
{
color = 10;
glyphname = astroke;
lastChange = "2025-09-15 17:33:49 +0000";
layers = (
{
layerId = "FD4D3FDD-DE85-408F-A52A-FF600B1C6101";
paths = (
{
closed = 1;
nodes = (
"332 -13 OFFCURVE",
"396 20 OFFCURVE",
"427 77 CURVE",
"429 78 LINE",
"414 0 LINE",
"472 0 LINE",
"508 520 LINE",
"460 520 LINE",
"459 427 LINE",
"456 426 LINE",
"445 455 OFFCURVE",
"427 479 OFFCURVE",
"402 496 CURVE",
"429 558 LINE",
"377 558 LINE",
"360 519 LINE",
"336 527 OFFCURVE",
"309 532 OFFCURVE",
"280 532 CURVE SMOOTH",
"135 532 OFFCURVE",
"49 419 OFFCURVE",
"49 227 CURVE SMOOTH",
"49 128 OFFCURVE",
"82 55 OFFCURVE",
"142 17 CURVE",
"113 -50 LINE",
"164 -50 LINE",
"185 -3 LINE",
"206 -10 OFFCURVE",
"229 -13 OFFCURVE",
"255 -13 CURVE SMOOTH"
);
},
{
closed = 1;
nodes = (
"97 393 OFFCURVE",
"167 490 OFFCURVE",
"285 490 CURVE SMOOTH",
"306 490 OFFCURVE",
"326 487 OFFCURVE",
"343 480 CURVE",
"161 60 LINE",
"120 93 OFFCURVE",
"97 151 OFFCURVE",
"97 229 CURVE SMOOTH"
);
},
{
closed = 1;
nodes = (
"384 456 LINE",
"422 423 OFFCURVE",
"443 367 OFFCURVE",
"443 293 CURVE SMOOTH",
"443 127 OFFCURVE",
"373 29 OFFCURVE",
"255 29 CURVE SMOOTH",
"236 29 OFFCURVE",
"218 32 OFFCURVE",
"202 37 CURVE"
);
}
);
width = 550;
},
{
layerId = m002;
paths = (
{
closed = 1;
nodes = (
"315 -13 OFFCURVE",
"361 5 OFFCURVE",
"394 38 CURVE",
"394 40 LINE",
"381 0 LINE",
"590 0 LINE",
"626 520 LINE",
"428 520 LINE",
"432 497 LINE",
"427 496 LINE",
"424 499 OFFCURVE",
"420 502 OFFCURVE",
"416 504 CURVE",
"441 558 LINE",
"389 558 LINE",
"372 523 LINE",
"353 528 OFFCURVE",
"333 532 OFFCURVE",
"309 532 CURVE SMOOTH",
"145 532 OFFCURVE",
"42 433 OFFCURVE",
"30 266 CURVE SMOOTH",
"21 138 OFFCURVE",
"67 50 OFFCURVE",
"153 11 CURVE",
"124 -50 LINE",
"177 -50 LINE",
"198 -4 LINE",
"220 -9 OFFCURVE",
"244 -13 OFFCURVE",
"272 -13 CURVE SMOOTH"
);
},
{
closed = 1;
nodes = (
"241 310 OFFCURVE",
"264 353 OFFCURVE",
"304 366 CURVE SMOOTH",
"307 369 OFFCURVE",
"308 370 OFFCURVE",
"311 371 CURVE",
"239 213 LINE",
"237 225 OFFCURVE",
"237 242 OFFCURVE",
"238 256 CURVE SMOOTH"
);
},
{
closed = 1;
nodes = (
"362 372 LINE",
"398 361 OFFCURVE",
"414 323 OFFCURVE",
"410 266 CURVE SMOOTH",
"405 193 OFFCURVE",
"368 150 OFFCURVE",
"311 150 CURVE SMOOTH",
"295 150 OFFCURVE",
"280 154 OFFCURVE",
"267 163 CURVE"
);
}
);
width = 658;
}
);
leftKerningGroup = o;
leftMetricsKey = a;
rightKerningGroup = n;
rightMetricsKey = a;
unicode = 2C65;
},
{
color = 10;
glyphname = ae;
lastChange = "2025-09-15 17:33:47 +0000";
layers = (
{
anchors = (
{
name = Top;
position = "{497, 532}";
}
);
layerId = "FD4D3FDD-DE85-408F-A52A-FF600B1C6101";
paths = (
{
closed = 1;
nodes = (
"531 413 OFFCURVE",
"600 490 OFFCURVE",
"694 490 CURVE SMOOTH",
"808 490 OFFCURVE",
"852 405 OFFCURVE",
"849 296 CURVE",
"510 294 LINE"
);
},
{
closed = 1;
nodes = (
"332 -13 OFFCURVE",
"396 20 OFFCURVE",
"427 77 CURVE",
"429 78 LINE",
"414 0 LINE",
"472 0 LINE",
"479 105 LINE",
"512 32 OFFCURVE",
"578 -13 OFFCURVE",
"665 -13 CURVE SMOOTH",
"769 -13 OFFCURVE",
"857 55 OFFCURVE",
"883 158 CURVE",
"835 160 LINE",
"813 82 OFFCURVE",
"746 29 OFFCURVE",
"666 29 CURVE SMOOTH",
"543 29 OFFCURVE",
"493 147 OFFCURVE",
"505 254 CURVE",
"894 255 LINE",
"897 294 LINE SMOOTH",
"908 436 OFFCURVE",
"825 532 OFFCURVE",
"694 532 CURVE SMOOTH",
"611 532 OFFCURVE",
"542 487 OFFCURVE",
"500 412 CURVE",
"508 520 LINE",
"460 520 LINE",
"459 427 LINE",
"456 426 LINE",
"431 493 OFFCURVE",
"365 532 OFFCURVE",
"280 532 CURVE SMOOTH",
"135 532 OFFCURVE",
"49 419 OFFCURVE",
"49 227 CURVE SMOOTH",
"49 76 OFFCURVE",
"126 -13 OFFCURVE",
"255 -13 CURVE SMOOTH"
);
},
{
closed = 1;
nodes = (
"97 393 OFFCURVE",
"167 490 OFFCURVE",
"285 490 CURVE SMOOTH",
"384 490 OFFCURVE",
"443 417 OFFCURVE",
"443 293 CURVE SMOOTH",
"443 127 OFFCURVE",
"373 29 OFFCURVE",
"255 29 CURVE SMOOTH",
"156 29 OFFCURVE",
"97 103 OFFCURVE",
"97 229 CURVE SMOOTH"
);
}
);
width = 945;
},
{
anchors = (
{
name = Top;
position = "{591, 532}";
}
);
layerId = m002;
paths = (
{
closed = 1;
nodes = (
"763 367 OFFCURVE",
"796 395 OFFCURVE",
"838 395 CURVE SMOOTH",
"875 395 OFFCURVE",
"896 371 OFFCURVE",
"901 326 CURVE",
"746 322 LINE"
);
},
{
closed = 1;
nodes = (
"317 -13 OFFCURVE",
"360 8 OFFCURVE",
"392 38 CURVE",
"394 37 LINE",
"381 0 LINE",
"590 0 LINE",
"594 63 LINE",
"640 14 OFFCURVE",
"711 -13 OFFCURVE",
"803 -13 CURVE SMOOTH",
"955 -13 OFFCURVE",
"1064 55 OFFCURVE",
"1096 173 CURVE",
"897 177 LINE",
"887 145 OFFCURVE",
"854 124 OFFCURVE",
"808 124 CURVE SMOOTH",
"765 124 OFFCURVE",
"739 155 OFFCURVE",
"733 212 CURVE",
"1094 214 LINE",
"1096 273 LINE SMOOTH",
"1096 435 OFFCURVE",
"1003 532 OFFCURVE",
"841 532 CURVE SMOOTH",
"749 532 OFFCURVE",
"674 506 OFFCURVE",
"622 459 CURVE",
"626 520 LINE",
"428 520 LINE",
"432 497 LINE",
"430 496 LINE",
"402 519 OFFCURVE",
"356 532 OFFCURVE",
"309 532 CURVE SMOOTH",
"133 532 OFFCURVE",
"29 422 OFFCURVE",
"29 236 CURVE SMOOTH",
"29 79 OFFCURVE",
"119 -13 OFFCURVE",
"272 -13 CURVE SMOOTH"
);
},
{
closed = 1;
nodes = (
"237 325 OFFCURVE",
"275 375 OFFCURVE",
"339 375 CURVE SMOOTH",
"384 375 OFFCURVE",
"411 340 OFFCURVE",
"411 282 CURVE SMOOTH",
"411 199 OFFCURVE",
"374 150 OFFCURVE",
"311 150 CURVE SMOOTH",
"264 150 OFFCURVE",
"237 184 OFFCURVE",
"237 241 CURVE SMOOTH"
);
}
);
width = 1132;
}
);
leftKerningGroup = o;
leftMetricsKey = a;
rightKerningGroup = o;
rightMetricsKey = e;
unicode = 00E6;
},
{
glyphname = b;
lastChange = "2025-09-15 19:25:32 +0000";
layers = (
{
anchors = (
{
name = Top;
position = "{307, 532}";
}
);
layerId = "FD4D3FDD-DE85-408F-A52A-FF600B1C6101";
paths = (
{
closed = 1;
nodes = (
"408 -13 OFFCURVE",
"499 102 OFFCURVE",
"499 296 CURVE SMOOTH",
"499 444 OFFCURVE",
"427 532 OFFCURVE",
"306 532 CURVE SMOOTH",
"221 532 OFFCURVE",
"151 492 OFFCURVE",
"116 427 CURVE",
"114 429 LINE",
"126 520 LINE",
"141 736 LINE",
"93 736 LINE",
"42 0 LINE",
"105 0 LINE",
"95 78 LINE",
"97 79 LINE",
"120 21 OFFCURVE",
"179 -13 OFFCURVE",
"255 -13 CURVE SMOOTH"
);
},
{
closed = 1;
nodes = (
"107 392 OFFCURVE",
"178 490 OFFCURVE",
"299 490 CURVE SMOOTH",
"395 490 OFFCURVE",
"451 417 OFFCURVE",
"451 294 CURVE SMOOTH",
"451 127 OFFCURVE",
"378 29 OFFCURVE",
"255 29 CURVE SMOOTH",
"162 29 OFFCURVE",
"107 103 OFFCURVE",
"107 227 CURVE SMOOTH"
);
}
);
width = 548;
},
{
anchors = (
{
name = Top;
position = "{385, 532}";
}
);
layerId = m002;
paths = (
{
closed = 1;
nodes = (
"523 -13 OFFCURVE",
"629 99 OFFCURVE",
"629 285 CURVE SMOOTH",
"629 441 OFFCURVE",
"537 532 OFFCURVE",
"377 532 CURVE SMOOTH",
"335 532 OFFCURVE",
"292 519 OFFCURVE",
"263 498 CURVE",
"260 498 LINE",
"268 549 LINE",
"281 736 LINE",
"83 736 LINE",
"32 0 LINE",
"237 0 LINE",
"219 37 LINE",
"221 37 LINE",
"245 7 OFFCURVE",
"297 -13 OFFCURVE",
"352 -13 CURVE SMOOTH"
);
},
{
closed = 1;
nodes = (
"247 337 OFFCURVE",
"287 400 OFFCURVE",
"348 400 CURVE SMOOTH",
"395 400 OFFCURVE",
"421 359 OFFCURVE",
"421 289 CURVE SMOOTH",
"421 184 OFFCURVE",
"381 121 OFFCURVE",
"320 121 CURVE SMOOTH",
"273 121 OFFCURVE",
"247 162 OFFCURVE",
"247 233 CURVE SMOOTH"
);
}
);
width = 658;
}
);
leftKerningGroup = h;
leftMetricsKey = n;
rightKerningGroup = o;
rightMetricsKey = o;
unicode = 0062;
},
{
glyphname = c;
lastChange = "2025-09-15 17:20:13 +0000";
layers = (
{
anchors = (
{
name = Bottom;
position = "{248, 0}";
},
{
name = Top;
position = "{285, 532}";
}
);
layerId = "FD4D3FDD-DE85-408F-A52A-FF600B1C6101";
paths = (
{
closed = 1;
nodes = (
"398 156 LINE",
"383 80 OFFCURVE",
"323 29 OFFCURVE",
"248 29 CURVE SMOOTH",
"157 29 OFFCURVE",
"97 109 OFFCURVE",
"97 229 CURVE SMOOTH",
"97 386 OFFCURVE",
"171 490 OFFCURVE",
"283 490 CURVE SMOOTH",
"361 490 OFFCURVE",
"416 439 OFFCURVE",
"421 362 CURVE",
"469 360 LINE",
"465 463 OFFCURVE",
"391 532 OFFCURVE",
"284 532 CURVE SMOOTH",
"143 532 OFFCURVE",
"49 410 OFFCURVE",
"49 228 CURVE SMOOTH",
"49 83 OFFCURVE",
"129 -13 OFFCURVE",
"248 -13 CURVE SMOOTH",
"350 -13 OFFCURVE",
"429 54 OFFCURVE",
"446 154 CURVE"
);
}
);
width = 512;
},
{
anchors = (
{
name = Bottom;
position = "{288, 0}";
},
{
name = Top;
position = "{330, 532}";
}
);
layerId = m002;
paths = (
{
closed = 1;
nodes = (
"362 212 LINE",
"355 172 OFFCURVE",
"331 149 OFFCURVE",
"299 149 CURVE SMOOTH",
"256 149 OFFCURVE",
"233 188 OFFCURVE",
"237 254 CURVE SMOOTH",
"242 327 OFFCURVE",
"274 370 OFFCURVE",
"323 370 CURVE SMOOTH",
"355 370 OFFCURVE",
"375 347 OFFCURVE",
"377 308 CURVE",
"585 304 LINE",
"579 447 OFFCURVE",
"482 532 OFFCURVE",
"325 532 CURVE SMOOTH",
"152 532 OFFCURVE",
"42 432 OFFCURVE",
"30 264 CURVE SMOOTH",
"18 90 OFFCURVE",
"115 -13 OFFCURVE",
"291 -13 CURVE SMOOTH",
"443 -13 OFFCURVE",
"546 69 OFFCURVE",
"570 208 CURVE"
);
}
);
width = 612;
}
);
leftKerningGroup = o;
leftMetricsKey = o;
rightKerningGroup = c;
rightMetricsKey = o;
unicode = 0063;
},
{
color = 10;
glyphname = "chi-latin";
lastChange = "2025-09-15 17:34:03 +0000";
layers = (
{
layerId = "FD4D3FDD-DE85-408F-A52A-FF600B1C6101";
paths = (
{
closed = 1;
nodes = (
"364 152 LINE",
"589 520 LINE",
"534 520 LINE",
"342 206 LINE",
"266 393 LINE SMOOTH",
"228 486 OFFCURVE",
"181 532 OFFCURVE",
"106 532 CURVE SMOOTH",
"90 532 OFFCURVE",
"72 529 OFFCURVE",
"58 524 CURVE",
"55 476 LINE",
"67 482 OFFCURVE",
"89 485 OFFCURVE",
"109 485 CURVE SMOOTH",
"156 485 OFFCURVE",
"188 452 OFFCURVE",
"211 395 CURVE SMOOTH",
"309 153 LINE",
"83 -217 LINE",
"139 -217 LINE",
"332 99 LINE",
"410 -94 LINE SMOOTH",
"448 -186 OFFCURVE",
"490 -233 OFFCURVE",
"566 -233 CURVE SMOOTH",
"581 -233 OFFCURVE",
"599 -230 OFFCURVE",
"613 -225 CURVE",
"616 -177 LINE",
"604 -183 OFFCURVE",
"582 -186 OFFCURVE",
"562 -186 CURVE SMOOTH",
"515 -186 OFFCURVE",
"488 -153 OFFCURVE",
"465 -96 CURVE SMOOTH"
);
}
);
width = 687;
},
{
layerId = m002;
paths = (
{
closed = 1;
nodes = (
"482 153 LINE",
"737 520 LINE",
"509 520 LINE",
"372 322 LINE",
"346 361 LINE SMOOTH",
"280 461 OFFCURVE",
"234 532 OFFCURVE",
"121 532 CURVE SMOOTH",
"103 532 OFFCURVE",
"68 528 OFFCURVE",
"48 522 CURVE",
"40 360 LINE",
"53 363 OFFCURVE",
"60 365 OFFCURVE",
"80 365 CURVE SMOOTH",
"95 365 OFFCURVE",
"117 358 OFFCURVE",
"150 307 CURVE SMOOTH",
"253 150 LINE",
"-1 -217 LINE",
"226 -217 LINE",
"364 -19 LINE",
"392 -62 LINE SMOOTH",
"458 -163 OFFCURVE",
"505 -233 OFFCURVE",
"617 -233 CURVE SMOOTH",
"636 -233 OFFCURVE",
"670 -229 OFFCURVE",
"690 -223 CURVE",
"697 -61 LINE",
"684 -64 OFFCURVE",
"680 -66 OFFCURVE",
"660 -66 CURVE SMOOTH",
"645 -66 OFFCURVE",
"621 -59 OFFCURVE",
"588 -8 CURVE SMOOTH"
);
}
);
width = 754;
}
);
leftKerningGroup = x;
leftMetricsKey = x;
rightKerningGroup = x;
rightMetricsKey = x;
unicode = AB53;
},
{
color = 10;
glyphname = cstroke;
lastChange = "2025-09-15 17:33:45 +0000";
layers = (
{
layerId = "FD4D3FDD-DE85-408F-A52A-FF600B1C6101";
paths = (
{
closed = 1;
nodes = (
"398 156 LINE",
"383 80 OFFCURVE",
"323 29 OFFCURVE",
"248 29 CURVE SMOOTH",
"228 29 OFFCURVE",
"210 33 OFFCURVE",
"193 40 CURVE",
"376 458 LINE",
"402 436 OFFCURVE",
"418 403 OFFCURVE",
"421 362 CURVE",
"469 360 LINE",
"467 422 OFFCURVE",
"439 471 OFFCURVE",
"394 501 CURVE",
"419 558 LINE",
"367 558 LINE",
"351 522 LINE",
"331 528 OFFCURVE",
"308 532 OFFCURVE",
"284 532 CURVE SMOOTH",
"143 532 OFFCURVE",
"49 410 OFFCURVE",
"49 228 CURVE SMOOTH",
"49 136 OFFCURVE",
"81 64 OFFCURVE",
"135 23 CURVE",
"103 -50 LINE",
"154 -50 LINE",
"176 0 LINE",
"198 -8 OFFCURVE",
"222 -13 OFFCURVE",
"248 -13 CURVE SMOOTH",
"350 -13 OFFCURVE",
"429 54 OFFCURVE",
"446 154 CURVE"
);
},
{
closed = 1;
nodes = (
"97 386 OFFCURVE",
"171 490 OFFCURVE",
"283 490 CURVE SMOOTH",
"301 490 OFFCURVE",
"318 487 OFFCURVE",
"334 482 CURVE",
"154 67 LINE",
"118 101 OFFCURVE",
"97 158 OFFCURVE",
"97 229 CURVE SMOOTH"
);
}
);
width = 512;
},
{
layerId = m002;
paths = (
{
closed = 1;
nodes = (
"362 212 LINE",
"355 174 OFFCURVE",
"331 149 OFFCURVE",
"299 149 CURVE SMOOTH",
"294 149 OFFCURVE",
"288 149 OFFCURVE",
"282 151 CURVE",
"369 345 LINE",
"374 335 OFFCURVE",
"377 323 OFFCURVE",
"377 308 CURVE",
"585 304 LINE",
"580 408 OFFCURVE",
"527 481 OFFCURVE",
"439 513 CURVE",
"461 558 LINE",
"409 558 LINE",
"393 526 LINE",
"373 530 OFFCURVE",
"351 532 OFFCURVE",
"325 532 CURVE SMOOTH",
"142 532 OFFCURVE",
"29 422 OFFCURVE",
"29 236 CURVE SMOOTH",
"29 121 OFFCURVE",
"81 41 OFFCURVE",
"172 7 CURVE",
"144 -50 LINE",
"197 -50 LINE",
"218 -5 LINE",
"239 -10 OFFCURVE",
"263 -13 OFFCURVE",
"291 -13 CURVE SMOOTH",
"442 -13 OFFCURVE",
"546 68 OFFCURVE",
"570 208 CURVE"
);
},
{
closed = 1;
nodes = (
"236 321 OFFCURVE",
"272 370 OFFCURVE",
"323 370 CURVE SMOOTH",
"324 370 OFFCURVE",
"327 371 OFFCURVE",
"330 370 CURVE",
"246 183 LINE",
"240 198 OFFCURVE",
"236 217 OFFCURVE",
"236 238 CURVE SMOOTH"
);
}
);
width = 612;
}
);
leftKerningGroup = o;
leftMetricsKey = c;
rightKerningGroup = c;
rightMetricsKey = c;
unicode = 023C;
},
{
glyphname = d;
lastChange = "2025-09-15 17:20:18 +0000";
layers = (
{
anchors = (
{
name = Bottom;
position = "{258, 0}";
},
{
name = Top;
position = "{289, 532}";
},
{
name = Top_EC;
position = "{564, 532}";
}
);
layerId = "FD4D3FDD-DE85-408F-A52A-FF600B1C6101";
paths = (
{
closed = 1;
nodes = (
"332 -13 OFFCURVE",
"394 20 OFFCURVE",
"425 77 CURVE",
"427 78 LINE",
"407 0 LINE",
"470 0 LINE",
"521 736 LINE",
"473 736 LINE",
"458 520 LINE",
"457 427 LINE",
"454 426 LINE",
"429 493 OFFCURVE",
"363 532 OFFCURVE",
"278 532 CURVE SMOOTH",
"134 532 OFFCURVE",
"49 419 OFFCURVE",
"49 228 CURVE SMOOTH",
"49 77 OFFCURVE",
"126 -13 OFFCURVE",
"257 -13 CURVE SMOOTH"
);
},
{
closed = 1;
nodes = (
"97 393 OFFCURVE",
"166 490 OFFCURVE",
"283 490 CURVE SMOOTH",
"382 490 OFFCURVE",
"441 417 OFFCURVE",
"441 293 CURVE SMOOTH",
"441 127 OFFCURVE",
"373 29 OFFCURVE",
"257 29 CURVE SMOOTH",
"156 29 OFFCURVE",
"97 103 OFFCURVE",
"97 229 CURVE SMOOTH"
);
}
);
width = 548;
},
{
anchors = (
{
name = Bottom;
position = "{359, 0}";
},
{
name = Top;
position = "{371, 532}";
},
{
name = Top_EC;
position = "{719, 500}";
}
);
layerId = m002;
paths = (
{
closed = 1;
nodes = (
"332 -13 OFFCURVE",
"382 5 OFFCURVE",
"405 35 CURVE",
"408 35 LINE",
"385 0 LINE",
"590 0 LINE",
"641 736 LINE",
"443 736 LINE",
"430 549 LINE",
"432 497 LINE",
"429 497 LINE",
"401 520 OFFCURVE",
"356 532 OFFCURVE",
"309 532 CURVE SMOOTH",
"133 532 OFFCURVE",
"29 422 OFFCURVE",
"29 236 CURVE SMOOTH",
"29 79 OFFCURVE",
"121 -13 OFFCURVE",
"276 -13 CURVE SMOOTH"
);
},
{
closed = 1;
nodes = (
"237 338 OFFCURVE",
"275 400 OFFCURVE",
"338 400 CURVE SMOOTH",
"384 400 OFFCURVE",
"411 359 OFFCURVE",
"411 289 CURVE SMOOTH",
"411 183 OFFCURVE",
"373 121 OFFCURVE",
"310 121 CURVE SMOOTH",
"264 121 OFFCURVE",
"237 163 OFFCURVE",
"237 233 CURVE SMOOTH"
);
}
);
width = 658;
}
);
leftKerningGroup = o;
leftMetricsKey = o;
rightKerningGroup = n;
rightMetricsKey = n;
unicode = 0064;
},
{
color = 10;
glyphname = eth;
lastChange = "2025-09-15 17:20:20 +0000";
layers = (
{
layerId = "FD4D3FDD-DE85-408F-A52A-FF600B1C6101";
paths = (
{
closed = 1;
nodes = (
"379 -12 OFFCURVE",
"477 109 OFFCURVE",
"490 290 CURVE SMOOTH",
"499 429 OFFCURVE",
"439 560 OFFCURVE",
"332 649 CURVE",
"403 704 LINE",
"381 731 LINE",
"304 670 LINE",
"269 695 OFFCURVE",
"230 715 OFFCURVE",
"188 731 CURVE",
"159 695 LINE",
"198 682 OFFCURVE",
"235 663 OFFCURVE",
"268 641 CURVE",
"197 585 LINE",
"217 559 LINE",
"296 621 LINE",
"348 581 OFFCURVE",
"386 532 OFFCURVE",
"403 483 CURVE",
"400 481 LINE",
"375 512 OFFCURVE",
"328 532 OFFCURVE",
"282 532 CURVE SMOOTH",
"142 532 OFFCURVE",
"49 410 OFFCURVE",
"49 227 CURVE SMOOTH",
"49 84 OFFCURVE",
"128 -12 OFFCURVE",
"246 -12 CURVE SMOOTH"
);
},
{
closed = 1;
nodes = (
"97 386 OFFCURVE",
"171 490 OFFCURVE",
"281 490 CURVE SMOOTH",
"372 490 OFFCURVE",
"433 410 OFFCURVE",
"433 290 CURVE SMOOTH",
"433 134 OFFCURVE",
"359 30 OFFCURVE",
"247 30 CURVE SMOOTH",
"157 30 OFFCURVE",
"97 110 OFFCURVE",
"97 229 CURVE SMOOTH"
);
}
);
width = 538;
},
{
layerId = m002;
paths = (
{
closed = 1;
nodes = (
"450 -12 OFFCURVE",
"571 120 OFFCURVE",
"571 313 CURVE SMOOTH",
"571 452 OFFCURVE",
"500 579 OFFCURVE",
"383 667 CURVE",
"439 710 LINE",
"383 777 LINE",
"305 715 LINE",
"280 729 OFFCURVE",
"252 741 OFFCURVE",
"223 751 CURVE",
"138 648 LINE",
"158 641 OFFCURVE",
"176 634 OFFCURVE",
"193 626 CURVE",
"139 583 LINE",
"193 517 LINE",
"274 580 LINE",
"296 565 OFFCURVE",
"317 550 OFFCURVE",
"335 533 CURVE",
"329 530 LINE",
"324 531 OFFCURVE",
"318 532 OFFCURVE",
"308 532 CURVE SMOOTH",
"146 532 OFFCURVE",
"29 413 OFFCURVE",
"29 239 CURVE SMOOTH",
"29 87 OFFCURVE",
"127 -12 OFFCURVE",
"279 -12 CURVE SMOOTH"
);
},
{
closed = 1;
nodes = (
"197 320 OFFCURVE",
"243 370 OFFCURVE",
"306 370 CURVE SMOOTH",
"359 370 OFFCURVE",
"392 333 OFFCURVE",
"392 277 CURVE SMOOTH",
"392 201 OFFCURVE",
"347 150 OFFCURVE",
"282 150 CURVE SMOOTH",
"229 150 OFFCURVE",
"197 188 OFFCURVE",
"197 245 CURVE SMOOTH"
);
}
);
width = 598;
}
);
leftKerningGroup = o;
leftMetricsKey = d;
rightKerningGroup = o;
rightMetricsKey = o;
unicode = 00F0;
},
{
color = 10;
glyphname = dcroat;
lastChange = "2025-09-15 17:20:21 +0000";
layers = (
{
layerId = "FD4D3FDD-DE85-408F-A52A-FF600B1C6101";
paths = (
{
closed = 1;
nodes = (
"465 619 LINE",
"458 520 LINE",
"457 427 LINE",
"454 426 LINE",
"429 493 OFFCURVE",
"363 532 OFFCURVE",
"278 532 CURVE SMOOTH",
"134 532 OFFCURVE",
"49 419 OFFCURVE",
"49 228 CURVE SMOOTH",
"49 77 OFFCURVE",
"126 -13 OFFCURVE",
"257 -13 CURVE SMOOTH",
"332 -13 OFFCURVE",
"394 20 OFFCURVE",
"425 77 CURVE",
"427 78 LINE",
"407 0 LINE",
"470 0 LINE",
"513 619 LINE",
"606 619 LINE",
"609 664 LINE",
"516 659 LINE",
"521 736 LINE",
"473 736 LINE",
"468 661 LINE",
"334 661 LINE",
"331 619 LINE"
);
},
{
closed = 1;
nodes = (
"97 393 OFFCURVE",
"166 490 OFFCURVE",
"283 490 CURVE SMOOTH",
"382 490 OFFCURVE",
"441 417 OFFCURVE",
"441 293 CURVE SMOOTH",
"441 127 OFFCURVE",
"373 29 OFFCURVE",
"257 29 CURVE SMOOTH",
"156 29 OFFCURVE",
"97 103 OFFCURVE",
"97 229 CURVE SMOOTH"
);
}
);
width = 641;
},
{
layerId = m002;
paths = (
{
closed = 1;
nodes = (
"433 587 LINE",
"430 549 LINE",
"432 497 LINE",
"429 497 LINE",
"401 520 OFFCURVE",
"356 532 OFFCURVE",
"309 532 CURVE SMOOTH",
"133 532 OFFCURVE",
"29 422 OFFCURVE",
"29 236 CURVE SMOOTH",
"29 79 OFFCURVE",
"121 -13 OFFCURVE",
"276 -13 CURVE SMOOTH",
"332 -13 OFFCURVE",
"382 5 OFFCURVE",
"405 35 CURVE",
"408 35 LINE",
"385 0 LINE",
"590 0 LINE",
"631 587 LINE",
"704 587 LINE",
"711 690 LINE",
"638 685 LINE",
"641 736 LINE",
"443 736 LINE",
"440 687 LINE",
"366 687 LINE",
"359 587 LINE"
);
},
{
closed = 1;
nodes = (
"237 338 OFFCURVE",
"275 400 OFFCURVE",
"338 400 CURVE SMOOTH",
"384 400 OFFCURVE",
"411 359 OFFCURVE",
"411 289 CURVE SMOOTH",
"411 183 OFFCURVE",
"373 121 OFFCURVE",
"310 121 CURVE SMOOTH",
"264 121 OFFCURVE",
"237 163 OFFCURVE",
"237 233 CURVE SMOOTH"
);
}
);
width = 731;
}
);
leftKerningGroup = o;
leftMetricsKey = o;
rightKerningGroup = dcroat;
rightMetricsKey = n;
unicode = 0111;
},
{
glyphname = e;
lastChange = "2025-09-15 19:32:12 +0000";
layers = (
{
anchors = (
{
name = Bottom;
position = "{262, 0}";
},
{
name = Top;
position = "{287, 532}";
}
);
layerId = "FD4D3FDD-DE85-408F-A52A-FF600B1C6101";
paths = (
{
closed = 1;
nodes = (
"427 160 LINE",
"404 78 OFFCURVE",
"341 29 OFFCURVE",
"258 29 CURVE SMOOTH",
"128 29 OFFCURVE",
"86 151 OFFCURVE",
"97 255 CURVE",
"487 256 LINE",
"489 287 OFFCURVE",
"490 313 OFFCURVE",
"490 324 CURVE SMOOTH",
"490 455 OFFCURVE",
"414 532 OFFCURVE",
"286 532 CURVE SMOOTH",
"137 532 OFFCURVE",
"49 420 OFFCURVE",
"49 230 CURVE SMOOTH",
"49 77 OFFCURVE",
"126 -13 OFFCURVE",
"257 -13 CURVE SMOOTH",
"366 -13 OFFCURVE",
"447 51 OFFCURVE",
"475 158 CURVE"
);
},
{
closed = 1;
nodes = (
"122 418 OFFCURVE",
"190 490 OFFCURVE",
"286 490 CURVE SMOOTH",
"398 490 OFFCURVE",
"456 419 OFFCURVE",
"442 299 CURVE",
"102 297 LINE"
);
}
);
width = 537;
},
{
anchors = (
{
name = Bottom;
position = "{340, 0}";
},
{
name = Top;
position = "{332, 532}";
}
);
layerId = m002;
paths = (
{
closed = 1;
nodes = (
"392 177 LINE",
"382 144 OFFCURVE",
"352 124 OFFCURVE",
"313 124 CURVE SMOOTH",
"274 124 OFFCURVE",
"248 157 OFFCURVE",
"242 212 CURVE",
"589 214 LINE",
"590 238 OFFCURVE",
"591 260 OFFCURVE",
"591 273 CURVE SMOOTH",
"591 436 OFFCURVE",
"496 532 OFFCURVE",
"336 532 CURVE SMOOTH",
"143 532 OFFCURVE",
"29 422 OFFCURVE",
"29 236 CURVE SMOOTH",
"29 79 OFFCURVE",
"129 -13 OFFCURVE",
"298 -13 CURVE SMOOTH",
"450 -13 OFFCURVE",
"559 56 OFFCURVE",
"591 173 CURVE"
);
},
{
closed = 1;
nodes = (
"269 368 OFFCURVE",
"298 395 OFFCURVE",
"333 395 CURVE SMOOTH",
"363 395 OFFCURVE",
"383 369 OFFCURVE",
"387 326 CURVE",
"255 322 LINE"
);
}
);
width = 627;
}
);
leftKerningGroup = o;
leftMetricsKey = o;
rightKerningGroup = e;
rightMetricsKey = o;
unicode = 0065;
},
{
color = 10;
glyphname = eopen;
lastChange = "2025-09-15 17:20:27 +0000";
layers = (
{
layerId = "FD4D3FDD-DE85-408F-A52A-FF600B1C6101";
paths = (
{
closed = 1;
nodes = (
"89 205 OFFCURVE",
"141 250 OFFCURVE",
"228 250 CURVE SMOOTH",
"262 250 LINE",
"265 292 LINE",
"229 292 LINE SMOOTH",
"163 292 OFFCURVE",
"124 324 OFFCURVE",
"124 379 CURVE SMOOTH",
"124 449 OFFCURVE",
"169 490 OFFCURVE",
"245 490 CURVE SMOOTH",
"319 490 OFFCURVE",
"361 452 OFFCURVE",
"357 387 CURVE",
"405 385 LINE",
"411 477 OFFCURVE",
"352 532 OFFCURVE",
"246 532 CURVE SMOOTH",
"139 532 OFFCURVE",
"76 474 OFFCURVE",
"76 377 CURVE SMOOTH",
"76 325 OFFCURVE",
"100 286 OFFCURVE",
"140 272 CURVE",
"139 270 LINE",
"77 258 OFFCURVE",
"41 204 OFFCURVE",
"41 126 CURVE SMOOTH",
"41 39 OFFCURVE",
"103 -13 OFFCURVE",
"208 -13 CURVE SMOOTH",
"318 -13 OFFCURVE",
"387 43 OFFCURVE",
"393 137 CURVE",
"345 139 LINE",
"341 70 OFFCURVE",
"290 29 OFFCURVE",
"208 29 CURVE SMOOTH",
"133 29 OFFCURVE",
"89 66 OFFCURVE",
"89 129 CURVE SMOOTH"
);
}
);
width = 452;
},
{
layerId = m002;
paths = (
{
closed = 1;
nodes = (
"232 205 OFFCURVE",
"249 220 OFFCURVE",
"279 220 CURVE SMOOTH",
"302 220 LINE",
"309 316 LINE",
"285 316 LINE SMOOTH",
"270 316 OFFCURVE",
"261 323 OFFCURVE",
"261 334 CURVE SMOOTH",
"261 360 OFFCURVE",
"276 375 OFFCURVE",
"302 375 CURVE SMOOTH",
"323 375 OFFCURVE",
"334 359 OFFCURVE",
"332 333 CURVE",
"540 329 LINE",
"548 457 OFFCURVE",
"460 532 OFFCURVE",
"304 532 CURVE SMOOTH",
"156 532 OFFCURVE",
"63 471 OFFCURVE",
"55 369 CURVE SMOOTH",
"52 323 OFFCURVE",
"67 287 OFFCURVE",
"99 273 CURVE",
"99 271 LINE",
"53 257 OFFCURVE",
"23 216 OFFCURVE",
"23 160 CURVE SMOOTH",
"23 51 OFFCURVE",
"114 -13 OFFCURVE",
"268 -13 CURVE SMOOTH",
"433 -13 OFFCURVE",
"536 64 OFFCURVE",
"545 194 CURVE",
"338 198 LINE",
"335 164 OFFCURVE",
"310 144 OFFCURVE",
"270 144 CURVE SMOOTH",
"246 144 OFFCURVE",
"232 157 OFFCURVE",
"232 179 CURVE SMOOTH"
);
}
);
width = 580;
}
);
leftKerningGroup = o;
leftMetricsKey = o;
rightKerningGroup = o;
rightMetricsKey = o;
unicode = 025B;
},
{
color = 10;
glyphname = schwa;
lastChange = "2025-09-15 17:33:43 +0000";
layers = (
{
layerId = "FD4D3FDD-DE85-408F-A52A-FF600B1C6101";
paths = (
{
closed = 1;
nodes = (
"110 357 LINE",
"132 439 OFFCURVE",
"194 488 OFFCURVE",
"278 488 CURVE SMOOTH",
"374 488 OFFCURVE",
"430 417 OFFCURVE",
"430 296 CURVE SMOOTH",
"430 278 OFFCURVE",
"430 276 OFFCURVE",
"429 263 CURVE",
"50 263 LINE",
"48 242 OFFCURVE",
"47 223 OFFCURVE",
"47 212 CURVE SMOOTH",
"47 71 OFFCURVE",
"117 -13 OFFCURVE",
"236 -13 CURVE SMOOTH",
"388 -13 OFFCURVE",
"478 102 OFFCURVE",
"478 297 CURVE SMOOTH",
"478 443 OFFCURVE",
"404 530 OFFCURVE",
"280 530 CURVE SMOOTH",
"170 530 OFFCURVE",
"89 466 OFFCURVE",
"62 359 CURVE"
);
},
{
closed = 1;
nodes = (
"424 224 LINE",
"405 101 OFFCURVE",
"335 29 OFFCURVE",
"235 29 CURVE SMOOTH",
"137 29 OFFCURVE",
"85 101 OFFCURVE",
"95 222 CURVE"
);
}
);
width = 527;
},
{
layerId = m002;
paths = (
{
closed = 1;
nodes = (
"235 342 LINE",
"245 374 OFFCURVE",
"279 395 OFFCURVE",
"325 395 CURVE SMOOTH",
"367 395 OFFCURVE",
"400 368 OFFCURVE",
"400 312 CURVE",
"400 311 OFFCURVE",
"400 309 OFFCURVE",
"400 307 CURVE",
"39 305 LINE",
"36 267 OFFCURVE",
"36 256 OFFCURVE",
"36 246 CURVE SMOOTH",
"36 84 OFFCURVE",
"129 -13 OFFCURVE",
"291 -13 CURVE SMOOTH",
"483 -13 OFFCURVE",
"598 98 OFFCURVE",
"598 285 CURVE SMOOTH",
"598 441 OFFCURVE",
"500 532 OFFCURVE",
"329 532 CURVE SMOOTH",
"178 532 OFFCURVE",
"69 464 OFFCURVE",
"36 346 CURVE"
);
},
{
closed = 1;
nodes = (
"387 197 LINE",
"370 152 OFFCURVE",
"337 124 OFFCURVE",
"295 124 CURVE SMOOTH",
"258 124 OFFCURVE",
"237 148 OFFCURVE",
"232 193 CURVE"
);
}
);
width = 627;
}
);
leftKerningGroup = o;
leftMetricsKey = e;
rightKerningGroup = o;
rightMetricsKey = e;
unicode = 0259;
},
{
color = 10;
glyphname = ezh;
lastChange = "2025-09-15 17:20:28 +0000";
layers = (
{
anchors = (
{
name = Top;
position = "{298, 520}";
}
);
layerId = "FD4D3FDD-DE85-408F-A52A-FF600B1C6101";
paths = (
{
closed = 1;
nodes = (
"87 478 LINE",
"438 478 LINE",
"255 275 LINE",
"255 233 LINE",
"289 233 LINE SMOOTH",
"382 233 OFFCURVE",
"444 169 OFFCURVE",
"444 72 CURVE SMOOTH",
"444 -50 OFFCURVE",
"368 -132 OFFCURVE",
"253 -132 CURVE SMOOTH",
"143 -132 OFFCURVE",
"75 -62 OFFCURVE",
"83 44 CURVE",
"35 46 LINE",
"26 -86 OFFCURVE",
"113 -174 OFFCURVE",
"253 -174 CURVE SMOOTH",
"396 -174 OFFCURVE",
"492 -76 OFFCURVE",
"492 72 CURVE SMOOTH",
"492 186 OFFCURVE",
"419 267 OFFCURVE",
"310 275 CURVE",
"494 478 LINE",
"497 520 LINE",
"90 520 LINE"
);
}
);
width = 556;
},
{
anchors = (
{
name = Top;
position = "{331, 520}";
}
);
layerId = m002;
paths = (
{
closed = 1;
nodes = (
"61 370 LINE",
"350 370 LINE",
"267 285 LINE",
"257 135 LINE",
"306 135 LINE SMOOTH",
"343 135 OFFCURVE",
"365 112 OFFCURVE",
"365 72 CURVE SMOOTH",
"365 19 OFFCURVE",
"337 -12 OFFCURVE",
"289 -12 CURVE SMOOTH",
"246 -12 OFFCURVE",
"222 16 OFFCURVE",
"225 63 CURVE",
"17 67 LINE",
"7 -84 OFFCURVE",
"107 -174 OFFCURVE",
"287 -174 CURVE SMOOTH",
"467 -174 OFFCURVE",
"573 -83 OFFCURVE",
"573 70 CURVE SMOOTH",
"573 157 OFFCURVE",
"527 228 OFFCURVE",
"449 260 CURVE",
"568 370 LINE",
"578 520 LINE",
"71 520 LINE"
);
}
);
width = 617;
}
);
leftKerningGroup = o;
leftMetricsKey = o;
rightKerningGroup = o;
rightMetricsKey = o;
unicode = 0292;
},
{
glyphname = f;
lastChange = "2025-09-15 17:20:39 +0000";
layers = (
{
layerId = "FD4D3FDD-DE85-408F-A52A-FF600B1C6101";
paths = (
{
closed = 1;
nodes = (
"171 518 LINE",
"78 523 LINE",
"75 478 LINE",
"168 478 LINE",
"135 0 LINE",
"183 0 LINE",
"216 478 LINE",
"340 478 LINE",
"343 520 LINE",
"219 520 LINE",
"223 574 LINE SMOOTH",
"228 653 OFFCURVE",
"266 695 OFFCURVE",
"331 695 CURVE SMOOTH",
"352 695 OFFCURVE",
"372 690 OFFCURVE",
"389 681 CURVE",
"391 723 LINE",
"373 731 OFFCURVE",
"351 736 OFFCURVE",
"329 736 CURVE SMOOTH",
"235 736 OFFCURVE",
"182 681 OFFCURVE",
"175 573 CURVE SMOOTH"
);
}
);
width = 400;
},
{
layerId = m002;
paths = (
{
closed = 1;
nodes = (
"141 518 LINE",
"68 523 LINE",
"58 370 LINE",
"131 370 LINE",
"105 0 LINE",
"303 0 LINE",
"329 370 LINE",
"433 370 LINE",
"443 520 LINE",
"339 520 LINE",
"340 530 LINE SMOOTH",
"342 560 OFFCURVE",
"364 577 OFFCURVE",
"402 577 CURVE SMOOTH",
"415 577 OFFCURVE",
"441 572 OFFCURVE",
"462 564 CURVE",
"469 722 LINE",
"452 730 OFFCURVE",
"423 736 OFFCURVE",
"394 736 CURVE SMOOTH",
"237 736 OFFCURVE",
"152 675 OFFCURVE",
"143 554 CURVE SMOOTH"
);
}
);
width = 471;
}
);
leftKerningGroup = f;
leftMetricsKey = n;
rightKerningGroup = f;
unicode = 0066;
},
{
glyphname = g;
lastChange = "2025-09-15 17:20:42 +0000";
layers = (
{
anchors = (
{
name = Top;
position = "{289, 531}";
}
);
layerId = "FD4D3FDD-DE85-408F-A52A-FF600B1C6101";
paths = (
{
closed = 1;
nodes = (
"497 520 LINE",
"434 520 LINE",
"444 442 LINE",
"441 441 LINE",
"412 498 OFFCURVE",
"355 532 OFFCURVE",
"289 532 CURVE SMOOTH",
"138 532 OFFCURVE",
"49 419 OFFCURVE",
"49 227 CURVE SMOOTH",
"49 76 OFFCURVE",
"127 -13 OFFCURVE",
"259 -13 CURVE SMOOTH",
"325 -13 OFFCURVE",
"386 26 OFFCURVE",
"422 92 CURVE",
"424 93 LINE",
"411 -21 LINE SMOOTH",
"399 -128 OFFCURVE",
"336 -191 OFFCURVE",
"242 -191 CURVE SMOOTH",
"159 -191 OFFCURVE",
"103 -143 OFFCURVE",
"92 -62 CURVE",
"45 -60 LINE",
"57 -169 OFFCURVE",
"130 -233 OFFCURVE",
"241 -233 CURVE SMOOTH",
"369 -233 OFFCURVE",
"450 -151 OFFCURVE",
"460 -12 CURVE SMOOTH"
);
},
{
closed = 1;
nodes = (
"97 393 OFFCURVE",
"168 490 OFFCURVE",
"289 490 CURVE SMOOTH",
"378 490 OFFCURVE",
"431 418 OFFCURVE",
"431 295 CURVE SMOOTH",
"431 128 OFFCURVE",
"365 29 OFFCURVE",
"254 29 CURVE SMOOTH",
"155 29 OFFCURVE",
"97 103 OFFCURVE",
"97 228 CURVE SMOOTH"
);
}
);
width = 539;
},
{
anchors = (
{
name = Top;
position = "{362, 532}";
}
);
layerId = m002;
paths = (
{
closed = 1;
nodes = (
"638 520 LINE",
"433 520 LINE",
"450 479 LINE",
"447 479 LINE",
"422 513 OFFCURVE",
"370 532 OFFCURVE",
"312 532 CURVE SMOOTH",
"135 532 OFFCURVE",
"30 422 OFFCURVE",
"30 237 CURVE SMOOTH",
"30 80 OFFCURVE",
"127 -13 OFFCURVE",
"291 -13 CURVE SMOOTH",
"343 -13 OFFCURVE",
"392 7 OFFCURVE",
"421 40 CURVE",
"422 42 LINE",
"418 -8 LINE SMOOTH",
"414 -63 OFFCURVE",
"377 -96 OFFCURVE",
"318 -96 CURVE SMOOTH",
"260 -96 OFFCURVE",
"227 -68 OFFCURVE",
"230 -21 CURVE",
"32 -17 LINE",
"23 -153 OFFCURVE",
"127 -233 OFFCURVE",
"313 -233 CURVE SMOOTH",
"484 -233 OFFCURVE",
"592 -152 OFFCURVE",
"601 -15 CURVE SMOOTH"
);
},
{
closed = 1;
nodes = (
"237 328 OFFCURVE",
"279 379 OFFCURVE",
"351 379 CURVE SMOOTH",
"396 379 OFFCURVE",
"422 343 OFFCURVE",
"422 282 CURVE SMOOTH",
"422 192 OFFCURVE",
"386 139 OFFCURVE",
"325 139 CURVE SMOOTH",
"270 139 OFFCURVE",
"237 177 OFFCURVE",
"237 241 CURVE SMOOTH"
);
}
);
width = 670;
}
);
leftKerningGroup = o;
leftMetricsKey = o;
rightKerningGroup = g;
rightMetricsKey = n;
unicode = 0067;
},
{
color = 10;
glyphname = "gamma-latin";
lastChange = "2025-09-15 17:34:13 +0000";
layers = (
{
layerId = "FD4D3FDD-DE85-408F-A52A-FF600B1C6101";
paths = (
{
closed = 1;
nodes = (
"326 -217 OFFCURVE",
"387 -156 OFFCURVE",
"387 -68 CURVE SMOOTH",
"387 -10 OFFCURVE",
"356 41 OFFCURVE",
"330 92 CURVE SMOOTH",
"294 161 LINE",
"528 520 LINE",
"477 520 LINE",
"272 205 LINE",
"109 520 LINE",
"58 520 LINE",
"241 158 LINE",
"197 90 LINE SMOOTH",
"159 31 OFFCURVE",
"115 -26 OFFCURVE",
"115 -93 CURVE SMOOTH",
"115 -169 OFFCURVE",
"163 -217 OFFCURVE",
"241 -217 CURVE SMOOTH"
);
},
{
closed = 1;
nodes = (
"163 -24 OFFCURVE",
"210 33 OFFCURVE",
"247 89 CURVE SMOOTH",
"263 114 LINE",
"277 87 LINE SMOOTH",
"303 36 OFFCURVE",
"339 -15 OFFCURVE",
"339 -71 CURVE SMOOTH",
"339 -131 OFFCURVE",
"301 -175 OFFCURVE",
"245 -175 CURVE SMOOTH",
"195 -175 OFFCURVE",
"163 -140 OFFCURVE",
"163 -87 CURVE SMOOTH"
);
}
);
width = 550;
},
{
layerId = m002;
paths = (
{
closed = 1;
nodes = (
"422 -217 OFFCURVE",
"529 -130 OFFCURVE",
"539 18 CURVE SMOOTH",
"542 57 OFFCURVE",
"528 109 OFFCURVE",
"500 155 CURVE SMOOTH",
"410 304 LINE",
"562 520 LINE",
"343 520 LINE",
"309 473 LINE",
"281 520 LINE",
"58 520 LINE",
"181 298 LINE",
"74 151 LINE SMOOTH",
"39 102 OFFCURVE",
"11 50 OFFCURVE",
"11 -13 CURVE SMOOTH",
"11 -142 OFFCURVE",
"100 -217 OFFCURVE",
"257 -217 CURVE SMOOTH"
);
},
{
closed = 1;
nodes = (
"221 24 OFFCURVE",
"235 55 OFFCURVE",
"260 90 CURVE SMOOTH",
"280 119 LINE",
"298 86 LINE SMOOTH",
"318 50 OFFCURVE",
"331 20 OFFCURVE",
"330 -1 CURVE SMOOTH",
"327 -31 OFFCURVE",
"308 -49 OFFCURVE",
"274 -49 CURVE SMOOTH",
"239 -49 OFFCURVE",
"218 -27 OFFCURVE",
"220 9 CURVE SMOOTH"
);
}
);
width = 586;
}
);
leftKerningGroup = v;
leftMetricsKey = v;
rightKerningGroup = v;
rightMetricsKey = v;
unicode = 0263;
},
{
color = 10;
glyphname = glottalstop;
lastChange = "2025-09-15 17:20:44 +0000";
layers = (
{
layerId = "FD4D3FDD-DE85-408F-A52A-FF600B1C6101";
paths = (
{
closed = 1;
nodes = (
"225 0 LINE",
"225 315 OFFCURVE",
"498 284 OFFCURVE",
"514 520 CURVE SMOOTH",
"523 649 OFFCURVE",
"447 726 OFFCURVE",
"309 726 CURVE SMOOTH",
"167 726 OFFCURVE",
"77 649 OFFCURVE",
"68 520 CURVE",
"116 520 LINE",
"123 623 OFFCURVE",
"195 684 OFFCURVE",
"309 684 CURVE SMOOTH",
"408 684 OFFCURVE",
"467 630 OFFCURVE",
"467 538 CURVE SMOOTH",
"467 314 OFFCURVE",
"177 349 OFFCURVE",
"177 0 CURVE"
);
}
);
width = 546;
},
{
layerId = m002;
paths = (
{
closed = 1;
nodes = (
"318 0 LINE",
"318 258 OFFCURVE",
"619 214 OFFCURVE",
"637 470 CURVE SMOOTH",
"648 631 OFFCURVE",
"543 726 OFFCURVE",
"354 726 CURVE SMOOTH",
"171 726 OFFCURVE",
"56 629 OFFCURVE",
"44 465 CURVE",
"252 465 LINE",
"257 530 OFFCURVE",
"294 568 OFFCURVE",
"352 568 CURVE SMOOTH",
"404 568 OFFCURVE",
"433 535 OFFCURVE",
"429 480 CURVE SMOOTH",
"417 305 OFFCURVE",
"121 321 OFFCURVE",
"121 0 CURVE"
);
}
);
width = 652;
}
);
leftKerningGroup = o;
leftMetricsKey = o;
rightKerningGroup = p;
rightMetricsKey = o;
unicode = 0294;
},
{
color = 10;
glyphname = glottalstopreversed;
lastChange = "2025-09-15 17:20:46 +0000";
layers = (
{
layerId = "FD4D3FDD-DE85-408F-A52A-FF600B1C6101";
paths = (
{
closed = 1;
nodes = (
"333 0 LINE",
"356 340 OFFCURVE",
"102 314 OFFCURVE",
"116 520 CURVE SMOOTH",
"123 623 OFFCURVE",
"191 684 OFFCURVE",
"299 684 CURVE SMOOTH",
"411 684 OFFCURVE",
"473 622 OFFCURVE",
"466 520 CURVE",
"514 520 LINE",
"523 650 OFFCURVE",
"443 726 OFFCURVE",
"299 726 CURVE SMOOTH",
"163 726 OFFCURVE",
"77 650 OFFCURVE",
"68 522 CURVE SMOOTH",
"52 286 OFFCURVE",
"307 315 OFFCURVE",
"285 0 CURVE"
);
}
);
width = 546;
},
{
layerId = m002;
paths = (
{
closed = 1;
nodes = (
"494 0 LINE",
"517 321 OFFCURVE",
"241 301 OFFCURVE",
"253 470 CURVE SMOOTH",
"257 532 OFFCURVE",
"294 568 OFFCURVE",
"352 568 CURVE SMOOTH",
"405 568 OFFCURVE",
"433 530 OFFCURVE",
"428 465 CURVE",
"636 465 LINE",
"647 629 OFFCURVE",
"542 726 OFFCURVE",
"354 726 CURVE SMOOTH",
"171 726 OFFCURVE",
"56 635 OFFCURVE",
"45 480 CURVE SMOOTH",
"27 218 OFFCURVE",
"315 258 OFFCURVE",
"297 0 CURVE"
);
}
);
width = 652;
}
);
leftKerningGroup = o;
leftMetricsKey = o;
rightKerningGroup = o;
rightMetricsKey = o;
unicode = 0295;
},
{
color = 10;
glyphname = gstroke;
lastChange = "2025-09-15 17:33:39 +0000";
layers = (
{
layerId = "FD4D3FDD-DE85-408F-A52A-FF600B1C6101";
paths = (
{
closed = 1;
nodes = (
"477 238 LINE",
"553 238 LINE",
"556 280 LINE",
"480 280 LINE",
"497 520 LINE",
"434 520 LINE",
"444 441 LINE",
"442 441 LINE",
"413 498 OFFCURVE",
"356 532 OFFCURVE",
"289 532 CURVE SMOOTH",
"138 532 OFFCURVE",
"49 419 OFFCURVE",
"49 227 CURVE SMOOTH",
"49 76 OFFCURVE",
"127 -13 OFFCURVE",
"259 -13 CURVE SMOOTH",
"325 -13 OFFCURVE",
"386 26 OFFCURVE",
"422 92 CURVE",
"424 93 LINE",
"411 -21 LINE SMOOTH",
"399 -128 OFFCURVE",
"336 -191 OFFCURVE",
"242 -191 CURVE SMOOTH",
"159 -191 OFFCURVE",
"103 -143 OFFCURVE",
"92 -62 CURVE",
"45 -60 LINE",
"57 -169 OFFCURVE",
"130 -233 OFFCURVE",
"241 -233 CURVE SMOOTH",
"369 -233 OFFCURVE",
"450 -151 OFFCURVE",
"460 -12 CURVE SMOOTH"
);
},
{
closed = 1;
nodes = (
"97 393 OFFCURVE",
"168 490 OFFCURVE",
"289 490 CURVE SMOOTH",
"378 490 OFFCURVE",
"431 418 OFFCURVE",
"431 278 CURVE",
"356 283 LINE",
"353 238 LINE",
"428 238 LINE",
"415 106 OFFCURVE",
"352 29 OFFCURVE",
"254 29 CURVE SMOOTH",
"155 29 OFFCURVE",
"97 103 OFFCURVE",
"97 228 CURVE SMOOTH"
);
}
);
width = 615;
},
{
layerId = m002;
paths = (
{
closed = 1;
nodes = (
"616 199 LINE",
"686 199 LINE",
"694 319 LINE",
"624 319 LINE",
"638 520 LINE",
"433 520 LINE",
"451 478 LINE",
"448 478 LINE",
"423 512 OFFCURVE",
"371 532 OFFCURVE",
"308 532 CURVE SMOOTH",
"133 532 OFFCURVE",
"30 422 OFFCURVE",
"30 237 CURVE SMOOTH",
"30 80 OFFCURVE",
"127 -13 OFFCURVE",
"291 -13 CURVE SMOOTH",
"343 -13 OFFCURVE",
"392 7 OFFCURVE",
"421 40 CURVE",
"422 42 LINE",
"418 -8 LINE SMOOTH",
"414 -63 OFFCURVE",
"377 -96 OFFCURVE",
"318 -96 CURVE SMOOTH",
"260 -96 OFFCURVE",
"227 -68 OFFCURVE",
"230 -21 CURVE",
"32 -17 LINE",
"23 -153 OFFCURVE",
"127 -233 OFFCURVE",
"313 -233 CURVE SMOOTH",
"485 -233 OFFCURVE",
"592 -152 OFFCURVE",
"601 -15 CURVE SMOOTH"
);
},
{
closed = 1;
nodes = (
"237 329 OFFCURVE",
"276 379 OFFCURVE",
"343 379 CURVE SMOOTH",
"382 379 OFFCURVE",
"408 356 OFFCURVE",
"418 317 CURVE",
"330 322 LINE",
"322 199 LINE",
"409 199 LINE",
"393 161 OFFCURVE",
"364 139 OFFCURVE",
"325 139 CURVE SMOOTH",
"270 139 OFFCURVE",
"237 178 OFFCURVE",
"237 245 CURVE SMOOTH"
);
}
);
width = 740;
}
);
leftKerningGroup = o;
leftMetricsKey = g;
rightKerningGroup = g;
rightMetricsKey = g;
unicode = 01E5;
},
{
glyphname = h;
lastChange = "2025-09-15 19:22:07 +0000";
layers = (
{
anchors = (
{
name = Bottom;
position = "{237, 0}";
},
{
name = Top;
position = "{117, 736}";
}
);
layerId = "FD4D3FDD-DE85-408F-A52A-FF600B1C6101";
paths = (
{
closed = 1;
nodes = (
"93 736 LINE",
"42 0 LINE",
"90 0 LINE",
"109 279 LINE SMOOTH",
"118 412 OFFCURVE",
"182 490 OFFCURVE",
"282 490 CURVE SMOOTH",
"367 490 OFFCURVE",
"413 437 OFFCURVE",
"407 348 CURVE SMOOTH",
"383 0 LINE",
"431 0 LINE",
"454 332 LINE SMOOTH",
"463 458 OFFCURVE",
"401 532 OFFCURVE",
"288 532 CURVE SMOOTH",
"212 532 OFFCURVE",
"149 492 OFFCURVE",
"117 427 CURVE",
"114 427 LINE",
"131 520 LINE",
"146 736 LINE"
);
}
);
width = 509;
},
{
anchors = (
{
name = Bottom;
position = "{335, 0}";
},
{
name = Top;
position = "{163, 736}";
}
);
layerId = m002;
paths = (
{
closed = 1;
nodes = (
"83 736 LINE",
"32 0 LINE",
"230 0 LINE",
"249 274 LINE SMOOTH",
"253 333 OFFCURVE",
"284 370 OFFCURVE",
"329 370 CURVE SMOOTH",
"370 370 OFFCURVE",
"391 342 OFFCURVE",
"387 290 CURVE SMOOTH",
"367 0 LINE",
"565 0 LINE",
"588 331 LINE SMOOTH",
"597 456 OFFCURVE",
"526 532 OFFCURVE",
"397 532 CURVE SMOOTH",
"338 532 OFFCURVE",
"287 513 OFFCURVE",
"259 478 CURVE",
"256 478 LINE",
"268 549 LINE",
"281 736 LINE"
);
}
);
width = 633;
}
);
leftKerningGroup = h;
leftMetricsKey = n;
rightKerningGroup = n;
rightMetricsKey = n;
unicode = 0068;
},
{
color = 10;
glyphname = hbar;
lastChange = "2025-09-15 17:29:19 +0000";
layers = (
{
layerId = "FD4D3FDD-DE85-408F-A52A-FF600B1C6101";
paths = (
{
closed = 1;
nodes = (
"186 736 LINE",
"181 659 LINE",
"88 664 LINE",
"85 619 LINE",
"178 619 LINE",
"135 0 LINE",
"183 0 LINE",
"202 279 LINE SMOOTH",
"211 412 OFFCURVE",
"275 490 OFFCURVE",
"375 490 CURVE SMOOTH",
"460 490 OFFCURVE",
"506 430 OFFCURVE",
"499 329 CURVE SMOOTH",
"476 0 LINE",
"524 0 LINE",
"547 332 LINE SMOOTH",
"556 458 OFFCURVE",
"494 532 OFFCURVE",
"381 532 CURVE SMOOTH",
"305 532 OFFCURVE",
"241 491 OFFCURVE",
"209 426 CURVE",
"207 427 LINE",
"224 520 LINE",
"231 619 LINE",
"360 619 LINE",
"363 661 LINE",
"234 661 LINE",
"239 736 LINE"
);
}
);
width = 602;
},
{
layerId = m002;
paths = (
{
closed = 1;
nodes = (
"159 736 LINE",
"155 685 LINE",
"80 690 LINE",
"73 587 LINE",
"149 587 LINE",
"108 0 LINE",
"306 0 LINE",
"325 274 LINE SMOOTH",
"329 334 OFFCURVE",
"359 370 OFFCURVE",
"405 370 CURVE SMOOTH",
"445 370 OFFCURVE",
"466 340 OFFCURVE",
"463 290 CURVE SMOOTH",
"443 0 LINE",
"641 0 LINE",
"664 331 LINE SMOOTH",
"673 457 OFFCURVE",
"602 532 OFFCURVE",
"473 532 CURVE SMOOTH",
"413 532 OFFCURVE",
"361 509 OFFCURVE",
"334 476 CURVE",
"332 477 LINE",
"344 549 LINE",
"347 587 LINE",
"418 587 LINE",
"425 687 LINE",
"354 687 LINE",
"357 736 LINE"
);
}
);
width = 709;
}
);
leftKerningGroup = hbar;
leftMetricsKey = n;
rightKerningGroup = n;
rightMetricsKey = n;
unicode = 0127;
},
{
color = 10;
glyphname = idotless;
lastChange = "2025-09-15 17:29:22 +0000";
layers = (
{
anchors = (
{
name = Bottom;
position = "{66, 0}";
},
{
name = Top;
position = "{102, 520}";
}
);
layerId = "FD4D3FDD-DE85-408F-A52A-FF600B1C6101";
paths = (
{
closed = 1;
nodes = (
"78 520 LINE",
"42 0 LINE",
"90 0 LINE",
"126 520 LINE"
);
}
);
width = 168;
},
{
anchors = (
{
name = Bottom;
position = "{131, 0}";
},
{
name = Top;
position = "{167, 520}";
}
);
layerId = m002;
paths = (
{
closed = 1;
nodes = (
"68 520 LINE",
"32 0 LINE",
"230 0 LINE",
"266 520 LINE"
);
}
);
width = 298;
}
);
leftKerningGroup = i;
leftMetricsKey = n;
rightKerningGroup = i;
rightMetricsKey = n;
unicode = 0131;
},
{
color = 10;
glyphname = ij;
lastChange = "2025-09-15 17:34:25 +0000";
layers = (
{
layerId = "FD4D3FDD-DE85-408F-A52A-FF600B1C6101";
paths = (
{
closed = 1;
nodes = (
"51 -175 OFFCURVE",
"122 -233 OFFCURVE",
"229 -233 CURVE SMOOTH",
"357 -233 OFFCURVE",
"438 -152 OFFCURVE",
"448 -12 CURVE SMOOTH",
"485 520 LINE",
"437 520 LINE",
"415 208 LINE SMOOTH",
"407 96 OFFCURVE",
"344 29 OFFCURVE",
"245 29 CURVE SMOOTH",
"165 29 OFFCURVE",
"116 80 OFFCURVE",
"121 158 CURVE SMOOTH",
"146 520 LINE",
"98 520 LINE",
"72 148 LINE SMOOTH",
"65 52 OFFCURVE",
"137 -13 OFFCURVE",
"245 -13 CURVE SMOOTH",
"310 -13 OFFCURVE",
"374 22 OFFCURVE",
"404 77 CURVE",
"406 78 LINE",
"399 -21 LINE SMOOTH",
"392 -127 OFFCURVE",
"330 -191 OFFCURVE",
"233 -191 CURVE SMOOTH",
"151 -191 OFFCURVE",
"95 -150 OFFCURVE",
"84 -80 CURVE",
"36 -78 LINE"
);
},
{
closed = 1;
nodes = (
"150 567 LINE",
"156 649 LINE",
"108 649 LINE",
"102 567 LINE"
);
},
{
closed = 1;
nodes = (
"488 567 LINE",
"494 649 LINE",
"446 649 LINE",
"440 567 LINE"
);
}
);
width = 527;
},
{
layerId = m002;
paths = (
{
closed = 1;
nodes = (
"21 -160 OFFCURVE",
"118 -233 OFFCURVE",
"292 -233 CURVE SMOOTH",
"471 -233 OFFCURVE",
"583 -152 OFFCURVE",
"592 -15 CURVE SMOOTH",
"629 520 LINE",
"431 520 LINE",
"410 224 LINE SMOOTH",
"407 177 OFFCURVE",
"376 150 OFFCURVE",
"328 150 CURVE SMOOTH",
"286 150 OFFCURVE",
"263 176 OFFCURVE",
"266 220 CURVE SMOOTH",
"287 520 LINE",
"89 520 LINE",
"65 172 LINE SMOOTH",
"57 56 OFFCURVE",
"133 -12 OFFCURVE",
"270 -12 CURVE SMOOTH",
"324 -12 OFFCURVE",
"373 4 OFFCURVE",
"401 31 CURVE",
"404 33 LINE",
"397 -8 LINE SMOOTH",
"388 -63 OFFCURVE",
"352 -96 OFFCURVE",
"297 -96 CURVE SMOOTH",
"250 -96 OFFCURVE",
"224 -76 OFFCURVE",
"227 -41 CURVE",
"29 -37 LINE"
);
},
{
closed = 1;
nodes = (
"290 567 LINE",
"300 717 LINE",
"102 717 LINE",
"92 567 LINE"
);
},
{
closed = 1;
nodes = (
"632 567 LINE",
"642 717 LINE",
"444 717 LINE",
"434 567 LINE"
);
}
);
width = 661;
}
);
leftKerningGroup = ij;
leftMetricsKey = u;
rightKerningGroup = ij;
rightMetricsKey = n;
unicode = 0133;
},
{
color = 10;
glyphname = "iota-latin";
lastChange = "2025-09-15 17:33:37 +0000";
layers = (
{
layerId = "FD4D3FDD-DE85-408F-A52A-FF600B1C6101";
paths = (
{
closed = 1;
nodes = (
"44 30 OFFCURVE",
"83 -11 OFFCURVE",
"146 -11 CURVE SMOOTH",
"160 -11 OFFCURVE",
"178 -7 OFFCURVE",
"191 -1 CURVE",
"193 41 LINE",
"184 34 OFFCURVE",
"165 30 OFFCURVE",
"146 30 CURVE SMOOTH",
"113 30 OFFCURVE",
"93 54 OFFCURVE",
"96 90 CURVE SMOOTH",
"126 520 LINE",
"78 520 LINE",
"48 92 LINE SMOOTH"
);
}
);
width = 269;
},
{
layerId = m002;
paths = (
{
closed = 1;
nodes = (
"36 56 OFFCURVE",
"118 -13 OFFCURVE",
"265 -13 CURVE SMOOTH",
"291 -13 OFFCURVE",
"317 -9 OFFCURVE",
"335 -1 CURVE",
"342 161 LINE",
"322 152 OFFCURVE",
"298 146 OFFCURVE",
"276 146 CURVE SMOOTH",
"253 146 OFFCURVE",
"241 162 OFFCURVE",
"243 189 CURVE SMOOTH",
"266 520 LINE",
"68 520 LINE",
"44 173 LINE SMOOTH"
);
}
);
width = 403;
}
);
leftKerningGroup = iota;
leftMetricsKey = idotless;
rightKerningGroup = iota;
rightMetricsKey = idotless;
unicode = 0269;
},
{
color = 10;
glyphname = istroke;
lastChange = "2025-09-15 17:33:35 +0000";
layers = (
{
layerId = "FD4D3FDD-DE85-408F-A52A-FF600B1C6101";
paths = (
{
closed = 1;
nodes = (
"158 520 LINE",
"141 278 LINE",
"62 283 LINE",
"59 238 LINE",
"138 238 LINE",
"122 0 LINE",
"170 0 LINE",
"186 238 LINE",
"259 238 LINE",
"262 280 LINE",
"189 280 LINE",
"206 520 LINE"
);
},
{
closed = 1;
nodes = (
"210 567 LINE",
"215 632 LINE",
"167 632 LINE",
"162 567 LINE"
);
}
);
width = 321;
},
{
layerId = m002;
paths = (
{
closed = 1;
nodes = (
"139 520 LINE",
"125 318 LINE",
"54 322 LINE",
"46 199 LINE",
"117 199 LINE",
"103 0 LINE",
"301 0 LINE",
"315 199 LINE",
"410 199 LINE",
"418 319 LINE",
"323 319 LINE",
"337 520 LINE"
);
},
{
closed = 1;
nodes = (
"341 567 LINE",
"351 700 LINE",
"152 700 LINE",
"142 567 LINE"
);
}
);
width = 464;
}
);
leftKerningGroup = istroke;
leftMetricsKey = idotless;
rightKerningGroup = istroke;
rightMetricsKey = idotless;
unicode = 0268;
},
{
color = 10;
glyphname = jdotless;
lastChange = "2025-09-15 17:29:23 +0000";
layers = (
{
anchors = (
{
name = Top;
position = "{251, 520}";
}
);
hints = (
{
horizontal = 1;
place = "{520, 0}";
type = Stem;
}
);
layerId = "FD4D3FDD-DE85-408F-A52A-FF600B1C6101";
paths = (
{
closed = 1;
nodes = (
"275 520 LINE",
"227 520 LINE",
"186 -69 LINE SMOOTH",
"180 -146 OFFCURVE",
"133 -192 OFFCURVE",
"57 -192 CURVE SMOOTH",
"39 -192 OFFCURVE",
"21 -191 OFFCURVE",
"9 -188 CURVE",
"7 -230 LINE",
"22 -232 OFFCURVE",
"40 -233 OFFCURVE",
"56 -233 CURVE SMOOTH",
"161 -233 OFFCURVE",
"227 -173 OFFCURVE",
"234 -71 CURVE SMOOTH"
);
}
);
width = 317;
},
{
anchors = (
{
name = Top;
position = "{232, 520}";
}
);
hints = (
{
horizontal = 1;
place = "{520, 0}";
type = Stem;
}
);
layerId = m002;
paths = (
{
closed = 1;
nodes = (
"331 520 LINE",
"133 520 LINE",
"96 -10 LINE SMOOTH",
"93 -49 OFFCURVE",
"73 -74 OFFCURVE",
"43 -74 CURVE SMOOTH",
"27 -74 OFFCURVE",
"9 -74 OFFCURVE",
"-3 -71 CURVE",
"-10 -230 LINE",
"1 -232 OFFCURVE",
"19 -233 OFFCURVE",
"40 -233 CURVE SMOOTH",
"191 -233 OFFCURVE",
"284 -152 OFFCURVE",
"294 -12 CURVE SMOOTH"
);
}
);
width = 363;
}
);
leftKerningGroup = j;
rightKerningGroup = j;
rightMetricsKey = n;
unicode = 0237;
},
{
glyphname = k;
lastChange = "2025-09-15 17:29:46 +0000";
layers = (
{
anchors = (
{
name = Bottom;
position = "{218, 0}";
},
{
name = Top;
position = "{240, 520}";
}
);
layerId = "FD4D3FDD-DE85-408F-A52A-FF600B1C6101";
paths = (
{
closed = 1;
nodes = (
"42 0 LINE",
"90 0 LINE",
"103 181 LINE",
"215 286 LINE",
"378 0 LINE",
"433 0 LINE",
"252 320 LINE",
"468 520 LINE",
"400 520 LINE",
"109 251 LINE",
"107 251 LINE",
"141 736 LINE",
"93 736 LINE"
);
}
);
width = 491;
},
{
anchors = (
{
name = Bottom;
position = "{322, 0}";
},
{
name = Top;
position = "{380, 520}";
}
);
layerId = m002;
paths = (
{
closed = 1;
nodes = (
"32 0 LINE",
"230 0 LINE",
"238 113 LINE",
"313 184 LINE",
"418 0 LINE",
"630 0 LINE",
"452 317 LINE",
"665 520 LINE",
"407 520 LINE",
"257 380 LINE",
"256 380 LINE",
"281 736 LINE",
"83 736 LINE"
);
}
);
width = 678;
}
);
leftKerningGroup = h;
leftMetricsKey = n;
rightKerningGroup = k;
unicode = 006B;
},
{
color = 10;
glyphname = kgreenlandic;
lastChange = "2025-09-15 17:33:33 +0000";
layers = (
{
layerId = "FD4D3FDD-DE85-408F-A52A-FF600B1C6101";
paths = (
{
closed = 1;
nodes = (
"42 0 LINE",
"90 0 LINE",
"109 269 LINE",
"110 269 LINE",
"327 0 LINE",
"389 0 LINE",
"162 279 LINE",
"426 520 LINE",
"363 520 LINE",
"112 292 LINE",
"110 292 LINE",
"126 520 LINE",
"78 520 LINE"
);
}
);
width = 448;
},
{
layerId = m002;
paths = (
{
closed = 1;
nodes = (
"32 0 LINE",
"230 0 LINE",
"244 203 LINE",
"247 203 LINE",
"411 0 LINE",
"645 0 LINE",
"417 278 LINE",
"683 520 LINE",
"446 520 LINE",
"256 347 LINE",
"254 347 LINE",
"266 520 LINE",
"68 520 LINE"
);
}
);
width = 695;
}
);
leftKerningGroup = h;
leftMetricsKey = k;
rightKerningGroup = k;
rightMetricsKey = k;
unicode = 0138;
},
{
glyphname = l;
lastChange = "2025-09-15 19:22:11 +0000";
layers = (
{
anchors = (
{
name = Bottom;
position = "{66, 0}";
},
{
name = Caron;
position = "{207, 560}";
},
{
name = Top;
position = "{117, 736}";
},
{
name = Top_EC;
position = "{196, 570}";
}
);
layerId = "FD4D3FDD-DE85-408F-A52A-FF600B1C6101";
paths = (
{
closed = 1;
nodes = (
"42 0 LINE",
"90 0 LINE",
"141 736 LINE",
"93 736 LINE"
);
}
);
width = 168;
},
{
anchors = (
{
name = Bottom;
position = "{131, 0}";
},
{
name = Caron;
position = "{387, 560}";
},
{
name = Top;
position = "{182, 736}";
},
{
name = Top_EC;
position = "{387, 570}";
}
);
layerId = m002;
paths = (
{
closed = 1;
nodes = (
"32 0 LINE",
"230 0 LINE",
"281 736 LINE",
"83 736 LINE"
);
}
);
width = 298;
}
);
leftKerningGroup = h;
leftMetricsKey = n;
rightKerningGroup = l;
rightMetricsKey = n;
unicode = 006C;
},
{
color = 10;
glyphname = lambdastroke;
lastChange = "2025-09-15 17:29:52 +0000";
layers = (
{
layerId = "FD4D3FDD-DE85-408F-A52A-FF600B1C6101";
paths = (
{
closed = 1;
nodes = (
"271 435 LINE",
"273 435 LINE",
"365 126 LINE SMOOTH",
"393 31 OFFCURVE",
"444 -13 OFFCURVE",
"520 -13 CURVE SMOOTH",
"535 -13 OFFCURVE",
"553 -10 OFFCURVE",
"568 -5 CURVE",
"570 43 LINE",
"559 37 OFFCURVE",
"536 34 OFFCURVE",
"517 34 CURVE SMOOTH",
"469 34 OFFCURVE",
"432 63 OFFCURVE",
"414 124 CURVE SMOOTH",
"298 511 LINE",
"430 536 LINE",
"439 576 LINE",
"288 547 LINE",
"275 589 LINE SMOOTH",
"246 686 OFFCURVE",
"196 728 OFFCURVE",
"120 728 CURVE SMOOTH",
"105 728 OFFCURVE",
"87 725 OFFCURVE",
"72 720 CURVE",
"70 672 LINE",
"82 678 OFFCURVE",
"104 681 OFFCURVE",
"123 681 CURVE SMOOTH",
"171 681 OFFCURVE",
"208 652 OFFCURVE",
"226 591 CURVE SMOOTH",
"240 543 LINE",
"121 519 LINE",
"112 476 LINE",
"250 502 LINE",
"29 0 LINE",
"80 0 LINE"
);
}
);
width = 627;
},
{
layerId = m002;
paths = (
{
closed = 1;
nodes = (
"323 237 LINE",
"326 237 LINE",
"353 148 LINE SMOOTH",
"398 -4 OFFCURVE",
"480 -13 OFFCURVE",
"602 -13 CURVE SMOOTH",
"625 -13 OFFCURVE",
"649 -11 OFFCURVE",
"665 -6 CURVE",
"672 156 LINE",
"659 150 OFFCURVE",
"631 146 OFFCURVE",
"593 146 CURVE SMOOTH",
"568 146 OFFCURVE",
"545 157 OFFCURVE",
"538 180 CURVE SMOOTH",
"433 536 LINE",
"534 555 LINE",
"542 595 LINE",
"422 571 LINE",
"421 574 LINE SMOOTH",
"373 717 OFFCURVE",
"295 727 OFFCURVE",
"175 727 CURVE SMOOTH",
"152 727 OFFCURVE",
"128 725 OFFCURVE",
"112 720 CURVE",
"105 558 LINE",
"118 564 OFFCURVE",
"147 568 OFFCURVE",
"184 568 CURVE SMOOTH",
"206 568 OFFCURVE",
"225 560 OFFCURVE",
"234 543 CURVE SMOOTH",
"235 541 LINE",
"129 519 LINE",
"120 476 LINE",
"242 499 LINE",
"22 0 LINE",
"221 0 LINE"
);
}
);
width = 724;
}
);
leftKerningGroup = A;
leftMetricsKey = A;
rightKerningGroup = A;
rightMetricsKey = A;
unicode = 019B;
},
{
color = 10;
glyphname = lbar;
lastChange = "2025-09-15 17:33:31 +0000";
layers = (
{
layerId = "FD4D3FDD-DE85-408F-A52A-FF600B1C6101";
paths = (
{
closed = 1;
nodes = (
"145 381 LINE",
"70 386 LINE",
"66 341 LINE",
"143 341 LINE",
"119 0 LINE",
"167 0 LINE",
"191 341 LINE",
"266 341 LINE",
"269 383 LINE",
"194 383 LINE",
"218 736 LINE",
"170 736 LINE"
);
}
);
width = 320;
},
{
layerId = m002;
paths = (
{
closed = 1;
nodes = (
"144 417 LINE",
"61 422 LINE",
"53 299 LINE",
"136 299 LINE",
"115 0 LINE",
"313 0 LINE",
"334 299 LINE",
"417 299 LINE",
"425 419 LINE",
"342 419 LINE",
"364 736 LINE",
"166 736 LINE"
);
}
);
width = 464;
}
);
leftKerningGroup = l;
leftMetricsKey = l;
rightKerningGroup = l;
rightMetricsKey = l;
unicode = 019A;
},
{
color = 10;
glyphname = lbelt;
lastChange = "2025-09-15 17:33:29 +0000";
layers = (
{
layerId = "FD4D3FDD-DE85-408F-A52A-FF600B1C6101";
paths = (
{
closed = 1;
nodes = (
"177 487 LINE",
"169 490 OFFCURVE",
"160 491 OFFCURVE",
"150 491 CURVE SMOOTH",
"103 491 OFFCURVE",
"71 461 OFFCURVE",
"71 416 CURVE SMOOTH",
"71 371 OFFCURVE",
"102 341 OFFCURVE",
"149 341 CURVE SMOOTH",
"166 341 LINE",
"143 0 LINE",
"191 0 LINE",
"215 341 LINE",
"294 341 LINE",
"297 383 LINE",
"217 383 LINE",
"242 736 LINE",
"194 736 LINE"
);
},
{
closed = 1;
nodes = (
"119 436 OFFCURVE",
"131 449 OFFCURVE",
"149 449 CURVE SMOOTH",
"164 449 OFFCURVE",
"173 438 OFFCURVE",
"172 422 CURVE SMOOTH",
"169 383 LINE",
"159 383 LINE SMOOTH",
"135 383 OFFCURVE",
"119 396 OFFCURVE",
"119 416 CURVE SMOOTH"
);
}
);
width = 348;
},
{
layerId = m002;
paths = (
{
closed = 1;
nodes = (
"171 489 LINE",
"163 490 OFFCURVE",
"155 491 OFFCURVE",
"146 491 CURVE SMOOTH",
"96 491 OFFCURVE",
"64 463 OFFCURVE",
"61 415 CURVE SMOOTH",
"57 357 OFFCURVE",
"90 323 OFFCURVE",
"150 323 CURVE SMOOTH",
"159 323 LINE",
"137 0 LINE",
"335 0 LINE",
"357 323 LINE",
"457 323 LINE",
"461 383 LINE",
"361 383 LINE",
"386 736 LINE",
"188 736 LINE"
);
},
{
closed = 1;
nodes = (
"122 431 OFFCURVE",
"133 441 OFFCURVE",
"150 441 CURVE SMOOTH",
"161 441 OFFCURVE",
"167 435 OFFCURVE",
"166 424 CURVE SMOOTH",
"163 383 LINE",
"151 383 LINE SMOOTH",
"130 383 OFFCURVE",
"119 394 OFFCURVE",
"121 413 CURVE SMOOTH"
);
}
);
width = 503;
}
);
leftKerningGroup = l;
leftMetricsKey = l;
rightKerningGroup = l;
rightMetricsKey = l;
unicode = 026C;
},
{
color = 10;
glyphname = lmiddletilde;
lastChange = "2025-09-15 17:33:27 +0000";
layers = (
{
layerId = "FD4D3FDD-DE85-408F-A52A-FF600B1C6101";
paths = (
{
closed = 1;
nodes = (
"215 0 LINE",
"238 325 LINE",
"250 321 OFFCURVE",
"264 318 OFFCURVE",
"280 318 CURVE SMOOTH",
"327 318 OFFCURVE",
"360 350 OFFCURVE",
"363 399 CURVE",
"316 399 LINE",
"314 376 OFFCURVE",
"297 361 OFFCURVE",
"274 361 CURVE SMOOTH",
"262 361 OFFCURVE",
"251 364 OFFCURVE",
"240 368 CURVE",
"266 736 LINE",
"218 736 LINE",
"194 388 LINE",
"180 394 OFFCURVE",
"165 398 OFFCURVE",
"147 398 CURVE SMOOTH",
"100 398 OFFCURVE",
"67 366 OFFCURVE",
"64 317 CURVE",
"112 317 LINE",
"113 340 OFFCURVE",
"131 355 OFFCURVE",
"153 355 CURVE SMOOTH",
"166 355 OFFCURVE",
"178 351 OFFCURVE",
"191 346 CURVE",
"167 0 LINE"
);
}
);
width = 413;
},
{
layerId = m002;
paths = (
{
closed = 1;
nodes = (
"373 0 LINE",
"397 345 LINE",
"412 344 OFFCURVE",
"424 343 OFFCURVE",
"432 343 CURVE SMOOTH",
"500 343 OFFCURVE",
"542 383 OFFCURVE",
"547 451 CURVE",
"442 451 LINE",
"441 438 OFFCURVE",
"431 431 OFFCURVE",
"414 431 CURVE SMOOTH",
"412 431 OFFCURVE",
"408 431 OFFCURVE",
"403 432 CURVE",
"424 736 LINE",
"226 736 LINE",
"206 453 LINE",
"192 454 OFFCURVE",
"180 455 OFFCURVE",
"173 455 CURVE SMOOTH",
"103 455 OFFCURVE",
"61 415 OFFCURVE",
"56 347 CURVE",
"161 347 LINE",
"162 360 OFFCURVE",
"173 368 OFFCURVE",
"189 368 CURVE SMOOTH",
"192 368 OFFCURVE",
"196 368 OFFCURVE",
"200 367 CURVE",
"175 0 LINE"
);
}
);
width = 584;
}
);
leftKerningGroup = l;
leftMetricsKey = l;
rightKerningGroup = l;
rightMetricsKey = l;
unicode = 026B;
},
{
color = 10;
glyphname = lslash;
lastChange = "2025-09-15 17:29:55 +0000";
layers = (
{
layerId = "FD4D3FDD-DE85-408F-A52A-FF600B1C6101";
paths = (
{
closed = 1;
nodes = (
"172 415 LINE",
"67 356 LINE",
"64 298 LINE",
"168 357 LINE",
"143 0 LINE",
"191 0 LINE",
"218 386 LINE",
"322 445 LINE",
"326 503 LINE",
"222 444 LINE",
"242 736 LINE",
"194 736 LINE"
);
}
);
width = 369;
},
{
layerId = m002;
paths = (
{
closed = 1;
nodes = (
"162 413 LINE",
"56 345 LINE",
"48 207 LINE",
"152 274 LINE",
"133 0 LINE",
"301 0 LINE",
"328 388 LINE",
"433 456 LINE",
"441 592 LINE",
"337 526 LINE",
"352 736 LINE",
"184 736 LINE"
);
}
);
width = 469;
}
);
leftKerningGroup = l;
leftMetricsKey = n;
rightKerningGroup = l;
rightMetricsKey = n;
unicode = 0142;
},
{
glyphname = m;
lastChange = "2025-09-15 19:22:14 +0000";
layers = (
{
anchors = (
{
name = Bottom;
position = "{376, 0}";
}
);
hints = (
{
horizontal = 1;
origin = "{0, 37}";
target = up;
type = BottomGhost;
}
);
layerId = "FD4D3FDD-DE85-408F-A52A-FF600B1C6101";
paths = (
{
closed = 1;
nodes = (
"110 292 LINE SMOOTH",
"118 416 OFFCURVE",
"177 490 OFFCURVE",
"267 490 CURVE SMOOTH",
"341 490 OFFCURVE",
"382 431 OFFCURVE",
"375 329 CURVE SMOOTH",
"352 0 LINE",
"400 0 LINE",
"423 332 LINE SMOOTH",
"430 431 OFFCURVE",
"486 490 OFFCURVE",
"574 490 CURVE SMOOTH",
"650 490 OFFCURVE",
"692 431 OFFCURVE",
"685 329 CURVE SMOOTH",
"662 0 LINE",
"710 0 LINE",
"733 332 LINE SMOOTH",
"742 457 OFFCURVE",
"684 532 OFFCURVE",
"580 532 CURVE SMOOTH",
"498 532 OFFCURVE",
"434 496 OFFCURVE",
"407 434 CURVE",
"407 434 OFFCURVE",
"405 434 OFFCURVE",
"405 433 CURVE",
"383 494 OFFCURVE",
"334 532 OFFCURVE",
"273 532 CURVE SMOOTH",
"200 532 OFFCURVE",
"144 493 OFFCURVE",
"117 427 CURVE",
"114 427 LINE",
"140 520 LINE",
"78 520 LINE",
"42 0 LINE",
"90 0 LINE"
);
}
);
width = 788;
},
{
anchors = (
{
name = Bottom;
position = "{447, 0}";
}
);
layerId = m002;
paths = (
{
closed = 1;
nodes = (
"250 294 LINE SMOOTH",
"253 341 OFFCURVE",
"280 370 OFFCURVE",
"319 370 CURVE SMOOTH",
"354 370 OFFCURVE",
"372 347 OFFCURVE",
"369 305 CURVE SMOOTH",
"348 0 LINE",
"546 0 LINE",
"566 294 LINE SMOOTH",
"569 341 OFFCURVE",
"596 370 OFFCURVE",
"635 370 CURVE SMOOTH",
"670 370 OFFCURVE",
"688 347 OFFCURVE",
"685 305 CURVE SMOOTH",
"664 0 LINE",
"862 0 LINE",
"884 321 LINE SMOOTH",
"893 452 OFFCURVE",
"822 532 OFFCURVE",
"691 532 CURVE SMOOTH",
"633 532 OFFCURVE",
"577 514 OFFCURVE",
"544 480 CURVE",
"546 479 OFFCURVE",
"541 477 OFFCURVE",
"538 475 CURVE",
"512 510 OFFCURVE",
"459 532 OFFCURVE",
"394 532 CURVE SMOOTH",
"331 532 OFFCURVE",
"280 512 OFFCURVE",
"252 477 CURVE",
"248 477 LINE",
"273 520 LINE",
"68 520 LINE",
"32 0 LINE",
"230 0 LINE"
);
}
);
width = 930;
}
);
leftKerningGroup = n;
leftMetricsKey = n;
rightKerningGroup = n;
rightMetricsKey = n;
unicode = 006D;
},
{
glyphname = n;
lastChange = "2025-09-15 18:42:50 +0000";
layers = (
{
anchors = (
{
name = Bottom;
position = "{237, 0}";
},
{
name = Top;
position = "{290, 532}";
}
);
layerId = "FD4D3FDD-DE85-408F-A52A-FF600B1C6101";
paths = (
{
closed = 1;
nodes = (
"109 279 LINE SMOOTH",
"118 411 OFFCURVE",
"182 490 OFFCURVE",
"282 490 CURVE SMOOTH",
"366 490 OFFCURVE",
"413 431 OFFCURVE",
"406 329 CURVE SMOOTH",
"383 0 LINE",
"431 0 LINE",
"454 332 LINE SMOOTH",
"463 457 OFFCURVE",
"401 532 OFFCURVE",
"288 532 CURVE SMOOTH",
"211 532 OFFCURVE",
"149 493 OFFCURVE",
"117 427 CURVE",
"114 427 LINE",
"141 520 LINE",
"78 520 LINE",
"42 0 LINE",
"90 0 LINE"
);
}
);
width = 509;
},
{
anchors = (
{
name = Bottom;
position = "{300, 0}";
},
{
name = Top;
position = "{355, 532}";
}
);
layerId = m002;
paths = (
{
closed = 1;
nodes = (
"249 274 LINE SMOOTH",
"253 334 OFFCURVE",
"283 370 OFFCURVE",
"329 370 CURVE SMOOTH",
"369 370 OFFCURVE",
"391 340 OFFCURVE",
"387 290 CURVE SMOOTH",
"367 0 LINE",
"565 0 LINE",
"588 331 LINE SMOOTH",
"597 457 OFFCURVE",
"524 532 OFFCURVE",
"392 532 CURVE SMOOTH",
"332 532 OFFCURVE",
"280 512 OFFCURVE",
"252 477 CURVE",
"248 477 LINE",
"273 520 LINE",
"68 520 LINE",
"32 0 LINE",
"230 0 LINE"
);
}
);
width = 633;
}
);
leftKerningGroup = n;
rightKerningGroup = n;
unicode = 006E;
},
{
color = 10;
glyphname = eng;
lastChange = "2025-09-15 17:29:59 +0000";
layers = (
{
layerId = "FD4D3FDD-DE85-408F-A52A-FF600B1C6101";
paths = (
{
closed = 1;
nodes = (
"109 279 LINE SMOOTH",
"118 411 OFFCURVE",
"182 490 OFFCURVE",
"282 490 CURVE SMOOTH",
"366 490 OFFCURVE",
"413 431 OFFCURVE",
"406 329 CURVE SMOOTH",
"378 -69 LINE SMOOTH",
"372 -146 OFFCURVE",
"325 -192 OFFCURVE",
"249 -192 CURVE SMOOTH",
"231 -192 OFFCURVE",
"213 -191 OFFCURVE",
"201 -188 CURVE",
"199 -230 LINE",
"214 -232 OFFCURVE",
"232 -233 OFFCURVE",
"248 -233 CURVE SMOOTH",
"353 -233 OFFCURVE",
"419 -173 OFFCURVE",
"426 -71 CURVE SMOOTH",
"454 332 LINE SMOOTH",
"463 457 OFFCURVE",
"401 532 OFFCURVE",
"288 532 CURVE SMOOTH",
"211 532 OFFCURVE",
"148 494 OFFCURVE",
"116 428 CURVE",
"114 427 LINE",
"131 520 LINE",
"78 520 LINE",
"42 0 LINE",
"90 0 LINE"
);
}
);
width = 509;
},
{
layerId = m002;
paths = (
{
closed = 1;
nodes = (
"249 274 LINE SMOOTH",
"253 333 OFFCURVE",
"284 370 OFFCURVE",
"329 370 CURVE SMOOTH",
"370 370 OFFCURVE",
"391 342 OFFCURVE",
"387 290 CURVE SMOOTH",
"366 -10 LINE SMOOTH",
"363 -49 OFFCURVE",
"343 -74 OFFCURVE",
"313 -74 CURVE SMOOTH",
"297 -74 OFFCURVE",
"279 -74 OFFCURVE",
"267 -71 CURVE",
"260 -230 LINE",
"271 -232 OFFCURVE",
"289 -233 OFFCURVE",
"310 -233 CURVE SMOOTH",
"461 -233 OFFCURVE",
"554 -152 OFFCURVE",
"564 -12 CURVE SMOOTH",
"588 331 LINE SMOOTH",
"597 456 OFFCURVE",
"524 532 OFFCURVE",
"387 532 CURVE SMOOTH",
"327 532 OFFCURVE",
"274 514 OFFCURVE",
"246 479 CURVE",
"243 477 LINE",
"267 520 LINE",
"68 520 LINE",
"32 0 LINE",
"230 0 LINE"
);
}
);
width = 633;
}
);
leftKerningGroup = n;
leftMetricsKey = n;
rightKerningGroup = n;
rightMetricsKey = n;
unicode = 014B;
},
{
glyphname = o;
lastChange = "2025-09-15 18:40:04 +0000";
layers = (
{
anchors = (
{
name = Bottom;
position = "{264, 0}";
},
{
name = Top;
position = "{301, 532}";
}
);
layerId = "FD4D3FDD-DE85-408F-A52A-FF600B1C6101";
paths = (
{
closed = 1;
nodes = (
"123 532 OFFCURVE",
"49 387 OFFCURVE",
"49 227 CURVE SMOOTH",
"49 76 OFFCURVE",
"127 -13 OFFCURVE",
"264 -13 CURVE SMOOTH",
"440 -13 OFFCURVE",
"516 131 OFFCURVE",
"516 291 CURVE SMOOTH",
"516 443 OFFCURVE",
"436 532 OFFCURVE",
"300 532 CURVE SMOOTH"
);
},
{
closed = 1;
nodes = (
"97 359 OFFCURVE",
"154 490 OFFCURVE",
"299 490 CURVE SMOOTH",
"406 490 OFFCURVE",
"468 416 OFFCURVE",
"468 289 CURVE SMOOTH",
"468 159 OFFCURVE",
"410 29 OFFCURVE",
"264 29 CURVE SMOOTH",
"157 29 OFFCURVE",
"97 101 OFFCURVE",
"97 228 CURVE SMOOTH"
);
}
);
width = 565;
},
{
anchors = (
{
name = Bottom;
position = "{302, 0}";
},
{
name = Top;
position = "{339, 532}";
}
);
layerId = m002;
paths = (
{
closed = 1;
nodes = (
"155 532 OFFCURVE",
"42 433 OFFCURVE",
"30 264 CURVE SMOOTH",
"18 90 OFFCURVE",
"121 -13 OFFCURVE",
"305 -13 CURVE SMOOTH",
"502 -13 OFFCURVE",
"611 104 OFFCURVE",
"611 283 CURVE SMOOTH",
"611 440 OFFCURVE",
"509 532 OFFCURVE",
"334 532 CURVE SMOOTH"
);
},
{
closed = 1;
nodes = (
"243 333 OFFCURVE",
"278 380 OFFCURVE",
"333 380 CURVE SMOOTH",
"382 380 OFFCURVE",
"408 337 OFFCURVE",
"403 264 CURVE SMOOTH",
"398 186 OFFCURVE",
"361 139 OFFCURVE",
"307 139 CURVE SMOOTH",
"257 139 OFFCURVE",
"232 182 OFFCURVE",
"237 254 CURVE SMOOTH"
);
}
);
width = 640;
}
);
leftKerningGroup = o;
rightKerningGroup = o;
unicode = 006F;
},
{
color = 10;
glyphname = oopen;
lastChange = "2025-09-15 17:30:01 +0000";
layers = (
{
layerId = "FD4D3FDD-DE85-408F-A52A-FF600B1C6101";
paths = (
{
closed = 1;
nodes = (
"66 435 LINE",
"103 468 OFFCURVE",
"165 490 OFFCURVE",
"220 490 CURVE SMOOTH",
"312 490 OFFCURVE",
"374 411 OFFCURVE",
"374 293 CURVE SMOOTH",
"374 135 OFFCURVE",
"294 29 OFFCURVE",
"175 29 CURVE SMOOTH",
"122 29 OFFCURVE",
"67 49 OFFCURVE",
"38 79 CURVE",
"38 35 LINE",
"68 6 OFFCURVE",
"125 -13 OFFCURVE",
"181 -13 CURVE SMOOTH",
"325 -13 OFFCURVE",
"421 107 OFFCURVE",
"421 287 CURVE SMOOTH",
"421 434 OFFCURVE",
"338 532 OFFCURVE",
"214 532 CURVE SMOOTH",
"161 532 OFFCURVE",
"102 515 OFFCURVE",
"66 489 CURVE"
);
}
);
width = 470;
},
{
layerId = m002;
paths = (
{
closed = 1;
nodes = (
"38 330 LINE",
"68 355 OFFCURVE",
"110 370 OFFCURVE",
"150 370 CURVE SMOOTH",
"208 370 OFFCURVE",
"242 335 OFFCURVE",
"242 277 CURVE SMOOTH",
"242 197 OFFCURVE",
"203 149 OFFCURVE",
"138 149 CURVE SMOOTH",
"91 149 OFFCURVE",
"49 162 OFFCURVE",
"25 185 CURVE",
"16 3 LINE",
"55 -7 OFFCURVE",
"100 -13 OFFCURVE",
"137 -13 CURVE SMOOTH",
"334 -13 OFFCURVE",
"450 96 OFFCURVE",
"450 281 CURVE SMOOTH",
"450 439 OFFCURVE",
"343 532 OFFCURVE",
"162 532 CURVE SMOOTH",
"129 532 OFFCURVE",
"86 526 OFFCURVE",
"48 516 CURVE"
);
}
);
width = 480;
}
);
leftKerningGroup = o;
leftMetricsKey = o;
rightKerningGroup = o;
rightMetricsKey = o;
unicode = 0254;
},
{
color = 10;
glyphname = oslash;
lastChange = "2025-09-15 17:30:03 +0000";
layers = (
{
anchors = (
{
name = Top;
position = "{300, 532}";
}
);
layerId = "FD4D3FDD-DE85-408F-A52A-FF600B1C6101";
paths = (
{
closed = 1;
nodes = (
"149 532 OFFCURVE",
"49 411 OFFCURVE",
"49 230 CURVE SMOOTH",
"49 132 OFFCURVE",
"88 56 OFFCURVE",
"152 17 CURVE",
"123 -50 LINE",
"176 -50 LINE",
"196 -3 LINE",
"217 -10 OFFCURVE",
"240 -13 OFFCURVE",
"264 -13 CURVE SMOOTH",
"403 -13 OFFCURVE",
"503 95 OFFCURVE",
"515 258 CURVE SMOOTH",
"522 370 OFFCURVE",
"485 457 OFFCURVE",
"416 500 CURVE",
"441 558 LINE",
"387 558 LINE",
"371 521 LINE",
"349 528 OFFCURVE",
"326 532 OFFCURVE",
"300 532 CURVE SMOOTH"
);
},
{
closed = 1;
nodes = (
"97 386 OFFCURVE",
"178 490 OFFCURVE",
"299 490 CURVE SMOOTH",
"319 490 OFFCURVE",
"337 487 OFFCURVE",
"354 481 CURVE",
"170 59 LINE",
"124 93 OFFCURVE",
"97 154 OFFCURVE",
"97 231 CURVE SMOOTH"
);
},
{
closed = 1;
nodes = (
"397 458 LINE",
"442 423 OFFCURVE",
"468 363 OFFCURVE",
"468 287 CURVE SMOOTH",
"468 132 OFFCURVE",
"386 29 OFFCURVE",
"264 29 CURVE SMOOTH",
"246 29 OFFCURVE",
"229 32 OFFCURVE",
"214 37 CURVE"
);
}
);
width = 565;
},
{
anchors = (
{
name = Top;
position = "{330, 532}";
}
);
layerId = m002;
paths = (
{
closed = 1;
nodes = (
"152 532 OFFCURVE",
"30 415 OFFCURVE",
"30 240 CURVE SMOOTH",
"30 133 OFFCURVE",
"81 53 OFFCURVE",
"165 14 CURVE",
"134 -50 LINE",
"223 -50 LINE",
"243 -9 LINE",
"259 -12 OFFCURVE",
"276 -13 OFFCURVE",
"296 -13 CURVE SMOOTH",
"472 -13 OFFCURVE",
"592 106 OFFCURVE",
"592 280 CURVE SMOOTH",
"592 385 OFFCURVE",
"542 464 OFFCURVE",
"461 503 CURVE",
"487 558 LINE",
"399 558 LINE",
"384 528 LINE",
"367 531 OFFCURVE",
"348 532 OFFCURVE",
"325 532 CURVE SMOOTH"
);
},
{
closed = 1;
nodes = (
"204 330 OFFCURVE",
"253 380 OFFCURVE",
"318 380 CURVE",
"317 380 OFFCURVE",
"323 380 OFFCURVE",
"324 380 CURVE",
"227 164 LINE",
"206 185 OFFCURVE",
"196 217 OFFCURVE",
"198 254 CURVE SMOOTH"
);
},
{
closed = 1;
nodes = (
"399 352 LINE",
"416 334 OFFCURVE",
"425 307 OFFCURVE",
"425 277 CURVE SMOOTH",
"425 197 OFFCURVE",
"375 141 OFFCURVE",
"307 139 CURVE",
"309 139 OFFCURVE",
"303 139 OFFCURVE",
"302 139 CURVE"
);
}
);
width = 622;
}
);
leftKerningGroup = o;
leftMetricsKey = o;
rightKerningGroup = o;
rightMetricsKey = o;
unicode = 00F8;
},
{
color = 10;
glyphname = oe;
lastChange = "2025-09-15 17:30:06 +0000";
layers = (
{
layerId = "FD4D3FDD-DE85-408F-A52A-FF600B1C6101";
paths = (
{
closed = 1;
nodes = (
"149 532 OFFCURVE",
"49 411 OFFCURVE",
"49 230 CURVE SMOOTH",
"49 84 OFFCURVE",
"135 -13 OFFCURVE",
"264 -13 CURVE SMOOTH",
"354 -13 OFFCURVE",
"441 43 OFFCURVE",
"481 126 CURVE",
"509 43 OFFCURVE",
"586 -13 OFFCURVE",
"674 -13 CURVE SMOOTH",
"779 -13 OFFCURVE",
"866 55 OFFCURVE",
"892 158 CURVE",
"844 160 LINE",
"822 81 OFFCURVE",
"754 29 OFFCURVE",
"675 29 CURVE SMOOTH",
"564 29 OFFCURVE",
"504 107 OFFCURVE",
"513 240 CURVE SMOOTH",
"514 255 LINE",
"903 255 LINE",
"906 294 LINE SMOOTH",
"917 437 OFFCURVE",
"836 532 OFFCURVE",
"703 532 CURVE SMOOTH",
"619 532 OFFCURVE",
"538 476 OFFCURVE",
"500 391 CURVE",
"470 476 OFFCURVE",
"390 532 OFFCURVE",
"300 532 CURVE SMOOTH"
);
},
{
closed = 1;
nodes = (
"97 386 OFFCURVE",
"178 490 OFFCURVE",
"299 490 CURVE SMOOTH",
"400 490 OFFCURVE",
"468 409 OFFCURVE",
"468 287 CURVE SMOOTH",
"468 132 OFFCURVE",
"386 29 OFFCURVE",
"264 29 CURVE SMOOTH",
"164 29 OFFCURVE",
"97 110 OFFCURVE",
"97 231 CURVE SMOOTH"
);
},
{
closed = 1;
nodes = (
"540 412 OFFCURVE",
"613 490 OFFCURVE",
"703 490 CURVE SMOOTH",
"816 490 OFFCURVE",
"861 402 OFFCURVE",
"858 296 CURVE",
"519 294 LINE"
);
}
);
width = 954;
},
{
layerId = m002;
paths = (
{
closed = 1;
nodes = (
"152 532 OFFCURVE",
"30 415 OFFCURVE",
"30 241 CURVE SMOOTH",
"30 88 OFFCURVE",
"134 -13 OFFCURVE",
"296 -13 CURVE SMOOTH",
"394 -13 OFFCURVE",
"476 23 OFFCURVE",
"530 89 CURVE",
"572 25 OFFCURVE",
"650 -13 OFFCURVE",
"759 -13 CURVE SMOOTH",
"911 -13 OFFCURVE",
"1020 55 OFFCURVE",
"1052 173 CURVE",
"853 177 LINE",
"843 145 OFFCURVE",
"810 124 OFFCURVE",
"764 124 CURVE SMOOTH",
"722 124 OFFCURVE",
"689 152 OFFCURVE",
"689 208 CURVE SMOOTH",
"689 212 LINE",
"1050 214 LINE",
"1052 273 LINE SMOOTH",
"1057 435 OFFCURVE",
"959 532 OFFCURVE",
"797 532 CURVE SMOOTH",
"689 532 OFFCURVE",
"604 497 OFFCURVE",
"549 428 CURVE",
"506 492 OFFCURVE",
"428 532 OFFCURVE",
"325 532 CURVE SMOOTH"
);
},
{
closed = 1;
nodes = (
"204 330 OFFCURVE",
"254 380 OFFCURVE",
"324 380 CURVE SMOOTH",
"385 380 OFFCURVE",
"424 339 OFFCURVE",
"424 276 CURVE SMOOTH",
"424 194 OFFCURVE",
"372 139 OFFCURVE",
"298 139 CURVE SMOOTH",
"233 139 OFFCURVE",
"194 185 OFFCURVE",
"198 254 CURVE SMOOTH"
);
},
{
closed = 1;
nodes = (
"719 367 OFFCURVE",
"752 395 OFFCURVE",
"794 395 CURVE SMOOTH",
"831 395 OFFCURVE",
"852 371 OFFCURVE",
"857 326 CURVE",
"702 322 LINE"
);
}
);
width = 1088;
}
);
leftKerningGroup = o;
leftMetricsKey = o;
rightKerningGroup = o;
rightMetricsKey = e;
unicode = 0153;
},
{
glyphname = p;
lastChange = "2025-09-15 17:30:08 +0000";
layers = (
{
anchors = (
{
name = Top;
position = "{292, 532}";
}
);
layerId = "FD4D3FDD-DE85-408F-A52A-FF600B1C6101";
paths = (
{
closed = 1;
nodes = (
"216 533 OFFCURVE",
"155 499 OFFCURVE",
"124 442 CURVE",
"121 442 LINE",
"141 520 LINE",
"78 520 LINE",
"27 -216 LINE",
"75 -216 LINE",
"90 0 LINE",
"91 93 LINE",
"93 94 LINE",
"119 28 OFFCURVE",
"184 -12 OFFCURVE",
"270 -12 CURVE SMOOTH",
"436 -12 OFFCURVE",
"499 144 OFFCURVE",
"499 292 CURVE SMOOTH",
"499 443 OFFCURVE",
"423 533 OFFCURVE",
"291 533 CURVE SMOOTH"
);
},
{
closed = 1;
nodes = (
"107 353 OFFCURVE",
"156 491 OFFCURVE",
"290 491 CURVE SMOOTH",
"393 491 OFFCURVE",
"451 418 OFFCURVE",
"451 291 CURVE SMOOTH",
"451 164 OFFCURVE",
"400 30 OFFCURVE",
"265 30 CURVE SMOOTH",
"164 30 OFFCURVE",
"107 102 OFFCURVE",
"107 227 CURVE SMOOTH"
);
}
);
width = 548;
},
{
anchors = (
{
name = Top;
position = "{372, 532}";
}
);
layerId = m002;
paths = (
{
closed = 1;
nodes = (
"333 533 OFFCURVE",
"286 514 OFFCURVE",
"255 483 CURVE",
"252 483 LINE",
"273 520 LINE",
"68 520 LINE",
"17 -216 LINE",
"215 -216 LINE",
"227 -29 LINE",
"227 23 LINE",
"230 23 LINE",
"258 0 OFFCURVE",
"302 -12 OFFCURVE",
"348 -12 CURVE SMOOTH",
"524 -12 OFFCURVE",
"628 99 OFFCURVE",
"628 286 CURVE SMOOTH",
"628 441 OFFCURVE",
"536 533 OFFCURVE",
"381 533 CURVE SMOOTH"
);
},
{
closed = 1;
nodes = (
"254 345 OFFCURVE",
"292 399 OFFCURVE",
"348 399 CURVE SMOOTH",
"394 399 OFFCURVE",
"421 357 OFFCURVE",
"421 287 CURVE SMOOTH",
"421 182 OFFCURVE",
"383 120 OFFCURVE",
"320 120 CURVE SMOOTH",
"269 120 OFFCURVE",
"242 170 OFFCURVE",
"247 254 CURVE SMOOTH"
);
}
);
width = 657;
}
);
leftKerningGroup = n;
leftMetricsKey = n;
rightKerningGroup = o;
rightMetricsKey = o;
unicode = 0070;
},
{
color = 10;
glyphname = thorn;
lastChange = "2025-09-15 17:33:21 +0000";
layers = (
{
layerId = "FD4D3FDD-DE85-408F-A52A-FF600B1C6101";
paths = (
{
closed = 1;
nodes = (
"216 533 OFFCURVE",
"155 499 OFFCURVE",
"124 442 CURVE",
"121 442 LINE",
"126 520 LINE",
"142 736 LINE",
"93 736 LINE",
"27 -216 LINE",
"75 -216 LINE",
"90 0 LINE",
"91 93 LINE",
"93 93 LINE",
"119 27 OFFCURVE",
"184 -12 OFFCURVE",
"270 -12 CURVE SMOOTH",
"436 -12 OFFCURVE",
"499 144 OFFCURVE",
"499 292 CURVE SMOOTH",
"499 443 OFFCURVE",
"423 533 OFFCURVE",
"291 533 CURVE SMOOTH"
);
},
{
closed = 1;
nodes = (
"107 353 OFFCURVE",
"156 491 OFFCURVE",
"290 491 CURVE SMOOTH",
"393 491 OFFCURVE",
"451 418 OFFCURVE",
"451 291 CURVE SMOOTH",
"451 164 OFFCURVE",
"400 30 OFFCURVE",
"265 30 CURVE SMOOTH",
"164 30 OFFCURVE",
"107 102 OFFCURVE",
"107 227 CURVE SMOOTH"
);
}
);
width = 548;
},
{
layerId = m002;
paths = (
{
closed = 1;
nodes = (
"333 533 OFFCURVE",
"286 514 OFFCURVE",
"255 483 CURVE",
"252 483 LINE",
"268 520 LINE",
"283 736 LINE",
"83 736 LINE",
"17 -216 LINE",
"215 -216 LINE",
"227 -29 LINE",
"227 23 LINE",
"230 23 LINE",
"258 0 OFFCURVE",
"302 -12 OFFCURVE",
"348 -12 CURVE SMOOTH",
"524 -12 OFFCURVE",
"628 99 OFFCURVE",
"628 286 CURVE SMOOTH",
"628 441 OFFCURVE",
"536 533 OFFCURVE",
"381 533 CURVE SMOOTH"
);
},
{
closed = 1;
nodes = (
"254 345 OFFCURVE",
"292 399 OFFCURVE",
"348 399 CURVE SMOOTH",
"395 399 OFFCURVE",
"421 358 OFFCURVE",
"421 287 CURVE SMOOTH",
"421 183 OFFCURVE",
"381 120 OFFCURVE",
"320 120 CURVE SMOOTH",
"268 120 OFFCURVE",
"242 170 OFFCURVE",
"247 254 CURVE SMOOTH"
);
}
);
width = 657;
}
);
leftKerningGroup = n;
leftMetricsKey = p;
rightKerningGroup = o;
rightMetricsKey = p;
unicode = 00FE;
},
{
glyphname = q;
lastChange = "2025-09-15 17:30:10 +0000";
layers = (
{
anchors = (
{
name = Top;
position = "{286, 532}";
}
);
layerId = "FD4D3FDD-DE85-408F-A52A-FF600B1C6101";
paths = (
{
closed = 1;
nodes = (
"125 533 OFFCURVE",
"49 392 OFFCURVE",
"49 224 CURVE SMOOTH",
"49 76 OFFCURVE",
"119 -12 OFFCURVE",
"242 -12 CURVE SMOOTH",
"326 -12 OFFCURVE",
"397 28 OFFCURVE",
"431 94 CURVE",
"433 93 LINE",
"422 0 LINE",
"407 -216 LINE",
"455 -216 LINE",
"506 520 LINE",
"443 520 LINE",
"453 441 LINE",
"450 441 LINE",
"427 498 OFFCURVE",
"368 533 OFFCURVE",
"293 533 CURVE SMOOTH"
);
},
{
closed = 1;
nodes = (
"97 353 OFFCURVE",
"149 491 OFFCURVE",
"292 491 CURVE SMOOTH",
"388 491 OFFCURVE",
"441 419 OFFCURVE",
"441 293 CURVE SMOOTH",
"441 163 OFFCURVE",
"387 30 OFFCURVE",
"249 30 CURVE SMOOTH",
"151 30 OFFCURVE",
"97 101 OFFCURVE",
"97 226 CURVE SMOOTH"
);
}
);
width = 548;
},
{
anchors = (
{
name = Top;
position = "{333, 532}";
}
);
layerId = m002;
paths = (
{
closed = 1;
nodes = (
"132 533 OFFCURVE",
"29 422 OFFCURVE",
"29 235 CURVE SMOOTH",
"29 80 OFFCURVE",
"122 -12 OFFCURVE",
"280 -12 CURVE SMOOTH",
"321 -12 OFFCURVE",
"365 1 OFFCURVE",
"396 23 CURVE",
"398 22 LINE",
"389 -29 LINE",
"377 -216 LINE",
"575 -216 LINE",
"626 520 LINE",
"421 518 LINE",
"438 481 LINE",
"435 481 LINE",
"407 514 OFFCURVE",
"358 533 OFFCURVE",
"305 533 CURVE SMOOTH"
);
},
{
closed = 1;
nodes = (
"244 345 OFFCURVE",
"282 399 OFFCURVE",
"338 399 CURVE SMOOTH",
"384 399 OFFCURVE",
"411 357 OFFCURVE",
"411 287 CURVE SMOOTH",
"411 182 OFFCURVE",
"373 120 OFFCURVE",
"310 120 CURVE SMOOTH",
"259 120 OFFCURVE",
"232 170 OFFCURVE",
"237 254 CURVE SMOOTH"
);
}
);
width = 658;
}
);
leftKerningGroup = o;
leftMetricsKey = o;
rightKerningGroup = n;
rightMetricsKey = n;
unicode = 0071;
},
{
glyphname = r;
lastChange = "2025-09-15 17:30:13 +0000";
layers = (
{
anchors = (
{
name = Bottom;
position = "{66, 0}";
},
{
name = Top;
position = "{217, 532}";
}
);
layerId = "FD4D3FDD-DE85-408F-A52A-FF600B1C6101";
paths = (
{
closed = 1;
nodes = (
"109 279 LINE SMOOTH",
"118 411 OFFCURVE",
"182 490 OFFCURVE",
"282 490 CURVE SMOOTH",
"303 490 OFFCURVE",
"328 486 OFFCURVE",
"348 478 CURVE",
"357 521 LINE",
"338 528 OFFCURVE",
"311 532 OFFCURVE",
"285 532 CURVE SMOOTH",
"215 532 OFFCURVE",
"157 499 OFFCURVE",
"124 442 CURVE",
"121 442 LINE",
"141 520 LINE",
"78 520 LINE",
"42 0 LINE",
"90 0 LINE"
);
}
);
width = 379;
},
{
anchors = (
{
name = Bottom;
position = "{146, 0}";
},
{
name = Top;
position = "{287, 532}";
}
);
layerId = m002;
paths = (
{
closed = 1;
nodes = (
"246 235 LINE SMOOTH",
"252 319 OFFCURVE",
"302 371 OFFCURVE",
"378 371 CURVE SMOOTH",
"398 371 OFFCURVE",
"422 367 OFFCURVE",
"442 359 CURVE",
"475 520 LINE",
"452 528 OFFCURVE",
"419 533 OFFCURVE",
"380 533 CURVE SMOOTH",
"327 533 OFFCURVE",
"280 513 OFFCURVE",
"255 480 CURVE",
"251 480 LINE",
"273 520 LINE",
"68 520 LINE",
"32 0 LINE",
"230 0 LINE"
);
}
);
width = 487;
}
);
leftKerningGroup = n;
leftMetricsKey = n;
rightKerningGroup = r;
rightMetricsKey = k;
unicode = 0072;
},
{
glyphname = s;
lastChange = "2025-09-15 19:23:12 +0000";
layers = (
{
anchors = (
{
name = Bottom;
position = "{212, 0}";
},
{
name = Top;
position = "{246, 532}";
}
);
layerId = "FD4D3FDD-DE85-408F-A52A-FF600B1C6101";
paths = (
{
closed = 1;
nodes = (
"128 532 OFFCURVE",
"58 474 OFFCURVE",
"58 375 CURVE SMOOTH",
"58 201 OFFCURVE",
"356 277 OFFCURVE",
"356 144 CURVE SMOOTH",
"356 73 OFFCURVE",
"303 29 OFFCURVE",
"218 29 CURVE SMOOTH",
"120 29 OFFCURVE",
"66 79 OFFCURVE",
"72 166 CURVE",
"24 168 LINE",
"16 55 OFFCURVE",
"87 -13 OFFCURVE",
"215 -13 CURVE SMOOTH",
"331 -13 OFFCURVE",
"404 47 OFFCURVE",
"404 150 CURVE SMOOTH",
"404 319 OFFCURVE",
"106 251 OFFCURVE",
"106 382 CURVE SMOOTH",
"106 448 OFFCURVE",
"155 490 OFFCURVE",
"235 490 CURVE SMOOTH",
"318 490 OFFCURVE",
"365 446 OFFCURVE",
"359 370 CURVE",
"407 368 LINE",
"415 470 OFFCURVE",
"354 532 OFFCURVE",
"245 532 CURVE SMOOTH"
);
}
);
width = 442;
},
{
anchors = (
{
name = Bottom;
position = "{260, 0}";
},
{
name = Top;
position = "{294, 532}";
}
);
layerId = m002;
paths = (
{
closed = 1;
nodes = (
"136 532 OFFCURVE",
"44 465 OFFCURVE",
"44 351 CURVE SMOOTH",
"44 159 OFFCURVE",
"327 227 OFFCURVE",
"327 171 CURVE SMOOTH",
"327 148 OFFCURVE",
"303 134 OFFCURVE",
"265 134 CURVE SMOOTH",
"230 134 OFFCURVE",
"210 150 OFFCURVE",
"212 180 CURVE",
"15 184 LINE",
"6 61 OFFCURVE",
"100 -13 OFFCURVE",
"266 -13 CURVE SMOOTH",
"427 -13 OFFCURVE",
"524 55 OFFCURVE",
"524 168 CURVE SMOOTH",
"524 350 OFFCURVE",
"241 295 OFFCURVE",
"241 347 CURVE SMOOTH",
"241 371 OFFCURVE",
"262 385 OFFCURVE",
"294 385 CURVE SMOOTH",
"322 385 OFFCURVE",
"337 372 OFFCURVE",
"335 346 CURVE",
"533 342 LINE",
"541 460 OFFCURVE",
"450 532 OFFCURVE",
"289 532 CURVE SMOOTH"
);
}
);
width = 551;
}
);
leftKerningGroup = s;
rightKerningGroup = s;
unicode = 0073;
},
{
color = 10;
glyphname = saltillo;
lastChange = "2025-09-15 17:30:15 +0000";
layers = (
{
layerId = "FD4D3FDD-DE85-408F-A52A-FF600B1C6101";
paths = (
{
closed = 1;
nodes = (
"78 520 LINE",
"75 409 LINE",
"105 409 LINE",
"118 520 LINE",
"133 730 LINE",
"93 730 LINE"
);
}
);
width = 160;
},
{
layerId = m002;
paths = (
{
closed = 1;
nodes = (
"68 520 LINE",
"65 409 LINE",
"205 409 LINE",
"218 520 LINE",
"233 730 LINE",
"83 730 LINE"
);
}
);
width = 250;
}
);
leftKerningGroup = n;
leftMetricsKey = n;
rightKerningGroup = n;
rightMetricsKey = n;
unicode = A78C;
},
{
color = 10;
glyphname = germandbls;
lastChange = "2025-09-15 17:30:18 +0000";
layers = (
{
layerId = "FD4D3FDD-DE85-408F-A52A-FF600B1C6101";
paths = (
{
closed = 1;
nodes = (
"42 0 LINE",
"90 0 LINE",
"130 582 LINE SMOOTH",
"135 649 OFFCURVE",
"181 695 OFFCURVE",
"244 695 CURVE SMOOTH",
"286 695 OFFCURVE",
"308 684 OFFCURVE",
"330 650 CURVE SMOOTH",
"414 518 LINE",
"310 506 OFFCURVE",
"243 448 OFFCURVE",
"243 364 CURVE SMOOTH",
"243 217 OFFCURVE",
"461 228 OFFCURVE",
"461 120 CURVE SMOOTH",
"461 67 OFFCURVE",
"414 29 OFFCURVE",
"347 29 CURVE SMOOTH",
"318 29 OFFCURVE",
"278 38 OFFCURVE",
"246 52 CURVE",
"244 10 LINE",
"268 -4 OFFCURVE",
"308 -13 OFFCURVE",
"346 -13 CURVE SMOOTH",
"442 -13 OFFCURVE",
"509 42 OFFCURVE",
"509 126 CURVE SMOOTH",
"509 267 OFFCURVE",
"291 261 OFFCURVE",
"291 370 CURVE SMOOTH",
"291 429 OFFCURVE",
"351 473 OFFCURVE",
"440 478 CURVE",
"473 520 LINE",
"372 672 LINE",
"344 719 OFFCURVE",
"312 736 OFFCURVE",
"247 736 CURVE SMOOTH",
"155 736 OFFCURVE",
"89 671 OFFCURVE",
"82 572 CURVE SMOOTH"
);
}
);
width = 569;
},
{
layerId = m002;
paths = (
{
closed = 1;
nodes = (
"32 0 LINE",
"230 0 LINE",
"265 501 LINE SMOOTH",
"268 546 OFFCURVE",
"294 575 OFFCURVE",
"332 575 CURVE SMOOTH",
"354 575 OFFCURVE",
"376 574 OFFCURVE",
"403 531 CURVE SMOOTH",
"419 506 LINE",
"330 482 OFFCURVE",
"292 427 OFFCURVE",
"292 356 CURVE SMOOTH",
"292 227 OFFCURVE",
"437 210 OFFCURVE",
"435 174 CURVE SMOOTH",
"434 157 OFFCURVE",
"418 149 OFFCURVE",
"393 149 CURVE SMOOTH",
"370 149 OFFCURVE",
"336 157 OFFCURVE",
"303 171 CURVE",
"295 11 LINE",
"320 -3 OFFCURVE",
"366 -13 OFFCURVE",
"419 -13 CURVE SMOOTH",
"552 -13 OFFCURVE",
"630 51 OFFCURVE",
"630 151 CURVE SMOOTH",
"630 282 OFFCURVE",
"488 297 OFFCURVE",
"488 339 CURVE SMOOTH",
"488 361 OFFCURVE",
"518 377 OFFCURVE",
"532 360 CURVE",
"675 503 LINE",
"554 647 LINE SMOOTH",
"492 721 OFFCURVE",
"427 736 OFFCURVE",
"328 736 CURVE SMOOTH",
"173 736 OFFCURVE",
"78 654 OFFCURVE",
"68 513 CURVE SMOOTH"
);
}
);
width = 688;
}
);
leftKerningGroup = n;
leftMetricsKey = n;
rightKerningGroup = germandbls;
rightMetricsKey = o;
unicode = 00DF;
},
{
glyphname = t;
lastChange = "2025-09-15 19:25:05 +0000";
layers = (
{
anchors = (
{
name = Bottom;
position = "{235, 0}";
},
{
name = Top;
position = "{302, 532}";
},
{
name = Top_EC;
position = "{253, 532}";
}
);
hints = (
{
place = "{149, 0}";
type = Stem;
}
);
layerId = "FD4D3FDD-DE85-408F-A52A-FF600B1C6101";
paths = (
{
closed = 1;
nodes = (
"117 31 OFFCURVE",
"155 -13 OFFCURVE",
"259 -13 CURVE SMOOTH",
"281 -13 OFFCURVE",
"296 -10 OFFCURVE",
"314 -3 CURVE",
"316 39 LINE",
"303 31 OFFCURVE",
"287 28 OFFCURVE",
"258 28 CURVE SMOOTH",
"191 28 OFFCURVE",
"167 59 OFFCURVE",
"172 138 CURVE SMOOTH",
"196 478 LINE",
"330 478 LINE",
"333 520 LINE",
"199 520 LINE",
"207 629 LINE",
"159 629 LINE",
"151 518 LINE",
"58 523 LINE",
"55 478 LINE",
"148 478 LINE",
"124 140 LINE SMOOTH"
);
}
);
width = 372;
},
{
anchors = (
{
name = Bottom;
position = "{297, 0}";
},
{
name = Top;
position = "{413, 520}";
},
{
name = Top_EC;
position = "{404, 520}";
}
);
hints = (
{
place = "{149, 0}";
type = Stem;
}
);
layerId = m002;
paths = (
{
closed = 1;
nodes = (
"89 57 OFFCURVE",
"173 -13 OFFCURVE",
"321 -13 CURVE SMOOTH",
"356 -13 OFFCURVE",
"389 -9 OFFCURVE",
"408 -1 CURVE",
"415 161 LINE",
"391 152 OFFCURVE",
"361 146 OFFCURVE",
"332 146 CURVE SMOOTH",
"307 146 OFFCURVE",
"294 161 OFFCURVE",
"296 189 CURVE SMOOTH",
"309 370 LINE",
"413 370 LINE",
"423 520 LINE",
"319 520 LINE",
"327 629 LINE",
"129 629 LINE",
"121 518 LINE",
"48 523 LINE",
"38 370 LINE",
"111 370 LINE",
"97 173 LINE SMOOTH"
);
}
);
width = 456;
}
);
leftKerningGroup = t;
rightKerningGroup = t;
unicode = 0074;
},
{
color = 10;
glyphname = tbar;
lastChange = "2025-09-15 19:10:54 +0000";
layers = (
{
layerId = "FD4D3FDD-DE85-408F-A52A-FF600B1C6101";
paths = (
{
closed = 1;
nodes = (
"117 31 OFFCURVE",
"155 -13 OFFCURVE",
"259 -13 CURVE SMOOTH",
"281 -13 OFFCURVE",
"296 -10 OFFCURVE",
"314 -3 CURVE",
"316 39 LINE",
"303 31 OFFCURVE",
"287 28 OFFCURVE",
"258 28 CURVE SMOOTH",
"191 28 OFFCURVE",
"167 59 OFFCURVE",
"172 138 CURVE SMOOTH",
"185 328 LINE",
"320 328 LINE",
"323 370 LINE",
"188 370 LINE",
"196 478 LINE",
"330 478 LINE",
"333 520 LINE",
"199 520 LINE",
"207 629 LINE",
"159 629 LINE",
"151 518 LINE",
"58 523 LINE",
"55 478 LINE",
"148 478 LINE",
"140 368 LINE",
"48 373 LINE",
"45 328 LINE",
"137 328 LINE",
"124 140 LINE SMOOTH"
);
}
);
width = 372;
},
{
layerId = m002;
paths = (
{
closed = 1;
nodes = (
"89 56 OFFCURVE",
"172 -13 OFFCURVE",
"321 -13 CURVE SMOOTH",
"358 -13 OFFCURVE",
"390 -9 OFFCURVE",
"408 -1 CURVE",
"415 161 LINE",
"390 152 OFFCURVE",
"359 146 OFFCURVE",
"332 146 CURVE SMOOTH",
"307 146 OFFCURVE",
"294 162 OFFCURVE",
"296 189 CURVE SMOOTH",
"299 230 LINE",
"403 230 LINE",
"410 330 LINE",
"306 330 LINE",
"309 370 LINE",
"413 370 LINE",
"423 520 LINE",
"319 520 LINE",
"327 629 LINE",
"129 629 LINE",
"121 518 LINE",
"48 523 LINE",
"38 370 LINE",
"111 370 LINE",
"108 328 LINE",
"35 333 LINE",
"28 230 LINE",
"101 230 LINE",
"97 173 LINE SMOOTH"
);
}
);
width = 456;
}
);
leftKerningGroup = t;
leftMetricsKey = t;
rightKerningGroup = t;
rightMetricsKey = t;
unicode = 0167;
},
{
color = 10;
glyphname = tdiagonalstroke;
lastChange = "2025-09-15 19:10:56 +0000";
layers = (
{
layerId = "FD4D3FDD-DE85-408F-A52A-FF600B1C6101";
paths = (
{
closed = 1;
nodes = (
"124 132 OFFCURVE",
"123 124 OFFCURVE",
"124 117 CURVE",
"51 -50 LINE",
"92 -50 LINE",
"134 48 LINE",
"152 6 OFFCURVE",
"192 -13 OFFCURVE",
"259 -13 CURVE SMOOTH",
"281 -13 OFFCURVE",
"296 -10 OFFCURVE",
"314 -3 CURVE",
"316 39 LINE",
"303 31 OFFCURVE",
"287 28 OFFCURVE",
"258 28 CURVE SMOOTH",
"193 28 OFFCURVE",
"168 58 OFFCURVE",
"172 133 CURVE",
"322 478 LINE",
"330 478 LINE",
"332 500 LINE",
"357 558 LINE",
"315 558 LINE",
"299 520 LINE",
"199 520 LINE",
"207 629 LINE",
"159 629 LINE",
"151 518 LINE",
"58 523 LINE",
"55 478 LINE",
"148 478 LINE",
"124 140 LINE SMOOTH"
);
},
{
closed = 1;
nodes = (
"196 478 LINE",
"281 478 LINE",
"180 246 LINE"
);
}
);
width = 376;
},
{
layerId = m002;
paths = (
{
closed = 1;
nodes = (
"92 98 OFFCURVE",
"126 42 OFFCURVE",
"189 13 CURVE",
"159 -50 LINE",
"212 -50 LINE",
"234 -3 LINE",
"259 -9 OFFCURVE",
"287 -13 OFFCURVE",
"321 -13 CURVE SMOOTH",
"356 -13 OFFCURVE",
"389 -9 OFFCURVE",
"408 -1 CURVE",
"415 161 LINE",
"391 152 OFFCURVE",
"361 146 OFFCURVE",
"332 146 CURVE SMOOTH",
"319 146 OFFCURVE",
"308 149 OFFCURVE",
"301 159 CURVE",
"394 370 LINE",
"413 370 LINE",
"417 421 LINE",
"476 558 LINE",
"424 558 LINE",
"407 520 LINE",
"319 520 LINE",
"327 629 LINE",
"129 629 LINE",
"121 518 LINE",
"48 523 LINE",
"38 370 LINE",
"111 370 LINE",
"97 173 LINE SMOOTH"
);
},
{
closed = 1;
nodes = (
"309 370 LINE",
"342 370 LINE",
"301 276 LINE"
);
}
);
width = 485;
}
);
leftKerningGroup = t;
leftMetricsKey = t;
rightKerningGroup = t;
rightMetricsKey = t;
unicode = 2C66;
},
{
glyphname = u;
lastChange = "2025-09-15 19:25:16 +0000";
layers = (
{
anchors = (
{
name = Bottom;
position = "{237, 0}";
},
{
name = Top;
position = "{272, 520}";
}
);
layerId = "FD4D3FDD-DE85-408F-A52A-FF600B1C6101";
paths = (
{
closed = 1;
nodes = (
"290 -13 OFFCURVE",
"354 23 OFFCURVE",
"384 78 CURVE",
"386 78 LINE",
"366 0 LINE",
"429 0 LINE",
"465 520 LINE",
"417 520 LINE",
"395 208 LINE SMOOTH",
"387 96 OFFCURVE",
"324 29 OFFCURVE",
"225 29 CURVE SMOOTH",
"145 29 OFFCURVE",
"96 80 OFFCURVE",
"101 158 CURVE SMOOTH",
"126 520 LINE",
"78 520 LINE",
"52 148 LINE SMOOTH",
"45 52 OFFCURVE",
"117 -13 OFFCURVE",
"225 -13 CURVE SMOOTH"
);
}
);
width = 507;
},
{
anchors = (
{
name = Bottom;
position = "{292, 0}";
},
{
name = Top;
position = "{337, 520}";
}
);
layerId = m002;
paths = (
{
closed = 1;
nodes = (
"307 -13 OFFCURVE",
"359 8 OFFCURVE",
"389 43 CURVE",
"392 43 LINE",
"366 0 LINE",
"571 0 LINE",
"607 520 LINE",
"409 520 LINE",
"388 224 LINE SMOOTH",
"385 179 OFFCURVE",
"354 149 OFFCURVE",
"307 149 CURVE SMOOTH",
"264 149 OFFCURVE",
"242 175 OFFCURVE",
"245 220 CURVE SMOOTH",
"266 520 LINE",
"68 520 LINE",
"44 172 LINE SMOOTH",
"36 58 OFFCURVE",
"112 -13 OFFCURVE",
"249 -13 CURVE SMOOTH"
);
}
);
width = 639;
}
);
leftKerningGroup = u;
leftMetricsKey = n;
rightKerningGroup = u;
rightMetricsKey = n;
unicode = 0075;
},
{
color = 10;
glyphname = "upsilon-latin";
lastChange = "2025-09-15 17:32:48 +0000";
layers = (
{
layerId = "FD4D3FDD-DE85-408F-A52A-FF600B1C6101";
paths = (
{
closed = 1;
nodes = (
"430 -13 OFFCURVE",
"522 86 OFFCURVE",
"522 253 CURVE SMOOTH",
"522 363 OFFCURVE",
"474 444 OFFCURVE",
"392 477 CURVE",
"539 477 LINE",
"542 520 LINE",
"340 520 LINE",
"337 477 LINE",
"424 454 OFFCURVE",
"475 374 OFFCURVE",
"475 263 CURVE SMOOTH",
"475 116 OFFCURVE",
"400 29 OFFCURVE",
"273 29 CURVE SMOOTH",
"167 29 OFFCURVE",
"104 94 OFFCURVE",
"104 203 CURVE SMOOTH",
"104 347 OFFCURVE",
"168 448 OFFCURVE",
"277 477 CURVE",
"280 520 LINE",
"78 520 LINE",
"75 477 LINE",
"208 477 LINE",
"113 439 OFFCURVE",
"57 342 OFFCURVE",
"57 207 CURVE SMOOTH",
"57 69 OFFCURVE",
"138 -13 OFFCURVE",
"275 -13 CURVE SMOOTH"
);
}
);
width = 584;
},
{
layerId = m002;
paths = (
{
closed = 1;
nodes = (
"520 -13 OFFCURVE",
"633 69 OFFCURVE",
"633 207 CURVE SMOOTH",
"633 282 OFFCURVE",
"593 338 OFFCURVE",
"522 370 CURVE",
"652 370 LINE",
"662 520 LINE",
"395 520 LINE",
"385 370 LINE",
"413 359 OFFCURVE",
"430 326 OFFCURVE",
"430 281 CURVE SMOOTH",
"430 192 OFFCURVE",
"395 139 OFFCURVE",
"336 139 CURVE SMOOTH",
"290 139 OFFCURVE",
"263 175 OFFCURVE",
"263 237 CURVE SMOOTH",
"263 306 OFFCURVE",
"286 355 OFFCURVE",
"325 370 CURVE",
"335 520 LINE",
"68 520 LINE",
"58 370 LINE",
"175 370 LINE",
"96 335 OFFCURVE",
"52 271 OFFCURVE",
"52 185 CURVE SMOOTH",
"52 61 OFFCURVE",
"155 -13 OFFCURVE",
"330 -13 CURVE SMOOTH"
);
}
);
width = 694;
}
);
leftKerningGroup = o;
leftMetricsKey = u;
rightKerningGroup = o;
rightMetricsKey = u;
unicode = 028A;
},
{
glyphname = v;
lastChange = "2025-09-15 19:25:47 +0000";
layers = (
{
anchors = (
{
name = Top;
position = "{278, 520}";
}
);
layerId = "FD4D3FDD-DE85-408F-A52A-FF600B1C6101";
paths = (
{
closed = 1;
nodes = (
"219 0 LINE",
"263 0 LINE",
"496 520 LINE",
"446 520 LINE",
"246 68 LINE",
"244 68 LINE",
"108 520 LINE",
"58 520 LINE"
);
}
);
width = 518;
},
{
anchors = (
{
name = Top;
position = "{366, 520}";
}
);
layerId = m002;
paths = (
{
closed = 1;
nodes = (
"238 0 LINE",
"422 0 LINE",
"686 520 LINE",
"479 520 LINE",
"346 237 LINE",
"344 237 LINE",
"251 520 LINE",
"48 520 LINE"
);
}
);
width = 698;
}
);
leftKerningGroup = v;
leftMetricsKey = "=|k";
rightKerningGroup = v;
rightMetricsKey = k;
unicode = 0076;
},
{
glyphname = w;
lastChange = "2025-09-15 17:32:42 +0000";
layers = (
{
anchors = (
{
name = Top;
position = "{399, 520}";
}
);
layerId = "FD4D3FDD-DE85-408F-A52A-FF600B1C6101";
paths = (
{
closed = 1;
nodes = (
"159 0 LINE",
"209 0 LINE",
"392 447 LINE",
"394 447 LINE",
"515 0 LINE",
"565 0 LINE",
"738 520 LINE",
"688 520 LINE",
"543 83 LINE",
"541 83 LINE",
"423 520 LINE",
"373 520 LINE",
"193 84 LINE",
"191 84 LINE",
"108 520 LINE",
"58 520 LINE"
);
}
);
width = 760;
},
{
anchors = (
{
name = Top;
position = "{460, 520}";
}
);
layerId = m002;
paths = (
{
closed = 1;
nodes = (
"151 0 LINE",
"339 0 LINE",
"444 280 LINE",
"446 280 LINE",
"511 0 LINE",
"699 0 LINE",
"876 520 LINE",
"676 520 LINE",
"606 296 LINE",
"604 296 LINE",
"534 520 LINE",
"386 520 LINE",
"286 296 LINE",
"284 296 LINE",
"244 520 LINE",
"48 520 LINE"
);
}
);
width = 888;
}
);
leftKerningGroup = v;
leftMetricsKey = "=|k";
rightKerningGroup = v;
rightMetricsKey = k;
unicode = 0077;
},
{
glyphname = x;
lastChange = "2025-09-15 18:40:06 +0000";
layers = (
{
anchors = (
{
name = Top;
position = "{277, 520}";
}
);
layerId = "FD4D3FDD-DE85-408F-A52A-FF600B1C6101";
paths = (
{
closed = 1;
nodes = (
"227 260 LINE",
"22 0 LINE",
"78 0 LINE",
"252 222 LINE",
"397 0 LINE",
"451 0 LINE",
"282 260 LINE",
"487 520 LINE",
"432 520 LINE",
"257 298 LINE",
"113 520 LINE",
"58 520 LINE"
);
}
);
width = 509;
},
{
anchors = (
{
name = Top;
position = "{354, 520}";
}
);
layerId = m002;
paths = (
{
closed = 1;
nodes = (
"225 261 LINE",
"12 0 LINE",
"235 0 LINE",
"327 112 LINE",
"403 0 LINE",
"622 0 LINE",
"446 259 LINE",
"659 520 LINE",
"436 520 LINE",
"344 408 LINE",
"268 520 LINE",
"49 520 LINE"
);
}
);
width = 671;
}
);
leftKerningGroup = x;
leftMetricsKey = "=|k";
rightKerningGroup = x;
rightMetricsKey = k;
unicode = 0078;
},
{
glyphname = y;
lastChange = "2025-09-15 17:32:17 +0000";
layers = (
{
anchors = (
{
name = Bottom;
position = "{357, 0}";
},
{
name = Top;
position = "{302, 520}";
}
);
layerId = "FD4D3FDD-DE85-408F-A52A-FF600B1C6101";
paths = (
{
closed = 1;
nodes = (
"545 520 LINE",
"495 520 LINE",
"287 75 LINE",
"285 75 LINE",
"108 520 LINE",
"58 520 LINE",
"259 16 LINE",
"219 -69 LINE SMOOTH",
"191 -129 OFFCURVE",
"151 -161 OFFCURVE",
"102 -161 CURVE SMOOTH",
"84 -161 OFFCURVE",
"62 -158 OFFCURVE",
"51 -152 CURVE",
"49 -200 LINE",
"63 -205 OFFCURVE",
"81 -208 OFFCURVE",
"97 -208 CURVE SMOOTH",
"172 -208 OFFCURVE",
"226 -166 OFFCURVE",
"270 -71 CURVE SMOOTH"
);
}
);
width = 567;
},
{
anchors = (
{
name = Bottom;
position = "{514, 0}";
},
{
name = Top;
position = "{363, 520}";
}
);
hints = (
{
horizontal = 1;
place = "{520, -20}";
target = down;
type = TopGhost;
}
);
layerId = m002;
paths = (
{
closed = 1;
nodes = (
"676 520 LINE",
"476 520 LINE",
"352 266 LINE",
"350 266 LINE",
"244 520 LINE",
"48 520 LINE",
"245 50 LINE",
"215 -10 LINE SMOOTH",
"204 -32 OFFCURVE",
"180 -48 OFFCURVE",
"150 -48 CURVE SMOOTH",
"117 -48 OFFCURVE",
"89 -46 OFFCURVE",
"77 -40 CURVE",
"70 -198 LINE",
"86 -203 OFFCURVE",
"109 -207 OFFCURVE",
"137 -207 CURVE SMOOTH",
"254 -207 OFFCURVE",
"329 -200 OFFCURVE",
"401 -50 CURVE SMOOTH"
);
}
);
width = 688;
}
);
leftKerningGroup = y;
leftMetricsKey = "=|k";
rightKerningGroup = y;
rightMetricsKey = k;
unicode = 0079;
},
{
glyphname = z;
lastChange = "2025-09-15 17:30:22 +0000";
layers = (
{
anchors = (
{
name = Bottom;
position = "{240, 0}";
},
{
name = Top;
position = "{267, 520}";
}
);
layerId = "FD4D3FDD-DE85-408F-A52A-FF600B1C6101";
paths = (
{
closed = 1;
nodes = (
"449 520 LINE",
"102 520 LINE",
"99 480 LINE",
"388 480 LINE",
"45 40 LINE",
"43 0 LINE",
"414 0 LINE",
"416 40 LINE",
"104 40 LINE",
"446 480 LINE"
);
}
);
width = 472;
},
{
anchors = (
{
name = Bottom;
position = "{237, 0}";
},
{
name = Top;
position = "{278, 520}";
}
);
layerId = m002;
paths = (
{
closed = 1;
nodes = (
"469 520 LINE",
"79 520 LINE",
"69 370 LINE",
"255 370 LINE",
"42 150 LINE",
"33 0 LINE",
"434 0 LINE",
"444 150 LINE",
"245 150 LINE",
"459 370 LINE"
);
}
);
width = 502;
}
);
leftKerningGroup = z;
leftMetricsKey = n;
rightKerningGroup = z;
unicode = 007A;
},
{
color = 10;
glyphname = a.ss01;
lastChange = "2025-09-15 17:30:34 +0000";
layers = (
{
anchors = (
{
name = Bottom;
position = "{194, 0}";
},
{
name = Ogonek;
position = "{374, 0}";
},
{
name = Top;
position = "{258, 532}";
}
);
layerId = "FD4D3FDD-DE85-408F-A52A-FF600B1C6101";
paths = (
{
closed = 1;
nodes = (
"260 -13 OFFCURVE",
"329 23 OFFCURVE",
"364 78 CURVE",
"366 78 LINE",
"346 0 LINE",
"409 0 LINE",
"435 373 LINE SMOOTH",
"442 472 OFFCURVE",
"379 532 OFFCURVE",
"268 532 CURVE SMOOTH",
"150 532 OFFCURVE",
"78 477 OFFCURVE",
"71 383 CURVE",
"119 381 LINE",
"124 449 OFFCURVE",
"179 490 OFFCURVE",
"267 490 CURVE SMOOTH",
"344 490 OFFCURVE",
"388 455 OFFCURVE",
"388 393 CURVE SMOOTH",
"388 336 OFFCURVE",
"338 307 OFFCURVE",
"258 289 CURVE SMOOTH",
"120 259 OFFCURVE",
"41 212 OFFCURVE",
"41 121 CURVE SMOOTH",
"41 41 OFFCURVE",
"99 -13 OFFCURVE",
"192 -13 CURVE SMOOTH"
);
},
{
closed = 1;
nodes = (
"93 189 OFFCURVE",
"154 221 OFFCURVE",
"254 244 CURVE SMOOTH",
"314 258 OFFCURVE",
"354 274 OFFCURVE",
"381 302 CURVE",
"375 213 LINE SMOOTH",
"368 103 OFFCURVE",
"294 29 OFFCURVE",
"192 29 CURVE SMOOTH",
"126 29 OFFCURVE",
"84 69 OFFCURVE",
"89 130 CURVE SMOOTH"
);
}
);
width = 487;
},
{
anchors = (
{
name = Bottom;
position = "{226, 0}";
},
{
name = Ogonek;
position = "{477, 0}";
},
{
name = Top;
position = "{316, 532}";
}
);
layerId = m002;
paths = (
{
closed = 1;
nodes = (
"287 -13 OFFCURVE",
"334 10 OFFCURVE",
"364 40 CURVE",
"367 40 LINE",
"344 0 LINE",
"549 0 LINE",
"573 352 LINE SMOOTH",
"581 464 OFFCURVE",
"485 532 OFFCURVE",
"314 532 CURVE SMOOTH",
"155 532 OFFCURVE",
"57 462 OFFCURVE",
"48 339 CURVE",
"246 335 LINE",
"249 371 OFFCURVE",
"279 395 OFFCURVE",
"325 395 CURVE SMOOTH",
"357 395 OFFCURVE",
"376 385 OFFCURVE",
"376 368 CURVE SMOOTH",
"376 329 OFFCURVE",
"326 316 OFFCURVE",
"238 305 CURVE SMOOTH",
"106 284 OFFCURVE",
"22 226 OFFCURVE",
"22 134 CURVE SMOOTH",
"22 41 OFFCURVE",
"98 -13 OFFCURVE",
"227 -13 CURVE SMOOTH"
);
},
{
closed = 1;
nodes = (
"221 178 OFFCURVE",
"238 196 OFFCURVE",
"279 205 CURVE SMOOTH",
"325 216 OFFCURVE",
"348 223 OFFCURVE",
"369 239 CURVE",
"365 211 LINE",
"362 158 OFFCURVE",
"324 125 OFFCURVE",
"267 125 CURVE SMOOTH",
"239 125 OFFCURVE",
"221 137 OFFCURVE",
"221 154 CURVE SMOOTH"
);
}
);
width = 617;
}
);
leftKerningGroup = o;
leftMetricsKey = a;
rightKerningGroup = n;
rightMetricsKey = n;
},
{
color = 10;
glyphname = astroke.ss01;
lastChange = "2025-09-15 17:32:14 +0000";
layers = (
{
layerId = "FD4D3FDD-DE85-408F-A52A-FF600B1C6101";
paths = (
{
closed = 1;
nodes = (
"260 -13 OFFCURVE",
"329 22 OFFCURVE",
"364 77 CURVE",
"366 78 LINE",
"346 0 LINE",
"409 0 LINE",
"435 373 LINE SMOOTH",
"439 433 OFFCURVE",
"418 478 OFFCURVE",
"376 505 CURVE",
"399 558 LINE",
"347 558 LINE",
"332 524 LINE",
"313 529 OFFCURVE",
"292 532 OFFCURVE",
"268 532 CURVE SMOOTH",
"150 532 OFFCURVE",
"78 477 OFFCURVE",
"71 383 CURVE",
"119 381 LINE",
"124 449 OFFCURVE",
"179 490 OFFCURVE",
"267 490 CURVE SMOOTH",
"285 490 OFFCURVE",
"301 488 OFFCURVE",
"315 484 CURVE",
"227 282 LINE",
"108 251 OFFCURVE",
"41 205 OFFCURVE",
"41 121 CURVE SMOOTH",
"41 69 OFFCURVE",
"65 29 OFFCURVE",
"107 6 CURVE",
"83 -50 LINE",
"134 -50 LINE",
"152 -9 LINE",
"164 -12 OFFCURVE",
"178 -13 OFFCURVE",
"192 -13 CURVE SMOOTH"
);
},
{
closed = 1;
nodes = (
"92 179 OFFCURVE",
"134 209 OFFCURVE",
"205 231 CURVE",
"125 47 LINE",
"100 65 OFFCURVE",
"86 94 OFFCURVE",
"89 130 CURVE SMOOTH"
);
},
{
closed = 1;
nodes = (
"263 246 LINE",
"318 260 OFFCURVE",
"355 275 OFFCURVE",
"381 302 CURVE",
"375 213 LINE SMOOTH",
"367 103 OFFCURVE",
"294 29 OFFCURVE",
"192 29 CURVE SMOOTH",
"184 29 OFFCURVE",
"176 30 OFFCURVE",
"169 31 CURVE"
);
},
{
closed = 1;
nodes = (
"358 464 LINE",
"378 447 OFFCURVE",
"388 423 OFFCURVE",
"388 393 CURVE SMOOTH",
"388 343 OFFCURVE",
"349 314 OFFCURVE",
"285 296 CURVE"
);
}
);
width = 487;
},
{
layerId = m002;
paths = (
{
closed = 1;
nodes = (
"287 -13 OFFCURVE",
"337 5 OFFCURVE",
"363 38 CURVE",
"365 40 LINE",
"342 0 LINE",
"549 0 LINE",
"573 352 LINE SMOOTH",
"579 436 OFFCURVE",
"526 495 OFFCURVE",
"430 519 CURVE",
"449 558 LINE",
"402 558 LINE",
"387 528 LINE",
"366 531 OFFCURVE",
"342 532 OFFCURVE",
"314 532 CURVE SMOOTH",
"155 532 OFFCURVE",
"57 462 OFFCURVE",
"48 339 CURVE",
"246 335 LINE",
"249 371 OFFCURVE",
"279 395 OFFCURVE",
"325 395 CURVE SMOOTH",
"327 395 OFFCURVE",
"331 395 OFFCURVE",
"334 395 CURVE",
"293 313 LINE",
"168 288 OFFCURVE",
"30 269 OFFCURVE",
"22 146 CURVE SMOOTH",
"16 63 OFFCURVE",
"68 9 OFFCURVE",
"159 -8 CURVE",
"137 -50 LINE",
"185 -50 LINE",
"204 -12 LINE",
"209 -13 OFFCURVE",
"217 -13 OFFCURVE",
"227 -13 CURVE SMOOTH"
);
},
{
closed = 1;
nodes = (
"222 173 OFFCURVE",
"230 185 OFFCURVE",
"246 194 CURVE",
"222 145 LINE",
"220 149 OFFCURVE",
"220 154 OFFCURVE",
"221 157 CURVE SMOOTH"
);
},
{
closed = 1;
nodes = (
"300 210 LINE",
"333 219 OFFCURVE",
"351 226 OFFCURVE",
"369 239 CURVE",
"365 211 LINE SMOOTH",
"362 158 OFFCURVE",
"324 125 OFFCURVE",
"267 125 CURVE SMOOTH",
"265 125 OFFCURVE",
"262 124 OFFCURVE",
"258 125 CURVE"
);
},
{
closed = 1;
nodes = (
"372 380 LINE",
"376 375 OFFCURVE",
"376 369 OFFCURVE",
"376 365 CURVE SMOOTH",
"375 347 OFFCURVE",
"363 336 OFFCURVE",
"347 328 CURVE"
);
}
);
width = 617;
}
);
leftKerningGroup = o;
leftMetricsKey = a;
rightKerningGroup = n;
rightMetricsKey = a;
},
{
color = 10;
glyphname = germandbls.ss01;
lastChange = "2025-09-15 17:30:36 +0000";
layers = (
{
layerId = "FD4D3FDD-DE85-408F-A52A-FF600B1C6101";
paths = (
{
closed = 1;
nodes = (
"90 0 LINE",
"130 582 LINE SMOOTH",
"135 649 OFFCURVE",
"181 694 OFFCURVE",
"244 694 CURVE SMOOTH",
"300 694 LINE",
"253 661 OFFCURVE",
"225 611 OFFCURVE",
"225 547 CURVE SMOOTH",
"225 375 OFFCURVE",
"490 338 OFFCURVE",
"490 181 CURVE SMOOTH",
"490 91 OFFCURVE",
"419 29 OFFCURVE",
"317 29 CURVE SMOOTH",
"279 29 OFFCURVE",
"228 38 OFFCURVE",
"192 52 CURVE",
"190 10 LINE",
"214 -4 OFFCURVE",
"263 -13 OFFCURVE",
"316 -13 CURVE SMOOTH",
"446 -13 OFFCURVE",
"538 68 OFFCURVE",
"538 189 CURVE SMOOTH",
"538 365 OFFCURVE",
"273 410 OFFCURVE",
"273 553 CURVE SMOOTH",
"273 636 OFFCURVE",
"343 694 OFFCURVE",
"443 694 CURVE",
"445 736 LINE",
"248 736 LINE SMOOTH",
"155 736 OFFCURVE",
"89 671 OFFCURVE",
"82 572 CURVE SMOOTH",
"42 0 LINE"
);
}
);
width = 594;
},
{
layerId = m002;
paths = (
{
closed = 1;
nodes = (
"230 0 LINE",
"266 521 LINE SMOOTH",
"268 552 OFFCURVE",
"290 574 OFFCURVE",
"317 574 CURVE SMOOTH",
"392 576 LINE",
"386 558 OFFCURVE",
"383 540 OFFCURVE",
"382 523 CURVE SMOOTH",
"372 381 OFFCURVE",
"482 304 OFFCURVE",
"482 214 CURVE SMOOTH",
"482 176 OFFCURVE",
"457 149 OFFCURVE",
"419 149 CURVE SMOOTH",
"393 149 OFFCURVE",
"353 157 OFFCURVE",
"319 171 CURVE",
"311 11 LINE",
"335 -3 OFFCURVE",
"385 -13 OFFCURVE",
"439 -13 CURVE SMOOTH",
"578 -13 OFFCURVE",
"690 63 OFFCURVE",
"690 220 CURVE SMOOTH",
"690 376 OFFCURVE",
"590 441 OFFCURVE",
"590 511 CURVE SMOOTH",
"590 548 OFFCURVE",
"611 574 OFFCURVE",
"636 574 CURVE",
"645 736 LINE",
"306 736 LINE SMOOTH",
"169 736 OFFCURVE",
"79 672 OFFCURVE",
"72 573 CURVE SMOOTH",
"32 0 LINE"
);
}
);
width = 724;
}
);
leftKerningGroup = n;
leftMetricsKey = n;
rightKerningGroup = germandbls;
rightMetricsKey = o;
},
{
color = 10;
glyphname = f_f;
lastChange = "2025-09-15 17:32:11 +0000";
layers = (
{
layerId = "FD4D3FDD-DE85-408F-A52A-FF600B1C6101";
paths = (
{
closed = 1;
nodes = (
"171 518 LINE",
"78 523 LINE",
"75 478 LINE",
"168 478 LINE",
"135 0 LINE",
"183 0 LINE",
"216 478 LINE",
"433 478 LINE",
"400 0 LINE",
"448 0 LINE",
"481 478 LINE",
"605 478 LINE",
"608 520 LINE",
"484 520 LINE",
"488 572 LINE SMOOTH",
"493 649 OFFCURVE",
"541 695 OFFCURVE",
"616 695 CURVE SMOOTH",
"637 695 OFFCURVE",
"659 689 OFFCURVE",
"674 681 CURVE",
"676 723 LINE",
"658 731 OFFCURVE",
"636 736 OFFCURVE",
"618 736 CURVE SMOOTH",
"513 736 OFFCURVE",
"447 676 OFFCURVE",
"440 574 CURVE SMOOTH",
"436 518 LINE",
"343 520 LINE",
"219 520 LINE",
"223 572 LINE SMOOTH",
"228 649 OFFCURVE",
"276 695 OFFCURVE",
"351 695 CURVE SMOOTH",
"372 695 OFFCURVE",
"394 689 OFFCURVE",
"409 681 CURVE",
"411 723 LINE",
"393 731 OFFCURVE",
"371 736 OFFCURVE",
"353 736 CURVE SMOOTH",
"248 736 OFFCURVE",
"182 676 OFFCURVE",
"175 574 CURVE SMOOTH"
);
}
);
width = 685;
},
{
layerId = m002;
paths = (
{
closed = 1;
nodes = (
"141 518 LINE",
"68 523 LINE",
"58 370 LINE",
"131 370 LINE",
"105 0 LINE",
"303 0 LINE",
"329 370 LINE",
"476 370 LINE",
"450 0 LINE",
"648 0 LINE",
"674 370 LINE",
"778 370 LINE",
"788 520 LINE",
"684 520 LINE",
"685 530 LINE SMOOTH",
"687 560 OFFCURVE",
"709 577 OFFCURVE",
"747 577 CURVE SMOOTH",
"760 577 OFFCURVE",
"786 572 OFFCURVE",
"807 564 CURVE",
"814 722 LINE",
"797 730 OFFCURVE",
"768 736 OFFCURVE",
"739 736 CURVE SMOOTH",
"582 736 OFFCURVE",
"497 675 OFFCURVE",
"488 554 CURVE SMOOTH",
"486 518 LINE",
"443 520 LINE",
"339 520 LINE",
"340 530 LINE SMOOTH",
"342 560 OFFCURVE",
"364 577 OFFCURVE",
"402 577 CURVE SMOOTH",
"415 577 OFFCURVE",
"441 572 OFFCURVE",
"462 564 CURVE",
"469 722 LINE",
"452 730 OFFCURVE",
"423 736 OFFCURVE",
"394 736 CURVE SMOOTH",
"237 736 OFFCURVE",
"152 675 OFFCURVE",
"143 554 CURVE SMOOTH"
);
}
);
width = 816;
}
);
leftKerningGroup = f;
leftMetricsKey = f;
rightKerningGroup = f;
rightMetricsKey = f;
unicode = FB00;
},
{
color = 10;
glyphname = f_f_i;
lastChange = "2025-09-15 17:32:08 +0000";
layers = (
{
layerId = "FD4D3FDD-DE85-408F-A52A-FF600B1C6101";
paths = (
{
closed = 1;
nodes = (
"171 518 LINE",
"78 523 LINE",
"75 478 LINE",
"168 478 LINE",
"135 0 LINE",
"183 0 LINE",
"216 478 LINE",
"393 478 LINE",
"360 0 LINE",
"408 0 LINE",
"441 478 LINE",
"659 478 LINE",
"626 0 LINE",
"674 0 LINE",
"710 520 LINE",
"444 520 LINE",
"448 572 LINE SMOOTH",
"453 649 OFFCURVE",
"501 695 OFFCURVE",
"576 695 CURVE SMOOTH",
"597 695 OFFCURVE",
"619 689 OFFCURVE",
"634 681 CURVE",
"636 723 LINE",
"618 731 OFFCURVE",
"596 736 OFFCURVE",
"578 736 CURVE SMOOTH",
"473 736 OFFCURVE",
"407 676 OFFCURVE",
"400 574 CURVE SMOOTH",
"396 518 LINE",
"303 520 LINE",
"219 520 LINE",
"223 572 LINE SMOOTH",
"228 649 OFFCURVE",
"276 695 OFFCURVE",
"351 695 CURVE SMOOTH",
"372 695 OFFCURVE",
"394 689 OFFCURVE",
"409 681 CURVE",
"411 723 LINE",
"393 731 OFFCURVE",
"371 736 OFFCURVE",
"353 736 CURVE SMOOTH",
"248 736 OFFCURVE",
"182 676 OFFCURVE",
"175 574 CURVE SMOOTH"
);
},
{
closed = 1;
nodes = (
"719 654 LINE",
"724 723 LINE",
"676 723 LINE",
"671 654 LINE"
);
}
);
width = 752;
},
{
layerId = m002;
paths = (
{
closed = 1;
nodes = (
"141 518 LINE",
"68 523 LINE",
"58 370 LINE",
"131 370 LINE",
"105 0 LINE",
"303 0 LINE",
"329 370 LINE",
"476 370 LINE",
"450 0 LINE",
"648 0 LINE",
"674 370 LINE",
"818 370 LINE",
"792 0 LINE",
"990 0 LINE",
"1026 520 LINE",
"684 520 LINE",
"685 530 LINE SMOOTH",
"687 560 OFFCURVE",
"709 577 OFFCURVE",
"747 577 CURVE SMOOTH",
"760 577 OFFCURVE",
"786 572 OFFCURVE",
"807 564 CURVE",
"814 722 LINE",
"797 730 OFFCURVE",
"768 736 OFFCURVE",
"739 736 CURVE SMOOTH",
"582 736 OFFCURVE",
"497 675 OFFCURVE",
"488 554 CURVE SMOOTH",
"486 518 LINE",
"443 520 LINE",
"339 520 LINE",
"340 530 LINE SMOOTH",
"342 560 OFFCURVE",
"364 577 OFFCURVE",
"402 577 CURVE SMOOTH",
"415 577 OFFCURVE",
"441 572 OFFCURVE",
"462 564 CURVE",
"469 722 LINE",
"452 730 OFFCURVE",
"423 736 OFFCURVE",
"394 736 CURVE SMOOTH",
"237 736 OFFCURVE",
"152 675 OFFCURVE",
"143 554 CURVE SMOOTH"
);
},
{
closed = 1;
nodes = (
"1028 553 LINE",
"1040 723 LINE",
"842 723 LINE",
"830 553 LINE"
);
}
);
width = 1058;
}
);
leftKerningGroup = f;
leftMetricsKey = f;
rightKerningGroup = i;
rightMetricsKey = idotless;
unicode = FB03;
},
{
color = 10;
glyphname = f_t;
lastChange = "2025-09-15 19:10:57 +0000";
layers = (
{
layerId = "FD4D3FDD-DE85-408F-A52A-FF600B1C6101";
paths = (
{
closed = 1;
nodes = (
"171 518 LINE",
"78 523 LINE",
"75 478 LINE",
"168 478 LINE",
"135 0 LINE",
"183 0 LINE",
"216 478 LINE",
"433 478 LINE",
"409 140 LINE SMOOTH",
"402 31 OFFCURVE",
"440 -13 OFFCURVE",
"544 -13 CURVE SMOOTH",
"566 -13 OFFCURVE",
"581 -10 OFFCURVE",
"599 -3 CURVE",
"601 39 LINE",
"588 31 OFFCURVE",
"572 28 OFFCURVE",
"543 28 CURVE SMOOTH",
"476 28 OFFCURVE",
"452 59 OFFCURVE",
"457 138 CURVE SMOOTH",
"481 478 LINE",
"615 478 LINE",
"618 520 LINE",
"484 520 LINE",
"492 629 LINE",
"444 629 LINE",
"436 520 LINE",
"219 520 LINE",
"223 572 LINE SMOOTH",
"228 649 OFFCURVE",
"276 695 OFFCURVE",
"351 695 CURVE SMOOTH",
"372 695 OFFCURVE",
"394 689 OFFCURVE",
"409 681 CURVE",
"411 723 LINE",
"393 731 OFFCURVE",
"371 736 OFFCURVE",
"353 736 CURVE SMOOTH",
"248 736 OFFCURVE",
"182 676 OFFCURVE",
"175 574 CURVE SMOOTH"
);
}
);
width = 657;
},
{
layerId = m002;
paths = (
{
closed = 1;
nodes = (
"141 518 LINE",
"68 523 LINE",
"58 370 LINE",
"131 370 LINE",
"105 0 LINE",
"303 0 LINE",
"329 370 LINE",
"473 370 LINE",
"459 173 LINE SMOOTH",
"451 57 OFFCURVE",
"535 -13 OFFCURVE",
"683 -13 CURVE SMOOTH",
"718 -13 OFFCURVE",
"751 -9 OFFCURVE",
"770 -1 CURVE",
"777 161 LINE",
"753 152 OFFCURVE",
"723 146 OFFCURVE",
"694 146 CURVE SMOOTH",
"669 146 OFFCURVE",
"656 161 OFFCURVE",
"658 189 CURVE SMOOTH",
"671 370 LINE",
"775 370 LINE",
"785 520 LINE",
"681 520 LINE",
"689 629 LINE",
"491 629 LINE",
"483 518 LINE",
"410 520 LINE",
"339 520 LINE",
"342 560 OFFCURVE",
"364 577 OFFCURVE",
"402 577 CURVE SMOOTH",
"415 577 OFFCURVE",
"441 572 OFFCURVE",
"462 564 CURVE",
"469 722 LINE",
"452 730 OFFCURVE",
"423 736 OFFCURVE",
"394 736 CURVE SMOOTH",
"237 736 OFFCURVE",
"152 675 OFFCURVE",
"143 554 CURVE SMOOTH"
);
}
);
width = 818;
}
);
leftKerningGroup = f;
leftMetricsKey = f;
rightKerningGroup = t;
rightMetricsKey = t;
unicode = FB05;
},
{
color = 10;
glyphname = fi;
lastChange = "2025-09-15 17:32:05 +0000";
layers = (
{
layerId = "FD4D3FDD-DE85-408F-A52A-FF600B1C6101";
paths = (
{
closed = 1;
nodes = (
"171 518 LINE",
"78 523 LINE",
"75 478 LINE",
"168 478 LINE",
"135 0 LINE",
"183 0 LINE",
"216 478 LINE",
"404 478 LINE",
"371 0 LINE",
"419 0 LINE",
"455 520 LINE",
"219 520 LINE",
"223 574 LINE SMOOTH",
"228 653 OFFCURVE",
"266 695 OFFCURVE",
"331 695 CURVE SMOOTH",
"352 695 OFFCURVE",
"372 690 OFFCURVE",
"389 681 CURVE",
"391 723 LINE",
"373 731 OFFCURVE",
"351 736 OFFCURVE",
"329 736 CURVE SMOOTH",
"235 736 OFFCURVE",
"182 681 OFFCURVE",
"175 573 CURVE SMOOTH"
);
},
{
closed = 1;
nodes = (
"464 654 LINE",
"469 723 LINE",
"421 723 LINE",
"416 654 LINE"
);
}
);
width = 497;
},
{
layerId = m002;
paths = (
{
closed = 1;
nodes = (
"141 518 LINE",
"68 523 LINE",
"58 370 LINE",
"131 370 LINE",
"105 0 LINE",
"303 0 LINE",
"329 370 LINE",
"477 370 LINE",
"451 0 LINE",
"649 0 LINE",
"685 520 LINE",
"339 520 LINE",
"340 530 LINE SMOOTH",
"342 560 OFFCURVE",
"364 577 OFFCURVE",
"402 577 CURVE SMOOTH",
"415 577 OFFCURVE",
"441 572 OFFCURVE",
"462 564 CURVE",
"469 722 LINE",
"452 730 OFFCURVE",
"423 736 OFFCURVE",
"394 736 CURVE SMOOTH",
"237 736 OFFCURVE",
"152 675 OFFCURVE",
"143 554 CURVE SMOOTH"
);
},
{
closed = 1;
nodes = (
"687 553 LINE",
"699 723 LINE",
"501 723 LINE",
"489 553 LINE"
);
}
);
width = 717;
}
);
leftKerningGroup = f;
leftMetricsKey = f;
rightKerningGroup = i;
rightMetricsKey = idotless;
unicode = FB01;
},
{
color = 10;
glyphname = fl;
lastChange = "2025-09-15 17:32:03 +0000";
layers = (
{
layerId = "FD4D3FDD-DE85-408F-A52A-FF600B1C6101";
paths = (
{
closed = 1;
nodes = (
"397 520 LINE",
"219 520 LINE",
"223 574 LINE SMOOTH",
"228 653 OFFCURVE",
"266 695 OFFCURVE",
"331 695 CURVE SMOOTH",
"352 695 OFFCURVE",
"372 690 OFFCURVE",
"389 681 CURVE",
"391 723 LINE",
"373 731 OFFCURVE",
"351 736 OFFCURVE",
"329 736 CURVE SMOOTH",
"235 736 OFFCURVE",
"182 681 OFFCURVE",
"175 573 CURVE SMOOTH",
"171 518 LINE",
"78 523 LINE",
"75 478 LINE",
"168 478 LINE",
"135 0 LINE",
"183 0 LINE",
"216 478 LINE",
"394 478 LINE",
"361 0 LINE",
"409 0 LINE",
"458 704 LINE",
"411 723 LINE"
);
}
);
width = 487;
},
{
layerId = m002;
paths = (
{
closed = 1;
nodes = (
"487 520 LINE",
"339 520 LINE",
"340 530 LINE SMOOTH",
"342 560 OFFCURVE",
"364 577 OFFCURVE",
"402 577 CURVE SMOOTH",
"415 577 OFFCURVE",
"441 572 OFFCURVE",
"462 564 CURVE",
"469 722 LINE",
"452 730 OFFCURVE",
"423 736 OFFCURVE",
"394 736 CURVE SMOOTH",
"237 736 OFFCURVE",
"152 675 OFFCURVE",
"143 554 CURVE SMOOTH",
"141 518 LINE",
"68 523 LINE",
"58 370 LINE",
"131 370 LINE",
"105 0 LINE",
"303 0 LINE",
"329 370 LINE",
"477 370 LINE",
"451 0 LINE",
"619 0 LINE",
"665 669 LINE",
"501 723 LINE"
);
}
);
width = 687;
}
);
leftKerningGroup = f;
leftMetricsKey = f;
rightKerningGroup = l;
rightMetricsKey = l;
unicode = FB02;
},
{
color = 10;
glyphname = t_t;
lastChange = "2025-09-15 19:10:59 +0000";
layers = (
{
hints = (
{
place = "{149, 0}";
type = Stem;
},
{
place = "{461, 0}";
type = Stem;
}
);
layerId = "FD4D3FDD-DE85-408F-A52A-FF600B1C6101";
paths = (
{
closed = 1;
nodes = (
"117 31 OFFCURVE",
"155 -13 OFFCURVE",
"259 -13 CURVE SMOOTH",
"281 -13 OFFCURVE",
"296 -10 OFFCURVE",
"314 -3 CURVE",
"316 39 LINE",
"303 31 OFFCURVE",
"287 28 OFFCURVE",
"258 28 CURVE SMOOTH",
"191 28 OFFCURVE",
"167 59 OFFCURVE",
"172 138 CURVE SMOOTH",
"196 478 LINE",
"400 478 LINE",
"376 140 LINE SMOOTH",
"369 31 OFFCURVE",
"407 -13 OFFCURVE",
"511 -13 CURVE SMOOTH",
"533 -13 OFFCURVE",
"548 -10 OFFCURVE",
"566 -3 CURVE",
"568 39 LINE",
"555 31 OFFCURVE",
"539 28 OFFCURVE",
"510 28 CURVE SMOOTH",
"443 28 OFFCURVE",
"419 59 OFFCURVE",
"424 138 CURVE SMOOTH",
"448 478 LINE",
"582 478 LINE",
"585 520 LINE",
"451 520 LINE",
"459 629 LINE",
"411 629 LINE",
"403 518 LINE",
"320 520 LINE",
"199 520 LINE",
"207 629 LINE",
"159 629 LINE",
"151 518 LINE",
"58 523 LINE",
"55 478 LINE",
"148 478 LINE",
"124 140 LINE SMOOTH"
);
}
);
width = 624;
},
{
hints = (
{
place = "{149, 0}";
type = Stem;
},
{
place = "{504, 0}";
type = Stem;
}
);
layerId = m002;
paths = (
{
closed = 1;
nodes = (
"89 57 OFFCURVE",
"173 -13 OFFCURVE",
"321 -13 CURVE SMOOTH",
"356 -13 OFFCURVE",
"389 -9 OFFCURVE",
"408 -1 CURVE",
"415 161 LINE",
"391 152 OFFCURVE",
"361 146 OFFCURVE",
"332 146 CURVE SMOOTH",
"307 146 OFFCURVE",
"294 161 OFFCURVE",
"296 189 CURVE SMOOTH",
"309 370 LINE",
"456 370 LINE",
"442 173 LINE SMOOTH",
"434 57 OFFCURVE",
"518 -13 OFFCURVE",
"666 -13 CURVE SMOOTH",
"701 -13 OFFCURVE",
"734 -9 OFFCURVE",
"753 -1 CURVE",
"760 161 LINE",
"736 152 OFFCURVE",
"706 146 OFFCURVE",
"677 146 CURVE SMOOTH",
"652 146 OFFCURVE",
"639 161 OFFCURVE",
"641 189 CURVE SMOOTH",
"654 370 LINE",
"758 370 LINE",
"768 520 LINE",
"664 520 LINE",
"672 629 LINE",
"474 629 LINE",
"466 518 LINE",
"399 520 LINE",
"319 520 LINE",
"327 629 LINE",
"129 629 LINE",
"121 518 LINE",
"48 523 LINE",
"38 370 LINE",
"111 370 LINE",
"97 173 LINE SMOOTH"
);
}
);
width = 801;
}
);
leftKerningGroup = t;
leftMetricsKey = t;
rightKerningGroup = t;
rightMetricsKey = t;
},
{
color = 10;
glyphname = clickalveolar;
lastChange = "2025-09-15 19:11:09 +0000";
layers = (
{
layerId = "FD4D3FDD-DE85-408F-A52A-FF600B1C6101";
paths = (
{
closed = 1;
nodes = (
"198 518 LINE",
"58 523 LINE",
"55 478 LINE",
"195 478 LINE",
"188 369 LINE",
"48 374 LINE",
"45 329 LINE",
"185 329 LINE",
"149 -182 LINE",
"199 -182 LINE",
"235 329 LINE",
"370 329 LINE",
"373 371 LINE",
"238 371 LINE",
"245 478 LINE",
"380 478 LINE",
"383 520 LINE",
"248 520 LINE",
"262 714 LINE",
"212 714 LINE"
);
}
);
width = 405;
},
{
layerId = m002;
paths = (
{
closed = 1;
nodes = (
"187 523 LINE",
"49 528 LINE",
"38 375 LINE",
"176 375 LINE",
"170 283 LINE",
"32 288 LINE",
"21 135 LINE",
"159 135 LINE",
"137 -182 LINE",
"287 -182 LINE",
"309 135 LINE",
"446 135 LINE",
"457 285 LINE",
"320 285 LINE",
"326 375 LINE",
"463 375 LINE",
"473 525 LINE",
"337 525 LINE",
"350 714 LINE",
"200 714 LINE"
);
}
);
width = 485;
}
);
leftKerningGroup = t;
leftMetricsKey = t;
rightKerningGroup = t;
rightMetricsKey = t;
unicode = 01C2;
},
{
color = 10;
glyphname = ordfeminine;
lastChange = "2025-09-15 17:46:11 +0000";
layers = (
{
layerId = "FD4D3FDD-DE85-408F-A52A-FF600B1C6101";
paths = (
{
closed = 1;
nodes = (
"214 433 OFFCURVE",
"249 451 OFFCURVE",
"267 485 CURVE",
"268 486 LINE",
"262 440 LINE",
"311 440 LINE",
"330 708 LINE",
"282 708 LINE",
"280 660 LINE",
"278 659 LINE",
"265 694 OFFCURVE",
"232 714 OFFCURVE",
"194 714 CURVE SMOOTH",
"112 714 OFFCURVE",
"71 641 OFFCURVE",
"71 559 CURVE SMOOTH",
"71 491 OFFCURVE",
"107 433 OFFCURVE",
"175 433 CURVE SMOOTH"
);
},
{
closed = 1;
nodes = (
"119 618 OFFCURVE",
"146 672 OFFCURVE",
"206 672 CURVE SMOOTH",
"252 672 OFFCURVE",
"273 633 OFFCURVE",
"273 587 CURVE SMOOTH",
"273 528 OFFCURVE",
"245 474 OFFCURVE",
"186 474 CURVE SMOOTH",
"141 474 OFFCURVE",
"119 513 OFFCURVE",
"119 558 CURVE SMOOTH"
);
}
);
width = 359;
},
{
layerId = m002;
paths = (
{
closed = 1;
nodes = (
"198 433 OFFCURVE",
"225 436 OFFCURVE",
"241 457 CURVE SMOOTH",
"242 459 LINE",
"238 439 LINE",
"349 439 LINE",
"368 707 LINE",
"257 707 LINE",
"258 690 LINE",
"254 688 LINE",
"240 708 OFFCURVE",
"215 713 OFFCURVE",
"190 713 CURVE SMOOTH",
"106 713 OFFCURVE",
"52 648 OFFCURVE",
"52 564 CURVE SMOOTH",
"52 490 OFFCURVE",
"98 433 OFFCURVE",
"172 433 CURVE SMOOTH"
);
},
{
closed = 1;
nodes = (
"173 592 OFFCURVE",
"190 614 OFFCURVE",
"219 614 CURVE SMOOTH",
"237 614 OFFCURVE",
"248 602 OFFCURVE",
"248 584 CURVE SMOOTH",
"248 555 OFFCURVE",
"232 532 OFFCURVE",
"203 532 CURVE SMOOTH",
"184 532 OFFCURVE",
"173 544 OFFCURVE",
"173 563 CURVE SMOOTH"
);
}
);
width = 387;
}
);
leftKerningGroup = o;
leftMetricsKey = a;
rightKerningGroup = n;
rightMetricsKey = a;
unicode = 00AA;
},
{
color = 10;
glyphname = ordmasculine;
lastChange = "2025-09-15 17:45:49 +0000";
layers = (
{
layerId = "FD4D3FDD-DE85-408F-A52A-FF600B1C6101";
paths = (
{
closed = 1;
nodes = (
"122 714 OFFCURVE",
"77 651 OFFCURVE",
"72 574 CURVE SMOOTH",
"67 498 OFFCURVE",
"106 433 OFFCURVE",
"182 433 CURVE SMOOTH",
"259 433 OFFCURVE",
"306 495 OFFCURVE",
"311 572 CURVE SMOOTH",
"316 649 OFFCURVE",
"276 714 OFFCURVE",
"199 714 CURVE SMOOTH"
);
},
{
closed = 1;
nodes = (
"123 625 OFFCURVE",
"147 672 OFFCURVE",
"200 672 CURVE SMOOTH",
"250 672 OFFCURVE",
"266 624 OFFCURVE",
"263 574 CURVE SMOOTH",
"259 521 OFFCURVE",
"235 475 OFFCURVE",
"182 475 CURVE SMOOTH",
"132 475 OFFCURVE",
"116 522 OFFCURVE",
"120 572 CURVE SMOOTH"
);
}
);
width = 339;
},
{
layerId = m002;
paths = (
{
closed = 1;
nodes = (
"121 713 OFFCURVE",
"58 661 OFFCURVE",
"52 577 CURVE SMOOTH",
"46 490 OFFCURVE",
"107 432 OFFCURVE",
"194 432 CURVE SMOOTH",
"278 432 OFFCURVE",
"342 483 OFFCURVE",
"348 567 CURVE SMOOTH",
"355 655 OFFCURVE",
"293 713 OFFCURVE",
"205 713 CURVE SMOOTH"
);
},
{
closed = 1;
nodes = (
"174 592 OFFCURVE",
"183 614 OFFCURVE",
"208 614 CURVE SMOOTH",
"227 614 OFFCURVE",
"229 596 OFFCURVE",
"228 577 CURVE SMOOTH",
"227 552 OFFCURVE",
"217 531 OFFCURVE",
"192 531 CURVE SMOOTH",
"173 531 OFFCURVE",
"171 548 OFFCURVE",
"172 567 CURVE SMOOTH"
);
}
);
width = 357;
}
);
leftKerningGroup = o;
leftMetricsKey = o;
rightKerningGroup = o;
rightMetricsKey = o;
unicode = 00BA;
},
{
color = 10;
glyphname = "Be-cy";
lastChange = "2025-09-15 18:19:01 +0000";
layers = (
{
layerId = "FD4D3FDD-DE85-408F-A52A-FF600B1C6101";
paths = (
{
closed = 1;
nodes = (
"312 0 LINE SMOOTH",
"454 0 OFFCURVE",
"538 80 OFFCURVE",
"538 216 CURVE SMOOTH",
"538 330 OFFCURVE",
"460 398 OFFCURVE",
"327 398 CURVE SMOOTH",
"120 398 LINE",
"139 666 LINE",
"550 666 LINE",
"554 714 LINE",
"92 714 LINE",
"42 0 LINE"
);
},
{
closed = 1;
nodes = (
"117 351 LINE",
"325 351 LINE SMOOTH",
"427 351 OFFCURVE",
"488 299 OFFCURVE",
"488 212 CURVE SMOOTH",
"488 109 OFFCURVE",
"423 48 OFFCURVE",
"312 48 CURVE SMOOTH",
"95 48 LINE"
);
}
);
width = 592;
},
{
layerId = m002;
paths = (
{
closed = 1;
nodes = (
"384 0 LINE SMOOTH",
"557 0 OFFCURVE",
"660 89 OFFCURVE",
"660 240 CURVE SMOOTH",
"660 371 OFFCURVE",
"563 449 OFFCURVE",
"399 449 CURVE SMOOTH",
"283 449 LINE",
"290 546 LINE",
"652 546 LINE",
"664 714 LINE",
"92 714 LINE",
"42 0 LINE"
);
},
{
closed = 1;
nodes = (
"272 281 LINE",
"392 281 LINE SMOOTH",
"422 281 OFFCURVE",
"440 264 OFFCURVE",
"440 235 CURVE SMOOTH",
"440 193 OFFCURVE",
"421 168 OFFCURVE",
"389 168 CURVE SMOOTH",
"264 168 LINE"
);
}
);
width = 702;
}
);
leftKerningGroup = H;
leftMetricsKey = H;
rightKerningGroup = E;
rightMetricsKey = E;
unicode = 0411;
},
{
color = 10;
glyphname = "Ge-cy";
lastChange = "2025-09-15 18:19:03 +0000";
layers = (
{
anchors = (
{
name = Bottom;
position = "{286, 0}";
},
{
name = Top;
position = "{331, 714}";
}
);
layerId = "FD4D3FDD-DE85-408F-A52A-FF600B1C6101";
paths = (
{
closed = 1;
nodes = (
"139 666 LINE",
"550 666 LINE",
"554 714 LINE",
"92 714 LINE",
"42 0 LINE",
"92 0 LINE"
);
}
);
width = 552;
},
{
anchors = (
{
name = Bottom;
position = "{336, 0}";
},
{
name = Top;
position = "{381, 714}";
}
);
layerId = m002;
paths = (
{
closed = 1;
nodes = (
"290 546 LINE",
"622 546 LINE",
"634 714 LINE",
"92 714 LINE",
"42 0 LINE",
"252 0 LINE"
);
}
);
width = 632;
}
);
leftKerningGroup = H;
leftMetricsKey = H;
rightKerningGroup = "Ge-cy";
rightMetricsKey = T;
unicode = 0413;
},
{
color = 10;
glyphname = "Geupturn-cy";
lastChange = "2025-09-15 18:23:25 +0000";
layers = (
{
layerId = "FD4D3FDD-DE85-408F-A52A-FF600B1C6101";
paths = (
{
closed = 1;
nodes = (
"139 666 LINE",
"575 666 LINE",
"581 752 LINE",
"531 752 LINE",
"528 714 LINE",
"92 714 LINE",
"42 0 LINE",
"92 0 LINE"
);
}
);
width = 577;
},
{
layerId = m002;
paths = (
{
closed = 1;
nodes = (
"290 546 LINE",
"726 546 LINE",
"742 772 LINE",
"532 772 LINE",
"528 714 LINE",
"92 714 LINE",
"42 0 LINE",
"252 0 LINE"
);
}
);
width = 736;
}
);
leftKerningGroup = H;
leftMetricsKey = "Ge-cy";
rightKerningGroup = "Ge-cy";
rightMetricsKey = "Ge-cy";
unicode = 0490;
},
{
color = 10;
glyphname = "Gedescender-cy";
lastChange = "2025-09-15 18:23:27 +0000";
layers = (
{
layerId = "FD4D3FDD-DE85-408F-A52A-FF600B1C6101";
paths = (
{
closed = 1;
nodes = (
"85 -100 LINE",
"135 -100 LINE",
"145 48 LINE",
"95 48 LINE",
"139 666 LINE",
"550 666 LINE",
"554 714 LINE",
"92 714 LINE",
"42 0 LINE",
"92 0 LINE"
);
}
);
width = 552;
},
{
layerId = m002;
paths = (
{
closed = 1;
nodes = (
"245 -100 LINE",
"455 -100 LINE",
"473 168 LINE",
"264 168 LINE",
"290 546 LINE",
"622 546 LINE",
"634 714 LINE",
"92 714 LINE",
"42 0 LINE",
"252 0 LINE"
);
}
);
width = 632;
}
);
leftKerningGroup = H;
leftMetricsKey = "Ge-cy";
rightKerningGroup = "Ge-cy";
rightMetricsKey = "Ge-cy";
unicode = 04F6;
},
{
color = 10;
glyphname = "Gestroke-cy";
lastChange = "2025-09-15 18:23:31 +0000";
layers = (
{
layerId = "FD4D3FDD-DE85-408F-A52A-FF600B1C6101";
paths = (
{
closed = 1;
nodes = (
"177 344 LINE",
"497 344 LINE",
"499 384 LINE",
"180 384 LINE",
"200 666 LINE",
"611 666 LINE",
"615 714 LINE",
"153 714 LINE",
"130 384 LINE",
"69 384 LINE",
"67 344 LINE",
"127 344 LINE",
"103 0 LINE",
"153 0 LINE"
);
}
);
width = 613;
},
{
layerId = m002;
paths = (
{
closed = 1;
nodes = (
"329 233 LINE",
"614 233 LINE",
"624 383 LINE",
"340 383 LINE",
"351 546 LINE",
"683 546 LINE",
"695 714 LINE",
"153 714 LINE",
"130 383 LINE",
"69 383 LINE",
"59 233 LINE",
"119 233 LINE",
"103 0 LINE",
"313 0 LINE"
);
}
);
width = 693;
}
);
leftKerningGroup = "Ge-cy";
leftMetricsKey = "Ge-cy";
rightKerningGroup = "Ge-cy";
rightMetricsKey = "Ge-cy";
unicode = 0492;
},
{
color = 10;
glyphname = "Gemiddlehook-cy";
lastChange = "2025-09-15 18:19:05 +0000";
layers = (
{
layerId = "FD4D3FDD-DE85-408F-A52A-FF600B1C6101";
paths = (
{
closed = 1;
nodes = (
"526 348 OFFCURVE",
"447 432 OFFCURVE",
"306 432 CURVE SMOOTH",
"234 432 OFFCURVE",
"163 402 OFFCURVE",
"114 352 CURVE",
"112 353 LINE",
"126 420 LINE",
"144 666 LINE",
"550 666 LINE",
"554 714 LINE",
"92 714 LINE",
"42 0 LINE",
"92 0 LINE",
"112 289 LINE",
"165 347 OFFCURVE",
"236 382 OFFCURVE",
"303 382 CURVE SMOOTH",
"409 382 OFFCURVE",
"470 325 OFFCURVE",
"470 227 CURVE SMOOTH",
"470 138 OFFCURVE",
"431 3 OFFCURVE",
"328 -69 CURVE",
"358 -105 LINE",
"448 -43 OFFCURVE",
"507 72 OFFCURVE",
"516 207 CURVE SMOOTH"
);
}
);
width = 572;
},
{
layerId = m002;
paths = (
{
closed = 1;
nodes = (
"732 325 OFFCURVE",
"629 432 OFFCURVE",
"442 432 CURVE SMOOTH",
"376 432 OFFCURVE",
"314 412 OFFCURVE",
"272 382 CURVE",
"270 383 LINE",
"283 439 LINE",
"290 546 LINE",
"622 546 LINE",
"634 714 LINE",
"92 714 LINE",
"42 0 LINE",
"252 0 LINE",
"266 187 LINE",
"309 234 OFFCURVE",
"366 264 OFFCURVE",
"420 264 CURVE SMOOTH",
"471 264 OFFCURVE",
"501 229 OFFCURVE",
"501 168 CURVE SMOOTH",
"501 73 OFFCURVE",
"455 -2 OFFCURVE",
"387 -34 CURVE",
"499 -167 LINE",
"631 -85 OFFCURVE",
"712 31 OFFCURVE",
"720 143 CURVE SMOOTH"
);
}
);
width = 758;
}
);
leftKerningGroup = H;
leftMetricsKey = H;
rightKerningGroup = "Dje-cy";
rightMetricsKey = b;
unicode = 0494;
},
{
color = 10;
glyphname = "De-cy";
lastChange = "2025-09-15 18:19:07 +0000";
layers = (
{
layerId = "FD4D3FDD-DE85-408F-A52A-FF600B1C6101";
paths = (
{
closed = 1;
nodes = (
"260 714 LINE",
"181 164 LINE SMOOTH",
"170 88 OFFCURVE",
"123 48 OFFCURVE",
"46 48 CURVE SMOOTH",
"25 48 LINE",
"15 -100 LINE",
"65 -100 LINE",
"72 0 LINE",
"612 0 LINE",
"605 -100 LINE",
"655 -100 LINE",
"665 48 LINE",
"615 48 LINE",
"662 714 LINE"
);
},
{
closed = 1;
nodes = (
"207 75 OFFCURVE",
"224 113 OFFCURVE",
"231 162 CURVE SMOOTH",
"303 666 LINE",
"609 666 LINE",
"565 48 LINE",
"179 48 LINE"
);
}
);
width = 720;
},
{
layerId = m002;
paths = (
{
closed = 1;
nodes = (
"332 714 LINE",
"263 293 LINE SMOOTH",
"250 212 OFFCURVE",
"204 168 OFFCURVE",
"134 168 CURVE SMOOTH",
"34 168 LINE",
"16 -100 LINE",
"226 -100 LINE",
"233 0 LINE",
"687 0 LINE",
"680 -100 LINE",
"890 -100 LINE",
"908 168 LINE",
"805 168 LINE",
"843 714 LINE"
);
},
{
closed = 1;
nodes = (
"453 203 OFFCURVE",
"465 244 OFFCURVE",
"473 291 CURVE SMOOTH",
"515 546 LINE",
"621 546 LINE",
"595 168 LINE",
"437 168 LINE"
);
}
);
width = 955;
}
);
leftKerningGroup = "De-cy";
leftMetricsKey = J;
rightKerningGroup = "De-cy";
rightMetricsKey = L;
unicode = 0414;
},
{
color = 10;
glyphname = "Zhe-cy";
lastChange = "2025-09-15 18:19:10 +0000";
layers = (
{
anchors = (
{
name = Bottom;
position = "{338, 0}";
},
{
name = Top;
position = "{388, 714}";
}
);
layerId = "FD4D3FDD-DE85-408F-A52A-FF600B1C6101";
paths = (
{
closed = 1;
nodes = (
"386 326 LINE",
"388 326 LINE",
"594 0 LINE",
"652 0 LINE",
"427 357 LINE",
"703 714 LINE",
"643 714 LINE",
"392 388 LINE",
"390 388 LINE",
"413 714 LINE",
"363 714 LINE",
"340 388 LINE",
"338 388 LINE",
"131 714 LINE",
"73 714 LINE",
"298 358 LINE",
"22 0 LINE",
"82 0 LINE",
"334 326 LINE",
"336 326 LINE",
"313 0 LINE",
"363 0 LINE"
);
}
);
width = 711;
},
{
anchors = (
{
name = Bottom;
position = "{560, 0}";
},
{
name = Top;
position = "{610, 714}";
}
);
layerId = m002;
paths = (
{
closed = 1;
nodes = (
"685 282 LINE",
"688 282 LINE",
"869 0 LINE",
"1096 0 LINE",
"868 355 LINE",
"1147 714 LINE",
"917 714 LINE",
"697 431 LINE",
"695 431 LINE",
"715 714 LINE",
"505 714 LINE",
"485 431 LINE",
"483 431 LINE",
"301 714 LINE",
"73 714 LINE",
"301 359 LINE",
"22 0 LINE",
"253 0 LINE",
"472 282 LINE",
"475 282 LINE",
"455 0 LINE",
"665 0 LINE"
);
}
);
width = 1155;
}
);
leftKerningGroup = "Zhe-cy";
leftMetricsKey = A;
rightKerningGroup = "Zhe-cy";
rightMetricsKey = A;
unicode = 0416;
},
{
color = 10;
glyphname = "Ze-cy";
lastChange = "2025-09-15 18:19:13 +0000";
layers = (
{
anchors = (
{
name = Bottom;
position = "{267, 0}";
},
{
name = Top;
position = "{317, 714}";
}
);
layerId = "FD4D3FDD-DE85-408F-A52A-FF600B1C6101";
paths = (
{
closed = 1;
nodes = (
"465 101 OFFCURVE",
"384 35 OFFCURVE",
"271 35 CURVE SMOOTH",
"158 35 OFFCURVE",
"88 97 OFFCURVE",
"95 192 CURVE",
"45 194 LINE",
"37 70 OFFCURVE",
"126 -13 OFFCURVE",
"269 -13 CURVE SMOOTH",
"412 -13 OFFCURVE",
"513 70 OFFCURVE",
"521 196 CURVE SMOOTH",
"528 284 OFFCURVE",
"474 355 OFFCURVE",
"388 371 CURVE",
"389 373 LINE",
"464 399 OFFCURVE",
"517 461 OFFCURVE",
"522 529 CURVE SMOOTH",
"530 646 OFFCURVE",
"448 725 OFFCURVE",
"317 725 CURVE SMOOTH",
"180 725 OFFCURVE",
"84 648 OFFCURVE",
"76 530 CURVE",
"126 528 LINE",
"132 617 OFFCURVE",
"208 677 OFFCURVE",
"315 677 CURVE SMOOTH",
"416 677 OFFCURVE",
"478 619 OFFCURVE",
"472 531 CURVE SMOOTH",
"466 451 OFFCURVE",
"395 396 OFFCURVE",
"294 396 CURVE SMOOTH",
"247 396 LINE",
"244 348 LINE",
"292 348 LINE SMOOTH",
"407 348 OFFCURVE",
"478 289 OFFCURVE",
"471 198 CURVE SMOOTH"
);
}
);
width = 575;
},
{
anchors = (
{
name = Bottom;
position = "{312, 0}";
},
{
name = Top;
position = "{362, 714}";
}
);
layerId = m002;
paths = (
{
closed = 1;
nodes = (
"431 186 OFFCURVE",
"388 155 OFFCURVE",
"325 155 CURVE SMOOTH",
"268 155 OFFCURVE",
"238 182 OFFCURVE",
"242 231 CURVE",
"42 235 LINE",
"31 80 OFFCURVE",
"135 -13 OFFCURVE",
"318 -13 CURVE SMOOTH",
"507 -13 OFFCURVE",
"623 70 OFFCURVE",
"633 215 CURVE SMOOTH",
"638 287 OFFCURVE",
"599 345 OFFCURVE",
"530 370 CURVE",
"536 372 LINE",
"592 398 OFFCURVE",
"626 448 OFFCURVE",
"630 509 CURVE SMOOTH",
"640 644 OFFCURVE",
"539 726 OFFCURVE",
"363 726 CURVE SMOOTH",
"179 726 OFFCURVE",
"67 637 OFFCURVE",
"56 482 CURVE",
"256 478 LINE",
"259 527 OFFCURVE",
"298 558 OFFCURVE",
"356 558 CURVE SMOOTH",
"406 558 OFFCURVE",
"432 537 OFFCURVE",
"430 499 CURVE SMOOTH",
"427 461 OFFCURVE",
"396 437 OFFCURVE",
"349 437 CURVE SMOOTH",
"299 437 LINE",
"290 307 LINE",
"344 307 LINE SMOOTH",
"405 307 OFFCURVE",
"437 281 OFFCURVE",
"434 234 CURVE SMOOTH"
);
}
);
width = 676;
}
);
leftKerningGroup = "Ze-cy";
leftMetricsKey = O;
rightKerningGroup = "Ze-cy";
rightMetricsKey = O;
unicode = 0417;
},
{
color = 10;
glyphname = "Ii-cy";
lastChange = "2025-09-15 18:19:16 +0000";
layers = (
{
anchors = (
{
name = Bottom;
position = "{306, 0}";
},
{
name = Top;
position = "{351, 714}";
}
);
layerId = "FD4D3FDD-DE85-408F-A52A-FF600B1C6101";
paths = (
{
closed = 1;
nodes = (
"100 88 LINE",
"98 88 LINE",
"142 714 LINE",
"92 714 LINE",
"42 0 LINE",
"92 0 LINE",
"560 626 LINE",
"561 626 LINE",
"517 0 LINE",
"567 0 LINE",
"617 714 LINE",
"567 714 LINE"
);
}
);
width = 645;
},
{
anchors = (
{
name = Bottom;
position = "{390, 0}";
},
{
name = Top;
position = "{435, 714}";
}
);
layerId = m002;
paths = (
{
closed = 1;
nodes = (
"277 335 LINE",
"275 335 LINE",
"302 714 LINE",
"92 714 LINE",
"42 0 LINE",
"252 0 LINE",
"552 379 LINE",
"554 379 LINE",
"527 0 LINE",
"737 0 LINE",
"787 714 LINE",
"577 714 LINE"
);
}
);
width = 815;
}
);
leftKerningGroup = H;
leftMetricsKey = N;
rightKerningGroup = H;
rightMetricsKey = N;
unicode = 0418;
},
{
color = 10;
glyphname = "Ka-cy";
lastChange = "2025-09-15 18:19:18 +0000";
layers = (
{
anchors = (
{
name = Bottom;
position = "{236, 0}";
},
{
name = Top;
position = "{281, 714}";
}
);
layerId = "FD4D3FDD-DE85-408F-A52A-FF600B1C6101";
paths = (
{
closed = 1;
nodes = (
"42 0 LINE",
"92 0 LINE",
"118 369 LINE",
"120 370 LINE",
"418 0 LINE",
"487 0 LINE",
"175 383 LINE",
"538 714 LINE",
"467 714 LINE",
"122 400 LINE",
"120 401 LINE",
"142 714 LINE",
"92 714 LINE"
);
}
);
width = 546;
},
{
anchors = (
{
name = Bottom;
position = "{380, 0}";
},
{
name = Top;
position = "{425, 714}";
}
);
layerId = m002;
paths = (
{
closed = 1;
nodes = (
"42 0 LINE",
"252 0 LINE",
"272 288 LINE",
"274 289 LINE",
"508 0 LINE",
"777 0 LINE",
"464 382 LINE",
"828 714 LINE",
"557 714 LINE",
"287 467 LINE",
"285 468 LINE",
"302 714 LINE",
"92 714 LINE"
);
}
);
width = 836;
}
);
leftKerningGroup = H;
leftMetricsKey = K;
rightKerningGroup = K;
rightMetricsKey = K;
unicode = 041A;
},
{
color = 10;
glyphname = "El-cy";
lastChange = "2025-09-15 18:19:21 +0000";
layers = (
{
layerId = "FD4D3FDD-DE85-408F-A52A-FF600B1C6101";
paths = (
{
closed = 1;
nodes = (
"219 714 LINE",
"180 164 LINE SMOOTH",
"175 91 OFFCURVE",
"135 47 OFFCURVE",
"73 47 CURVE SMOOTH",
"54 47 OFFCURVE",
"36 48 OFFCURVE",
"25 51 CURVE",
"22 3 LINE",
"37 1 OFFCURVE",
"55 0 OFFCURVE",
"71 0 CURVE SMOOTH",
"164 0 OFFCURVE",
"223 60 OFFCURVE",
"230 162 CURVE SMOOTH",
"266 666 LINE",
"608 666 LINE",
"561 0 LINE",
"611 0 LINE",
"661 714 LINE"
);
}
);
width = 689;
},
{
layerId = m002;
paths = (
{
closed = 1;
nodes = (
"162 714 LINE",
"127 221 LINE SMOOTH",
"125 188 OFFCURVE",
"103 167 OFFCURVE",
"71 167 CURVE SMOOTH",
"55 167 OFFCURVE",
"47 167 OFFCURVE",
"34 170 CURVE",
"27 3 LINE",
"38 1 OFFCURVE",
"64 0 OFFCURVE",
"97 0 CURVE SMOOTH",
"239 0 OFFCURVE",
"327 81 OFFCURVE",
"337 221 CURVE SMOOTH",
"360 546 LINE",
"560 546 LINE",
"522 0 LINE",
"732 0 LINE",
"782 714 LINE"
);
}
);
width = 810;
}
);
leftKerningGroup = "El-cy";
leftMetricsKey = J;
rightKerningGroup = N;
rightMetricsKey = N;
unicode = 041B;
},
{
color = 10;
glyphname = "Pe-cy";
lastChange = "2025-09-15 18:19:23 +0000";
layers = (
{
layerId = "FD4D3FDD-DE85-408F-A52A-FF600B1C6101";
paths = (
{
closed = 1;
nodes = (
"139 666 LINE",
"583 666 LINE",
"536 0 LINE",
"586 0 LINE",
"636 714 LINE",
"92 714 LINE",
"42 0 LINE",
"92 0 LINE"
);
}
);
width = 664;
},
{
layerId = m002;
paths = (
{
closed = 1;
nodes = (
"290 546 LINE",
"544 546 LINE",
"506 0 LINE",
"716 0 LINE",
"766 714 LINE",
"92 714 LINE",
"42 0 LINE",
"252 0 LINE"
);
}
);
width = 794;
}
);
leftKerningGroup = H;
leftMetricsKey = H;
rightKerningGroup = H;
rightMetricsKey = H;
unicode = 041F;
},
{
color = 10;
glyphname = "U-cy";
lastChange = "2025-09-15 18:19:26 +0000";
layers = (
{
anchors = (
{
name = Top;
position = "{316, 714}";
}
);
layerId = "FD4D3FDD-DE85-408F-A52A-FF600B1C6101";
paths = (
{
closed = 1;
nodes = (
"559 715 LINE",
"508 715 LINE",
"300 270 LINE",
"299 270 LINE",
"121 715 LINE",
"72 715 LINE",
"272 210 LINE",
"233 126 LINE SMOOTH",
"205 66 OFFCURVE",
"164 34 OFFCURVE",
"116 34 CURVE SMOOTH",
"97 34 OFFCURVE",
"76 37 OFFCURVE",
"65 43 CURVE",
"63 -5 LINE",
"77 -10 OFFCURVE",
"94 -13 OFFCURVE",
"111 -13 CURVE SMOOTH",
"185 -13 OFFCURVE",
"239 29 OFFCURVE",
"284 124 CURVE SMOOTH"
);
}
);
width = 567;
},
{
anchors = (
{
name = Top;
position = "{389, 714}";
}
);
layerId = m002;
paths = (
{
closed = 1;
nodes = (
"705 714 LINE",
"496 714 LINE",
"379 477 LINE",
"378 477 LINE",
"279 714 LINE",
"72 714 LINE",
"267 249 LINE",
"249 212 LINE SMOOTH",
"231 175 OFFCURVE",
"193 154 OFFCURVE",
"140 154 CURVE SMOOTH",
"130 154 OFFCURVE",
"116 156 OFFCURVE",
"102 162 CURVE",
"95 -4 LINE",
"110 -9 OFFCURVE",
"135 -13 OFFCURVE",
"173 -13 CURVE SMOOTH",
"297 -13 OFFCURVE",
"390 59 OFFCURVE",
"467 219 CURVE SMOOTH"
);
}
);
width = 713;
}
);
leftKerningGroup = "U-cy";
leftMetricsKey = Y;
rightKerningGroup = "U-cy";
rightMetricsKey = Y;
unicode = 0423;
},
